{
copyright = "Copyright 2021 The Gantari Project Authors";
designer = "Anugrah Pasau";
familyName = Gantari;
customParameters = (
{
name = glyphOrder;
value = (
.notdef,
space,
exclam,
quotedbl,
numbersign,
dollar,
percent,
ampersand,
quotesingle,
parenleft,
parenright,
asterisk,
plus,
comma,
hyphen,
period,
slash,
zero,
one,
two,
three,
four,
five,
six,
seven,
eight,
nine,
colon,
semicolon,
less,
equal,
greater,
question,
at,
A,
B,
C,
D,
E,
F,
G,
H,
I,
J,
K,
L,
M,
N,
O,
P,
Q,
R,
S,
T,
U,
V,
W,
X,
Y,
Z,
bracketleft,
backslash,
bracketright,
asciicircum,
underscore,
grave,
a,
b,
c,
d,
e,
f,
g,
h,
i,
j,
k,
l,
m,
n,
o,
p,
q,
r,
s,
t,
u,
v,
w,
x,
y,
z,
braceleft,
bar,
braceright,
asciitilde,
uni00A0,
exclamdown,
cent,
sterling,
currency,
yen,
brokenbar,
section,
dieresis,
copyright,
ordfeminine,
guillemotleft,
logicalnot,
uni00AD,
registered,
macron,
degree,
plusminus,
twosuperior,
threesuperior,
acute,
mu,
paragraph,
periodcentered,
cedilla,
onesuperior,
ordmasculine,
guillemotright,
onequarter,
onehalf,
threequarters,
questiondown,
Agrave,
Aacute,
Acircumflex,
Atilde,
Adieresis,
Aring,
AE,
Ccedilla,
Egrave,
Eacute,
Ecircumflex,
Edieresis,
Igrave,
Iacute,
Icircumflex,
Idieresis,
Eth,
Ntilde,
Ograve,
Oacute,
Ocircumflex,
Otilde,
Odieresis,
multiply,
Oslash,
Ugrave,
Uacute,
Ucircumflex,
Udieresis,
Yacute,
Thorn,
germandbls,
agrave,
aacute,
acircumflex,
atilde,
adieresis,
aring,
ae,
ccedilla,
egrave,
eacute,
ecircumflex,
edieresis,
igrave,
iacute,
icircumflex,
idieresis,
eth,
ntilde,
ograve,
oacute,
ocircumflex,
otilde,
odieresis,
divide,
oslash,
ugrave,
uacute,
ucircumflex,
udieresis,
yacute,
thorn,
ydieresis,
dotlessi,
Lslash,
lslash,
OE,
oe,
Scaron,
scaron,
Ydieresis,
Zcaron,
zcaron,
florin,
circumflex,
caron,
breve,
dotaccent,
ring,
ogonek,
tilde,
hungarumlaut,
pi,
endash,
emdash,
quoteleft,
quoteright,
quotesinglbase,
quotedblleft,
quotedblright,
quotedblbase,
dagger,
daggerdbl,
bullet,
ellipsis,
perthousand,
guilsinglleft,
guilsinglright,
fraction,
Euro,

glyphs = (
{
glyphname = .notdef;
layers = (
{
layerId = "EA8306D6-B852-442A-A16D-2D86AE16EEA2";
paths = (
{
closed = 1;
nodes = (
"364 0 LINE",
"481 668 LINE",
"165 668 LINE",
"48 0 LINE"
);
},
{
closed = 1;
nodes = (
"338 28 LINE",
"82 28 LINE",
"190 640 LINE",
"446 640 LINE"
);
}
);
width = 496;
}
);
},
{
glyphname = exclam;
layers = (
{
layerId = "EA8306D6-B852-442A-A16D-2D86AE16EEA2";
paths = (
{
closed = 1;
nodes = (
"111 176 LINE",
"171 486 LINE",
"203 668 LINE",
"171 668 LINE",
"139 486 LINE",
"91 176 LINE"
);
},
{
closed = 1;
nodes = (
"87 -4 OFFCURVE",
"99 7 OFFCURVE",
"99 24 CURVE SMOOTH",
"99 39 OFFCURVE",
"91 46 OFFCURVE",
"76 46 CURVE SMOOTH",
"59 46 OFFCURVE",
"47 35 OFFCURVE",
"47 18 CURVE SMOOTH",
"47 3 OFFCURVE",
"55 -4 OFFCURVE",
"70 -4 CURVE SMOOTH"
);
}
);
width = 224;
}
);
unicode = 0021;
},
{
glyphname = quotedbl;
layers = (
{
layerId = "EA8306D6-B852-442A-A16D-2D86AE16EEA2";
paths = (
{
closed = 1;
nodes = (
"154 422 LINE",
"203 668 LINE",
"171 668 LINE",
"134 422 LINE"
);
},
{
closed = 1;
nodes = (
"292 422 LINE",
"341 668 LINE",
"309 668 LINE",
"272 422 LINE"
);
}
);
width = 362;
}
);
leftKerningGroup = _quotedbl;
rightKerningGroup = _quotedbl;
unicode = 0022;
},
{
glyphname = numbersign;
layers = (
{
layerId = "EA8306D6-B852-442A-A16D-2D86AE16EEA2";
paths = (
{
closed = 1;
nodes = (
"347 0 LINE",
"413 191 LINE",
"524 191 LINE",
"534 219 LINE",
"423 219 LINE",
"505 449 LINE",
"616 449 LINE",
"626 477 LINE",
"515 477 LINE",
"582 668 LINE",
"552 668 LINE",
"485 477 LINE",
"276 477 LINE",
"342 668 LINE",
"312 668 LINE",
"246 477 LINE",
"135 477 LINE",
"125 449 LINE",
"236 449 LINE",
"154 219 LINE",
"43 219 LINE",
"33 191 LINE",
"144 191 LINE",
"77 0 LINE",
"107 0 LINE",
"174 191 LINE",
"383 191 LINE",
"317 0 LINE"
);
},
{
closed = 1;
nodes = (
"393 219 LINE",
"184 219 LINE",
"266 449 LINE",
"475 449 LINE"
);
}
);
width = 626;
}
);
unicode = 0023;
},
{
glyphname = dollar;
layers = (
{
layerId = "EA8306D6-B852-442A-A16D-2D86AE16EEA2";
paths = (
{
closed = 1;
nodes = (
"151 -100 LINE",
"190 -2 LINE",
"213 -7 OFFCURVE",
"237 -10 OFFCURVE",
"261 -10 CURVE SMOOTH",
"414 -10 OFFCURVE",
"517 74 OFFCURVE",
"517 199 CURVE SMOOTH",
"517 271 OFFCURVE",
"479 325 OFFCURVE",
"390 344 CURVE SMOOTH",
"335 355 LINE",
"449 634 LINE",
"488 621 OFFCURVE",
"518 600 OFFCURVE",
"545 573 CURVE",
"569 595 LINE",
"540 626 OFFCURVE",
"504 648 OFFCURVE",
"461 663 CURVE",
"504 768 LINE",
"474 768 LINE",
"434 670 LINE",
"409 675 OFFCURVE",
"386 678 OFFCURVE",
"363 678 CURVE SMOOTH",
"220 678 OFFCURVE",
"128 590 OFFCURVE",
"128 478 CURVE SMOOTH",
"128 407 OFFCURVE",
"169 357 OFFCURVE",
"257 340 CURVE SMOOTH",
"296 332 LINE",
"175 34 LINE",
"136 47 OFFCURVE",
"99 72 OFFCURVE",
"62 109 CURVE",
"38 88 LINE",
"75 47 OFFCURVE",
"117 19 OFFCURVE",
"163 4 CURVE",
"121 -100 LINE"
);
},
{
closed = 1;
nodes = (
"388 314 LINE SMOOTH",
"452 301 OFFCURVE",
"483 260 OFFCURVE",
"483 199 CURVE SMOOTH",
"483 83 OFFCURVE",
"391 20 OFFCURVE",
"261 20 CURVE SMOOTH",
"240 20 OFFCURVE",
"220 22 OFFCURVE",
"202 26 CURVE",
"324 326 LINE"
);
},
{
closed = 1;
nodes = (
"162 581 OFFCURVE",
"243 648 OFFCURVE",
"363 648 CURVE SMOOTH",
"384 648 OFFCURVE",
"403 645 OFFCURVE",
"422 641 CURVE",
"308 360 LINE",
"260 370 LINE SMOOTH",
"195 383 OFFCURVE",
"162 419 OFFCURVE",
"162 478 CURVE SMOOTH"
);
}
);
width = 592;
}
);
unicode = 0024;
},
{
glyphname = percent;
layers = (
{
layerId = "EA8306D6-B852-442A-A16D-2D86AE16EEA2";
paths = (
{
closed = 1;
nodes = (
"354 268 OFFCURVE",
"411 403 OFFCURVE",
"411 519 CURVE SMOOTH",
"411 608 OFFCURVE",
"366 674 OFFCURVE",
"286 674 CURVE SMOOTH",
"158 674 OFFCURVE",
"101 539 OFFCURVE",
"101 423 CURVE SMOOTH",
"101 334 OFFCURVE",
"146 268 OFFCURVE",
"226 268 CURVE SMOOTH"
);
},
{
closed = 1;
nodes = (
"170 296 OFFCURVE",
"135 340 OFFCURVE",
"135 423 CURVE SMOOTH",
"135 530 OFFCURVE",
"183 646 OFFCURVE",
"286 646 CURVE SMOOTH",
"342 646 OFFCURVE",
"377 602 OFFCURVE",
"377 519 CURVE SMOOTH",
"377 412 OFFCURVE",
"329 296 OFFCURVE",
"226 296 CURVE SMOOTH"
);
},
{
closed = 1;
nodes = (
"283 0 LINE",
"758 668 LINE",
"724 668 LINE",
"249 0 LINE"
);
},
{
closed = 1;
nodes = (
"849 -6 OFFCURVE",
"906 129 OFFCURVE",
"906 245 CURVE SMOOTH",
"906 334 OFFCURVE",
"861 400 OFFCURVE",
"781 400 CURVE SMOOTH",
"653 400 OFFCURVE",
"596 265 OFFCURVE",
"596 149 CURVE SMOOTH",
"596 60 OFFCURVE",
"641 -6 OFFCURVE",
"721 -6 CURVE SMOOTH"
);
},
{
closed = 1;
nodes = (
"665 22 OFFCURVE",
"630 66 OFFCURVE",
"630 149 CURVE SMOOTH",
"630 256 OFFCURVE",
"678 372 OFFCURVE",
"781 372 CURVE SMOOTH",
"837 372 OFFCURVE",
"872 328 OFFCURVE",
"872 245 CURVE SMOOTH",
"872 138 OFFCURVE",
"824 22 OFFCURVE",
"721 22 CURVE SMOOTH"
);
}
);
width = 974;
}
);
unicode = 0025;
},
{
glyphname = ampersand;
layers = (
{
layerId = "EA8306D6-B852-442A-A16D-2D86AE16EEA2";
paths = (
{
closed = 1;
nodes = (
"310 -10 OFFCURVE",
"372 25 OFFCURVE",
"458 122 CURVE",
"566 0 LINE",
"608 0 LINE",
"479 146 LINE",
"633 324 LINE",
"599 324 LINE",
"462 165 LINE",
"311 336 LINE",
"377 359 LINE SMOOTH",
"485 396 OFFCURVE",
"534 448 OFFCURVE",
"534 532 CURVE SMOOTH",
"534 609 OFFCURVE",
"478 678 OFFCURVE",
"385 678 CURVE SMOOTH",
"271 678 OFFCURVE",
"194 596 OFFCURVE",
"194 492 CURVE SMOOTH",
"194 449 OFFCURVE",
"213 402 OFFCURVE",
"260 346 CURVE",
"210 329 LINE SMOOTH",
"102 292 OFFCURVE",
"50 230 OFFCURVE",
"50 146 CURVE SMOOTH",
"50 61 OFFCURVE",
"110 -10 OFFCURVE",
"226 -10 CURVE SMOOTH"
);
},
{
closed = 1;
nodes = (
"138 18 OFFCURVE",
"82 66 OFFCURVE",
"82 146 CURVE SMOOTH",
"82 223 OFFCURVE",
"128 273 OFFCURVE",
"216 304 CURVE",
"279 325 LINE",
"441 141 LINE",
"356 48 OFFCURVE",
"294 18 OFFCURVE",
"226 18 CURVE SMOOTH"
);
},
{
closed = 1;
nodes = (
"457 650 OFFCURVE",
"502 595 OFFCURVE",
"502 532 CURVE SMOOTH",
"502 464 OFFCURVE",
"464 417 OFFCURVE",
"372 385 CURVE SMOOTH",
"292 357 LINE",
"245 412 OFFCURVE",
"226 453 OFFCURVE",
"226 492 CURVE SMOOTH",
"226 581 OFFCURVE",
"294 650 OFFCURVE",
"385 650 CURVE SMOOTH"
);
}
);
width = 672;
}
);
unicode = 0026;
},
{
glyphname = quotesingle;
layers = (
{
layerId = "EA8306D6-B852-442A-A16D-2D86AE16EEA2";
paths = (
{
closed = 1;
nodes = (
"154 422 LINE",
"203 668 LINE",
"171 668 LINE",
"134 422 LINE"
);
}
);
width = 224;
}
);
leftKerningGroup = _quotedbl;
rightKerningGroup = _quotedbl;
unicode = 0027;
},
{
glyphname = parenleft;
layers = (
{
layerId = "EA8306D6-B852-442A-A16D-2D86AE16EEA2";
paths = (
{
closed = 1;
nodes = (
"64 -14 OFFCURVE",
"118 -185 OFFCURVE",
"174 -252 CURVE",
"203 -252 LINE",
"150 -186 OFFCURVE",
"96 -14 OFFCURVE",
"96 127 CURVE SMOOTH",
"96 364 OFFCURVE",
"242 642 OFFCURVE",
"378 738 CURVE",
"349 738 LINE",
"210 642 OFFCURVE",
"64 363 OFFCURVE",
"64 127 CURVE SMOOTH"
);
}
);
width = 334;
}
);
unicode = 0028;
},
{
glyphname = parenright;
layers = (
{
layerId = "EA8306D6-B852-442A-A16D-2D86AE16EEA2";
paths = (
{
closed = 1;
nodes = (
"271 502 OFFCURVE",
"217 669 OFFCURVE",
"161 738 CURVE",
"132 738 LINE",
"184 670 OFFCURVE",
"239 501 OFFCURVE",
"239 359 CURVE SMOOTH",
"239 122 OFFCURVE",
"93 -156 OFFCURVE",
"-43 -252 CURVE",
"-14 -252 LINE",
"125 -156 OFFCURVE",
"271 123 OFFCURVE",
"271 359 CURVE SMOOTH"
);
}
);
width = 334;
}
);
unicode = 0029;
},
{
glyphname = asterisk;
layers = (
{
layerId = "EA8306D6-B852-442A-A16D-2D86AE16EEA2";
paths = (
{
closed = 1;
nodes = (
"355 322 LINE",
"385 340 LINE",
"300 478 LINE",
"476 524 LINE",
"472 555 LINE",
"299 494 LINE",
"337 668 LINE",
"305 668 LINE",
"283 494 LINE",
"130 555 LINE",
"116 524 LINE",
"276 478 LINE",
"141 340 LINE",
"165 322 LINE",
"287 467 LINE"
);
}
);
width = 492;
}
);
unicode = 002A;
},
{
glyphname = plus;
layers = (
{
layerId = "EA8306D6-B852-442A-A16D-2D86AE16EEA2";
paths = (
{
closed = 1;
nodes = (
"289 139 LINE",
"321 320 LINE",
"500 320 LINE",
"505 348 LINE",
"326 348 LINE",
"358 529 LINE",
"326 529 LINE",
"294 348 LINE",
"115 348 LINE",
"110 320 LINE",
"289 320 LINE",
"257 139 LINE"
);
}
);
width = 582;
}
);
leftKerningGroup = _plus;
rightKerningGroup = _plus;
unicode = 002B;
},
{
glyphname = comma;
layers = (
{
layerId = "EA8306D6-B852-442A-A16D-2D86AE16EEA2";
paths = (
{
closed = 1;
nodes = (
"19 -144 LINE",
"56 -116 OFFCURVE",
"71 -79 OFFCURVE",
"82 -22 CURVE SMOOTH",
"94 46 LINE",
"62 46 LINE",
"50 -22 LINE SMOOTH",
"41 -74 OFFCURVE",
"28 -100 OFFCURVE",
"0 -135 CURVE"
);
}
);
width = 224;
}
);
leftKerningGroup = _comma;
rightKerningGroup = _comma;
unicode = 002C;
},
{
glyphname = hyphen;
layers = (
{
layerId = "EA8306D6-B852-442A-A16D-2D86AE16EEA2";
paths = (
{
closed = 1;
nodes = (
"307 272 LINE",
"312 300 LINE",
"76 300 LINE",
"71 272 LINE"
);
}
);
width = 368;
}
);
leftKerningGroup = _hypen;
rightKerningGroup = _hypen;
unicode = 002D;
},
{
glyphname = period;
layers = (
{
layerId = "EA8306D6-B852-442A-A16D-2D86AE16EEA2";
paths = (
{
closed = 1;
nodes = (
"87 -4 OFFCURVE",
"99 7 OFFCURVE",
"99 24 CURVE SMOOTH",
"99 39 OFFCURVE",
"91 46 OFFCURVE",
"76 46 CURVE SMOOTH",
"59 46 OFFCURVE",
"47 35 OFFCURVE",
"47 18 CURVE SMOOTH",
"47 3 OFFCURVE",
"55 -4 OFFCURVE",
"70 -4 CURVE SMOOTH"
);
}
);
width = 224;
}
);
leftKerningGroup = _comma;
rightKerningGroup = _comma;
unicode = 002E;
},
{
glyphname = slash;
layers = (
{
layerId = "EA8306D6-B852-442A-A16D-2D86AE16EEA2";
paths = (
{
closed = 1;
nodes = (
"15 0 LINE",
"349 668 LINE",
"316 668 LINE",
"-18 0 LINE"
);
}
);
width = 298;
}
);
unicode = 002F;
},
{
glyphname = zero;
layers = (
{
layerId = "EA8306D6-B852-442A-A16D-2D86AE16EEA2";
paths = (
{
closed = 1;
nodes = (
"182 18 OFFCURVE",
"108 96 OFFCURVE",
"108 252 CURVE SMOOTH",
"108 446 OFFCURVE",
"193 650 OFFCURVE",
"388 650 CURVE SMOOTH",
"492 650 OFFCURVE",
"566 572 OFFCURVE",
"566 416 CURVE SMOOTH",
"566 222 OFFCURVE",
"481 18 OFFCURVE",
"286 18 CURVE SMOOTH"
);
},
{
closed = 1;
nodes = (
"505 -10 OFFCURVE",
"600 220 OFFCURVE",
"600 416 CURVE SMOOTH",
"600 568 OFFCURVE",
"524 678 OFFCURVE",
"388 678 CURVE SMOOTH",
"169 678 OFFCURVE",
"74 448 OFFCURVE",
"74 252 CURVE SMOOTH",
"74 100 OFFCURVE",
"150 -10 OFFCURVE",
"286 -10 CURVE SMOOTH"
);
}
);
width = 642;
}
);
unicode = 0030;
},
{
glyphname = one;
layers = (
{
layerId = "EA8306D6-B852-442A-A16D-2D86AE16EEA2";
paths = (
{
closed = 1;
nodes = (
"244 0 LINE",
"361 668 LINE",
"329 668 LINE",
"101 554 LINE",
"115 531 LINE",
"324 637 LINE",
"212 0 LINE"
);
}
);
width = 382;
}
);
unicode = 0031;
},
{
glyphname = two;
layers = (
{
layerId = "EA8306D6-B852-442A-A16D-2D86AE16EEA2";
paths = (
{
closed = 1;
nodes = (
"446 0 LINE",
"450 28 LINE",
"77 28 LINE",
"422 312 LINE",
"504 378 OFFCURVE",
"520 452 OFFCURVE",
"520 502 CURVE SMOOTH",
"520 601 OFFCURVE",
"438 678 OFFCURVE",
"330 678 CURVE SMOOTH",
"262 678 OFFCURVE",
"186 655 OFFCURVE",
"125 586 CURVE",
"142 562 LINE",
"209 630 OFFCURVE",
"266 650 OFFCURVE",
"330 650 CURVE SMOOTH",
"424 650 OFFCURVE",
"486 585 OFFCURVE",
"486 502 CURVE SMOOTH",
"486 442 OFFCURVE",
"463 387 OFFCURVE",
"396 332 CURVE SMOOTH",
"28 28 LINE",
"24 0 LINE"
);
}
);
width = 554;
}
);
unicode = 0032;
},
{
glyphname = three;
layers = (
{
layerId = "EA8306D6-B852-442A-A16D-2D86AE16EEA2";
paths = (
{
closed = 1;
nodes = (
"392 -10 OFFCURVE",
"499 70 OFFCURVE",
"499 192 CURVE SMOOTH",
"499 268 OFFCURVE",
"451 321 OFFCURVE",
"371 342 CURVE",
"475 361 OFFCURVE",
"546 432 OFFCURVE",
"546 519 CURVE SMOOTH",
"546 614 OFFCURVE",
"466 678 OFFCURVE",
"345 678 CURVE SMOOTH",
"268 678 OFFCURVE",
"196 654 OFFCURVE",
"135 586 CURVE",
"152 562 LINE",
"215 625 OFFCURVE",
"267 650 OFFCURVE",
"345 650 CURVE SMOOTH",
"444 650 OFFCURVE",
"512 607 OFFCURVE",
"512 519 CURVE SMOOTH",
"512 411 OFFCURVE",
"415 358 OFFCURVE",
"303 358 CURVE SMOOTH",
"234 358 LINE",
"229 330 LINE",
"289 330 LINE SMOOTH",
"397 330 OFFCURVE",
"465 281 OFFCURVE",
"465 192 CURVE SMOOTH",
"465 84 OFFCURVE",
"368 18 OFFCURVE",
"243 18 CURVE SMOOTH",
"160 18 OFFCURVE",
"108 46 OFFCURVE",
"61 106 CURVE",
"39 85 LINE",
"86 25 OFFCURVE",
"140 -10 OFFCURVE",
"243 -10 CURVE SMOOTH"
);
}
);
width = 574;
}
);
unicode = 0033;
},
{
glyphname = four;
layers = (
{
layerId = "EA8306D6-B852-442A-A16D-2D86AE16EEA2";
paths = (
{
closed = 1;
nodes = (
"426 0 LINE",
"458 184 LINE",
"546 184 LINE",
"551 212 LINE",
"463 212 LINE",
"543 668 LINE",
"501 668 LINE",
"63 222 LINE",
"56 184 LINE",
"426 184 LINE",
"394 0 LINE"
);
},
{
closed = 1;
nodes = (
"431 212 LINE",
"92 212 LINE",
"505 634 LINE"
);
}
);
width = 622;
}
);
unicode = 0034;
},
{
glyphname = five;
layers = (
{
layerId = "EA8306D6-B852-442A-A16D-2D86AE16EEA2";
paths = (
{
closed = 1;
nodes = (
"411 -10 OFFCURVE",
"514 91 OFFCURVE",
"514 240 CURVE SMOOTH",
"514 356 OFFCURVE",
"433 428 OFFCURVE",
"309 428 CURVE SMOOTH",
"254 428 OFFCURVE",
"195 418 OFFCURVE",
"144 363 CURVE",
"245 650 LINE",
"538 650 LINE",
"543 678 LINE",
"223 678 LINE",
"91 304 LINE",
"120 297 LINE",
"147 369 OFFCURVE",
"216 400 OFFCURVE",
"299 400 CURVE SMOOTH",
"412 400 OFFCURVE",
"480 349 OFFCURVE",
"480 240 CURVE SMOOTH",
"480 96 OFFCURVE",
"386 18 OFFCURVE",
"251 18 CURVE SMOOTH",
"167 18 OFFCURVE",
"116 40 OFFCURVE",
"63 106 CURVE",
"40 86 LINE",
"95 15 OFFCURVE",
"149 -10 OFFCURVE",
"251 -10 CURVE SMOOTH"
);
}
);
width = 582;
}
);
unicode = 0035;
},
{
glyphname = six;
layers = (
{
layerId = "EA8306D6-B852-442A-A16D-2D86AE16EEA2";
paths = (
{
closed = 1;
nodes = (
"441 -10 OFFCURVE",
"544 91 OFFCURVE",
"544 240 CURVE SMOOTH",
"544 356 OFFCURVE",
"463 428 OFFCURVE",
"339 428 CURVE SMOOTH",
"228 428 OFFCURVE",
"153 384 OFFCURVE",
"106 307 CURVE",
"149 556 OFFCURVE",
"256 650 OFFCURVE",
"399 650 CURVE SMOOTH",
"475 650 OFFCURVE",
"527 618 OFFCURVE",
"564 562 CURVE",
"587 582 LINE",
"550 641 OFFCURVE",
"483 678 OFFCURVE",
"399 678 CURVE SMOOTH",
"163 678 OFFCURVE",
"66 444 OFFCURVE",
"66 219 CURVE SMOOTH",
"66 71 OFFCURVE",
"145 -10 OFFCURVE",
"281 -10 CURVE SMOOTH"
);
},
{
closed = 1;
nodes = (
"150 18 OFFCURVE",
"100 96 OFFCURVE",
"100 219 CURVE",
"120 334 OFFCURVE",
"200 400 OFFCURVE",
"329 400 CURVE SMOOTH",
"442 400 OFFCURVE",
"510 349 OFFCURVE",
"510 240 CURVE SMOOTH",
"510 96 OFFCURVE",
"416 18 OFFCURVE",
"281 18 CURVE SMOOTH"
);
}
);
width = 612;
}
);
unicode = 0036;
},
{
glyphname = seven;
layers = (
{
layerId = "EA8306D6-B852-442A-A16D-2D86AE16EEA2";
paths = (
{
closed = 1;
nodes = (
"142 0 LINE",
"538 640 LINE",
"543 668 LINE",
"121 668 LINE",
"116 640 LINE",
"504 640 LINE",
"108 0 LINE"
);
}
);
width = 514;
}
);
unicode = 0037;
},
{
glyphname = eight;
layers = (
{
layerId = "EA8306D6-B852-442A-A16D-2D86AE16EEA2";
paths = (
{
closed = 1;
nodes = (
"439 -10 OFFCURVE",
"537 75 OFFCURVE",
"537 192 CURVE SMOOTH",
"537 265 OFFCURVE",
"483 325 OFFCURVE",
"398 344 CURVE",
"519 359 OFFCURVE",
"584 433 OFFCURVE",
"584 521 CURVE SMOOTH",
"584 614 OFFCURVE",
"508 678 OFFCURVE",
"373 678 CURVE SMOOTH",
"214 678 OFFCURVE",
"119 599 OFFCURVE",
"119 488 CURVE SMOOTH",
"119 421 OFFCURVE",
"170 363 OFFCURVE",
"250 344 CURVE",
"119 331 OFFCURVE",
"51 257 OFFCURVE",
"51 157 CURVE SMOOTH",
"51 61 OFFCURVE",
"128 -10 OFFCURVE",
"271 -10 CURVE SMOOTH"
);
},
{
closed = 1;
nodes = (
"150 18 OFFCURVE",
"85 73 OFFCURVE",
"85 157 CURVE SMOOTH",
"85 265 OFFCURVE",
"173 330 OFFCURVE",
"317 330 CURVE SMOOTH",
"437 330 OFFCURVE",
"503 269 OFFCURVE",
"503 192 CURVE SMOOTH",
"503 84 OFFCURVE",
"415 18 OFFCURVE",
"271 18 CURVE SMOOTH"
);
},
{
closed = 1;
nodes = (
"219 358 OFFCURVE",
"154 403 OFFCURVE",
"154 488 CURVE SMOOTH",
"154 597 OFFCURVE",
"242 650 OFFCURVE",
"373 650 CURVE SMOOTH",
"485 650 OFFCURVE",
"550 605 OFFCURVE",
"550 521 CURVE SMOOTH",
"550 410 OFFCURVE",
"463 358 OFFCURVE",
"331 358 CURVE SMOOTH"
);
}
);
width = 612;
}
);
unicode = 0038;
},
{
glyphname = nine;
layers = (
{
layerId = "EA8306D6-B852-442A-A16D-2D86AE16EEA2";
paths = (
{
closed = 1;
nodes = (
"412 240 OFFCURVE",
"487 284 OFFCURVE",
"534 361 CURVE",
"488 112 OFFCURVE",
"386 18 OFFCURVE",
"241 18 CURVE SMOOTH",
"165 18 OFFCURVE",
"113 50 OFFCURVE",
"76 106 CURVE",
"53 86 LINE",
"90 27 OFFCURVE",
"157 -10 OFFCURVE",
"241 -10 CURVE SMOOTH",
"477 -10 OFFCURVE",
"574 224 OFFCURVE",
"574 449 CURVE SMOOTH",
"574 597 OFFCURVE",
"495 678 OFFCURVE",
"359 678 CURVE SMOOTH",
"199 678 OFFCURVE",
"96 577 OFFCURVE",
"96 428 CURVE SMOOTH",
"96 312 OFFCURVE",
"177 240 OFFCURVE",
"301 240 CURVE SMOOTH"
);
},
{
closed = 1;
nodes = (
"198 268 OFFCURVE",
"130 319 OFFCURVE",
"130 428 CURVE SMOOTH",
"130 572 OFFCURVE",
"224 650 OFFCURVE",
"359 650 CURVE SMOOTH",
"489 650 OFFCURVE",
"540 572 OFFCURVE",
"540 449 CURVE",
"520 334 OFFCURVE",
"440 268 OFFCURVE",
"311 268 CURVE SMOOTH"
);
}
);
width = 612;
}
);
unicode = 0039;
},
{
glyphname = colon;
layers = (
{
layerId = "EA8306D6-B852-442A-A16D-2D86AE16EEA2";
paths = (
{
closed = 1;
nodes = (
"87 -4 OFFCURVE",
"99 7 OFFCURVE",
"99 24 CURVE SMOOTH",
"99 39 OFFCURVE",
"91 46 OFFCURVE",
"76 46 CURVE SMOOTH",
"59 46 OFFCURVE",
"47 35 OFFCURVE",
"47 18 CURVE SMOOTH",
"47 3 OFFCURVE",
"55 -4 OFFCURVE",
"70 -4 CURVE SMOOTH"
);
},
{
closed = 1;
nodes = (
"165 440 OFFCURVE",
"177 451 OFFCURVE",
"177 468 CURVE SMOOTH",
"177 483 OFFCURVE",
"169 490 OFFCURVE",
"154 490 CURVE SMOOTH",
"137 490 OFFCURVE",
"125 479 OFFCURVE",
"125 462 CURVE SMOOTH",
"125 447 OFFCURVE",
"133 440 OFFCURVE",
"148 440 CURVE SMOOTH"
);
}
);
width = 224;
}
);
unicode = 003A;
},
{
glyphname = semicolon;
layers = (
{
layerId = "EA8306D6-B852-442A-A16D-2D86AE16EEA2";
paths = (
{
closed = 1;
nodes = (
"19 -144 LINE",
"56 -116 OFFCURVE",
"71 -79 OFFCURVE",
"82 -22 CURVE SMOOTH",
"94 46 LINE",
"62 46 LINE",
"50 -22 LINE SMOOTH",
"41 -74 OFFCURVE",
"28 -100 OFFCURVE",
"0 -135 CURVE"
);
},
{
closed = 1;
nodes = (
"165 440 OFFCURVE",
"177 451 OFFCURVE",
"177 468 CURVE SMOOTH",
"177 483 OFFCURVE",
"169 490 OFFCURVE",
"154 490 CURVE SMOOTH",
"137 490 OFFCURVE",
"125 479 OFFCURVE",
"125 462 CURVE SMOOTH",
"125 447 OFFCURVE",
"133 440 OFFCURVE",
"148 440 CURVE SMOOTH"
);
}
);
width = 224;
}
);
unicode = 003B;
},
{
glyphname = less;
layers = (
{
layerId = "EA8306D6-B852-442A-A16D-2D86AE16EEA2";
paths = (
{
closed = 1;
nodes = (
"470 152 LINE",
"475 182 LINE",
"144 332 LINE",
"528 482 LINE",
"534 516 LINE",
"115 348 LINE",
"110 320 LINE"
);
}
);
width = 582;
}
);
unicode = 003C;
},
{
glyphname = equal;
layers = (
{
layerId = "EA8306D6-B852-442A-A16D-2D86AE16EEA2";
paths = (
{
closed = 1;
nodes = (
"481 212 LINE",
"486 240 LINE",
"96 240 LINE",
"91 212 LINE"
);
},
{
closed = 1;
nodes = (
"519 428 LINE",
"524 456 LINE",
"134 456 LINE",
"129 428 LINE"
);
}
);
width = 582;
}
);
unicode = 003D;
},
{
glyphname = greater;
layers = (
{
layerId = "EA8306D6-B852-442A-A16D-2D86AE16EEA2";
paths = (
{
closed = 1;
nodes = (
"500 320 LINE",
"505 348 LINE",
"145 516 LINE",
"140 486 LINE",
"471 336 LINE",
"87 186 LINE",
"81 152 LINE"
);
}
);
width = 582;
}
);
unicode = 003E;
},
{
glyphname = question;
layers = (
{
layerId = "EA8306D6-B852-442A-A16D-2D86AE16EEA2";
paths = (
{
closed = 1;
nodes = (
"206 -4 OFFCURVE",
"218 7 OFFCURVE",
"218 24 CURVE SMOOTH",
"218 39 OFFCURVE",
"210 46 OFFCURVE",
"195 46 CURVE SMOOTH",
"178 46 OFFCURVE",
"166 35 OFFCURVE",
"166 18 CURVE SMOOTH",
"166 3 OFFCURVE",
"174 -4 OFFCURVE",
"189 -4 CURVE SMOOTH"
);
},
{
closed = 1;
nodes = (
"233 176 LINE",
"238 204 LINE SMOOTH",
"262 345 OFFCURVE",
"468 377 OFFCURVE",
"468 516 CURVE SMOOTH",
"468 608 OFFCURVE",
"389 678 OFFCURVE",
"289 678 CURVE SMOOTH",
"221 678 OFFCURVE",
"160 654 OFFCURVE",
"101 587 CURVE",
"114 562 LINE",
"174 626 OFFCURVE",
"229 650 OFFCURVE",
"289 650 CURVE SMOOTH",
"374 650 OFFCURVE",
"434 591 OFFCURVE",
"434 516 CURVE SMOOTH",
"434 400 OFFCURVE",
"240 355 OFFCURVE",
"212 204 CURVE SMOOTH",
"207 176 LINE"
);
}
);
width = 472;
}
);
unicode = 003F;
},
{
glyphname = at;
layers = (
{
layerId = "EA8306D6-B852-442A-A16D-2D86AE16EEA2";
paths = (
{
closed = 1;
nodes = (
"505 94 OFFCURVE",
"558 127 OFFCURVE",
"590 194 CURVE",
"594 126 OFFCURVE",
"630 94 OFFCURVE",
"681 94 CURVE SMOOTH",
"814 94 OFFCURVE",
"877 244 OFFCURVE",
"877 378 CURVE SMOOTH",
"877 554 OFFCURVE",
"726 678 OFFCURVE",
"526 678 CURVE SMOOTH",
"249 678 OFFCURVE",
"71 497 OFFCURVE",
"71 228 CURVE SMOOTH",
"71 28 OFFCURVE",
"220 -110 OFFCURVE",
"416 -110 CURVE SMOOTH",
"487 -110 OFFCURVE",
"561 -90 OFFCURVE",
"617 -53 CURVE",
"610 -28 LINE",
"550 -64 OFFCURVE",
"488 -82 OFFCURVE",
"416 -82 CURVE SMOOTH",
"235 -82 OFFCURVE",
"103 44 OFFCURVE",
"103 228 CURVE SMOOTH",
"103 490 OFFCURVE",
"273 650 OFFCURVE",
"526 650 CURVE SMOOTH",
"721 650 OFFCURVE",
"845 535 OFFCURVE",
"845 378 CURVE SMOOTH",
"845 257 OFFCURVE",
"792 122 OFFCURVE",
"686 122 CURVE SMOOTH",
"639 122 OFFCURVE",
"613 156 OFFCURVE",
"613 205 CURVE SMOOTH",
"613 213 OFFCURVE",
"614 223 OFFCURVE",
"615 231 CURVE SMOOTH",
"657 466 LINE",
"627 466 LINE",
"612 377 LINE",
"595 441 OFFCURVE",
"548 474 OFFCURVE",
"484 474 CURVE SMOOTH",
"351 474 OFFCURVE",
"286 376 OFFCURVE",
"286 249 CURVE SMOOTH",
"286 154 OFFCURVE",
"340 94 OFFCURVE",
"432 94 CURVE SMOOTH"
);
},
{
closed = 1;
nodes = (
"361 122 OFFCURVE",
"318 167 OFFCURVE",
"318 251 CURVE SMOOTH",
"318 367 OFFCURVE",
"377 446 OFFCURVE",
"484 446 CURVE SMOOTH",
"556 446 OFFCURVE",
"598 401 OFFCURVE",
"598 317 CURVE SMOOTH",
"598 201 OFFCURVE",
"539 122 OFFCURVE",
"432 122 CURVE SMOOTH"
);
}
);
width = 920;
}
);
unicode = 0040;
},
{
glyphname = A;
layers = (
{
layerId = "EA8306D6-B852-442A-A16D-2D86AE16EEA2";
paths = (
{
closed = 1;
nodes = (
"608 0 LINE",
"437 668 LINE",
"405 668 LINE",
"0 0 LINE",
"36 0 LINE",
"139 171 LINE",
"533 171 LINE",
"576 0 LINE"
);
},
{
closed = 1;
nodes = (
"525 201 LINE",
"157 201 LINE",
"417 631 LINE"
);
}
);
width = 692;
}
);
leftKerningGroup = _A1;
rightKerningGroup = _A;
unicode = 0041;
},
{
glyphname = B;
layers = (
{
layerId = "EA8306D6-B852-442A-A16D-2D86AE16EEA2";
paths = (
{
closed = 1;
nodes = (
"620 282 OFFCURVE",
"569 320 OFFCURVE",
"498 341 CURVE",
"586 357 OFFCURVE",
"657 397 OFFCURVE",
"657 529 CURVE SMOOTH",
"657 633 OFFCURVE",
"574 668 OFFCURVE",
"449 668 CURVE SMOOTH",
"171 668 LINE",
"54 0 LINE",
"351 0 LINE SMOOTH",
"515 0 OFFCURVE",
"620 48 OFFCURVE",
"620 203 CURVE SMOOTH"
);
},
{
closed = 1;
nodes = (
"586 78 OFFCURVE",
"517 30 OFFCURVE",
"342 30 CURVE SMOOTH",
"91 30 LINE",
"144 330 LINE",
"380 330 LINE SMOOTH",
"527 330 OFFCURVE",
"586 287 OFFCURVE",
"586 203 CURVE SMOOTH"
);
},
{
closed = 1;
nodes = (
"622 399 OFFCURVE",
"557 358 OFFCURVE",
"404 358 CURVE SMOOTH",
"149 358 LINE",
"198 638 LINE",
"439 638 LINE SMOOTH",
"567 638 OFFCURVE",
"622 609 OFFCURVE",
"622 529 CURVE SMOOTH"
);
}
);
width = 694;
}
);
unicode = 0042;
},
{
glyphname = C;
layers = (
{
layerId = "EA8306D6-B852-442A-A16D-2D86AE16EEA2";
paths = (
{
closed = 1;
nodes = (
"444 -10 OFFCURVE",
"519 15 OFFCURVE",
"582 65 CURVE",
"566 92 LINE",
"507 44 OFFCURVE",
"440 20 OFFCURVE",
"355 20 CURVE SMOOTH",
"210 20 OFFCURVE",
"111 116 OFFCURVE",
"111 272 CURVE SMOOTH",
"111 508 OFFCURVE",
"257 648 OFFCURVE",
"457 648 CURVE SMOOTH",
"542 648 OFFCURVE",
"604 617 OFFCURVE",
"651 576 CURVE",
"673 599 LINE",
"616 648 OFFCURVE",
"541 678 OFFCURVE",
"457 678 CURVE SMOOTH",
"237 678 OFFCURVE",
"77 522 OFFCURVE",
"77 272 CURVE SMOOTH",
"77 100 OFFCURVE",
"195 -10 OFFCURVE",
"355 -10 CURVE SMOOTH"
);
}
);
width = 672;
}
);
leftKerningGroup = _C1;
rightKerningGroup = _C;
unicode = 0043;
},
{
glyphname = D;
layers = (
{
layerId = "EA8306D6-B852-442A-A16D-2D86AE16EEA2";
paths = (
{
closed = 1;
nodes = (
"665 579 OFFCURVE",
"563 668 OFFCURVE",
"375 668 CURVE SMOOTH",
"171 668 LINE",
"54 0 LINE",
"277 0 LINE SMOOTH",
"525 0 OFFCURVE",
"665 139 OFFCURVE",
"665 396 CURVE SMOOTH"
);
},
{
closed = 1;
nodes = (
"631 152 OFFCURVE",
"507 30 OFFCURVE",
"268 30 CURVE SMOOTH",
"91 30 LINE",
"198 638 LINE",
"365 638 LINE SMOOTH",
"540 638 OFFCURVE",
"631 571 OFFCURVE",
"631 396 CURVE SMOOTH"
);
}
);
width = 710;
}
);
rightKerningGroup = _D;
unicode = 0044;
},
{
glyphname = E;
layers = (
{
layerId = "EA8306D6-B852-442A-A16D-2D86AE16EEA2";
paths = (
{
closed = 1;
nodes = (
"482 0 LINE",
"487 30 LINE",
"91 30 LINE",
"144 329 LINE",
"510 329 LINE",
"515 359 LINE",
"149 359 LINE",
"198 638 LINE",
"594 638 LINE",
"599 668 LINE",
"171 668 LINE",
"54 0 LINE"
);
}
);
width = 586;
}
);
unicode = 0045;
},
{
glyphname = F;
layers = (
{
layerId = "EA8306D6-B852-442A-A16D-2D86AE16EEA2";
paths = (
{
closed = 1;
nodes = (
"86 0 LINE",
"144 329 LINE",
"510 329 LINE",
"515 359 LINE",
"149 359 LINE",
"198 638 LINE",
"594 638 LINE",
"599 668 LINE",
"171 668 LINE",
"54 0 LINE"
);
}
);
width = 576;
}
);
unicode = 0046;
},
{
glyphname = G;
layers = (
{
layerId = "EA8306D6-B852-442A-A16D-2D86AE16EEA2";
paths = (
{
closed = 1;
nodes = (
"463 -10 OFFCURVE",
"557 26 OFFCURVE",
"629 102 CURVE",
"671 340 LINE",
"397 340 LINE",
"392 310 LINE",
"634 310 LINE",
"601 119 LINE",
"544 58 OFFCURVE",
"460 20 OFFCURVE",
"355 20 CURVE SMOOTH",
"210 20 OFFCURVE",
"111 116 OFFCURVE",
"111 272 CURVE SMOOTH",
"111 508 OFFCURVE",
"257 648 OFFCURVE",
"457 648 CURVE SMOOTH",
"553 648 OFFCURVE",
"625 616 OFFCURVE",
"670 572 CURVE",
"693 595 LINE",
"642 646 OFFCURVE",
"561 678 OFFCURVE",
"457 678 CURVE SMOOTH",
"237 678 OFFCURVE",
"77 522 OFFCURVE",
"77 272 CURVE SMOOTH",
"77 100 OFFCURVE",
"195 -10 OFFCURVE",
"355 -10 CURVE SMOOTH"
);
}
);
width = 730;
}
);
leftKerningGroup = _C1;
rightKerningGroup = _G;
unicode = 0047;
},
{
glyphname = H;
layers = (
{
layerId = "EA8306D6-B852-442A-A16D-2D86AE16EEA2";
paths = (
{
closed = 1;
nodes = (
"582 0 LINE",
"699 668 LINE",
"667 668 LINE",
"613 359 LINE",
"149 359 LINE",
"203 668 LINE",
"171 668 LINE",
"54 0 LINE",
"86 0 LINE",
"144 329 LINE",
"608 329 LINE",
"550 0 LINE"
);
}
);
width = 720;
}
);
unicode = 0048;
},
{
glyphname = I;
layers = (
{
layerId = "EA8306D6-B852-442A-A16D-2D86AE16EEA2";
paths = (
{
closed = 1;
nodes = (
"86 0 LINE",
"203 668 LINE",
"171 668 LINE",
"54 0 LINE"
);
}
);
width = 224;
}
);
unicode = 0049;
},
{
glyphname = J;
layers = (
{
layerId = "EA8306D6-B852-442A-A16D-2D86AE16EEA2";
paths = (
{
closed = 1;
nodes = (
"312 -10 OFFCURVE",
"395 50 OFFCURVE",
"422 197 CURVE",
"505 668 LINE",
"473 668 LINE",
"390 197 LINE",
"367 72 OFFCURVE",
"297 20 OFFCURVE",
"193 20 CURVE SMOOTH",
"140 20 OFFCURVE",
"91 41 OFFCURVE",
"50 92 CURVE",
"27 69 LINE",
"70 16 OFFCURVE",
"121 -10 OFFCURVE",
"193 -10 CURVE SMOOTH"
);
}
);
width = 526;
}
);
leftKerningGroup = _J1;
rightKerningGroup = _J;
unicode = 004A;
},
{
glyphname = K;
layers = (
{
layerId = "EA8306D6-B852-442A-A16D-2D86AE16EEA2";
paths = (
{
closed = 1;
nodes = (
"524 0 LINE",
"292 373 LINE",
"631 668 LINE",
"588 668 LINE",
"133 272 LINE",
"203 668 LINE",
"171 668 LINE",
"54 0 LINE",
"86 0 LINE",
"126 228 LINE",
"268 352 LINE",
"487 0 LINE"
);
}
);
width = 608;
}
);
rightKerningGroup = _K;
unicode = 004B;
},
{
glyphname = L;
layers = (
{
layerId = "EA8306D6-B852-442A-A16D-2D86AE16EEA2";
paths = (
{
closed = 1;
nodes = (
"432 0 LINE",
"437 30 LINE",
"91 30 LINE",
"203 668 LINE",
"171 668 LINE",
"54 0 LINE"
);
}
);
width = 526;
}
);
rightKerningGroup = _L;
unicode = 004C;
},
{
glyphname = M;
layers = (
{
layerId = "EA8306D6-B852-442A-A16D-2D86AE16EEA2";
paths = (
{
closed = 1;
nodes = (
"758 0 LINE",
"875 668 LINE",
"825 668 LINE",
"411 39 LINE",
"219 668 LINE",
"171 668 LINE",
"54 0 LINE",
"86 0 LINE",
"197 632 LINE",
"390 0 LINE",
"422 0 LINE",
"837 632 LINE",
"726 0 LINE"
);
}
);
width = 896;
}
);
unicode = 004D;
},
{
glyphname = N;
layers = (
{
layerId = "EA8306D6-B852-442A-A16D-2D86AE16EEA2";
paths = (
{
closed = 1;
nodes = (
"582 0 LINE",
"699 668 LINE",
"667 668 LINE",
"556 36 LINE",
"211 668 LINE",
"171 668 LINE",
"54 0 LINE",
"86 0 LINE",
"197 632 LINE",
"542 0 LINE"
);
}
);
width = 720;
}
);
unicode = 004E;
},
{
glyphname = O;
layers = (
{
layerId = "EA8306D6-B852-442A-A16D-2D86AE16EEA2";
paths = (
{
closed = 1;
nodes = (
"575 -10 OFFCURVE",
"735 146 OFFCURVE",
"735 396 CURVE SMOOTH",
"735 568 OFFCURVE",
"617 678 OFFCURVE",
"457 678 CURVE SMOOTH",
"237 678 OFFCURVE",
"77 522 OFFCURVE",
"77 272 CURVE SMOOTH",
"77 100 OFFCURVE",
"195 -10 OFFCURVE",
"355 -10 CURVE SMOOTH"
);
},
{
closed = 1;
nodes = (
"210 20 OFFCURVE",
"111 116 OFFCURVE",
"111 272 CURVE SMOOTH",
"111 508 OFFCURVE",
"257 648 OFFCURVE",
"457 648 CURVE SMOOTH",
"602 648 OFFCURVE",
"701 552 OFFCURVE",
"701 396 CURVE SMOOTH",
"701 160 OFFCURVE",
"555 20 OFFCURVE",
"355 20 CURVE SMOOTH"
);
}
);
width = 780;
}
);
leftKerningGroup = _C1;
rightKerningGroup = _D;
unicode = 004F;
},
{
glyphname = P;
layers = (
{
layerId = "EA8306D6-B852-442A-A16D-2D86AE16EEA2";
paths = (
{
closed = 1;
nodes = (
"611 617 OFFCURVE",
"532 668 OFFCURVE",
"397 668 CURVE SMOOTH",
"171 668 LINE",
"54 0 LINE",
"86 0 LINE",
"134 274 LINE",
"347 274 LINE SMOOTH",
"503 274 OFFCURVE",
"611 337 OFFCURVE",
"611 505 CURVE SMOOTH"
);
},
{
closed = 1;
nodes = (
"577 349 OFFCURVE",
"479 304 OFFCURVE",
"337 304 CURVE SMOOTH",
"139 304 LINE",
"198 638 LINE",
"387 638 LINE SMOOTH",
"515 638 OFFCURVE",
"577 598 OFFCURVE",
"577 505 CURVE SMOOTH"
);
}
);
width = 632;
}
);
unicode = 0050;
},
{
glyphname = Q;
layers = (
{
layerId = "EA8306D6-B852-442A-A16D-2D86AE16EEA2";
paths = (
{
closed = 1;
nodes = (
"575 -192 OFFCURVE",
"628 -176 OFFCURVE",
"688 -133 CURVE",
"675 -108 LINE",
"616 -148 OFFCURVE",
"571 -164 OFFCURVE",
"520 -164 CURVE SMOOTH",
"432 -164 OFFCURVE",
"381 -131 OFFCURVE",
"381 -54 CURVE SMOOTH",
"381 -42 OFFCURVE",
"382 -24 OFFCURVE",
"385 -9 CURVE",
"589 4 OFFCURVE",
"735 156 OFFCURVE",
"735 396 CURVE SMOOTH",
"735 568 OFFCURVE",
"617 678 OFFCURVE",
"457 678 CURVE SMOOTH",
"237 678 OFFCURVE",
"77 522 OFFCURVE",
"77 272 CURVE SMOOTH",
"77 100 OFFCURVE",
"195 -10 OFFCURVE",
"355 -10 CURVE",
"352 -25 OFFCURVE",
"351 -42 OFFCURVE",
"351 -54 CURVE SMOOTH",
"351 -138 OFFCURVE",
"400 -192 OFFCURVE",
"515 -192 CURVE SMOOTH"
);
},
{
closed = 1;
nodes = (
"210 20 OFFCURVE",
"111 116 OFFCURVE",
"111 272 CURVE SMOOTH",
"111 508 OFFCURVE",
"257 648 OFFCURVE",
"457 648 CURVE SMOOTH",
"602 648 OFFCURVE",
"701 552 OFFCURVE",
"701 396 CURVE SMOOTH",
"701 160 OFFCURVE",
"555 20 OFFCURVE",
"355 20 CURVE SMOOTH"
);
}
);
width = 780;
}
);
leftKerningGroup = _C1;
rightKerningGroup = _D;
unicode = 0051;
},
{
glyphname = R;
layers = (
{
layerId = "EA8306D6-B852-442A-A16D-2D86AE16EEA2";
paths = (
{
closed = 1;
nodes = (
"613 628 OFFCURVE",
"530 668 OFFCURVE",
"397 668 CURVE SMOOTH",
"171 668 LINE",
"54 0 LINE",
"86 0 LINE",
"138 296 LINE",
"349 296 LINE",
"521 0 LINE",
"558 0 LINE",
"386 297 LINE",
"522 305 OFFCURVE",
"613 359 OFFCURVE",
"613 516 CURVE SMOOTH"
);
},
{
closed = 1;
nodes = (
"579 359 OFFCURVE",
"483 326 OFFCURVE",
"341 326 CURVE SMOOTH",
"143 326 LINE",
"198 638 LINE",
"387 638 LINE SMOOTH",
"515 638 OFFCURVE",
"579 609 OFFCURVE",
"579 516 CURVE SMOOTH"
);
}
);
width = 632;
}
);
rightKerningGroup = _R;
unicode = 0052;
},
{
glyphname = S;
layers = (
{
layerId = "EA8306D6-B852-442A-A16D-2D86AE16EEA2";
paths = (
{
closed = 1;
nodes = (
"414 -10 OFFCURVE",
"517 74 OFFCURVE",
"517 199 CURVE SMOOTH",
"517 271 OFFCURVE",
"479 325 OFFCURVE",
"390 344 CURVE",
"260 370 LINE SMOOTH",
"195 383 OFFCURVE",
"162 419 OFFCURVE",
"162 478 CURVE SMOOTH",
"162 581 OFFCURVE",
"243 648 OFFCURVE",
"363 648 CURVE SMOOTH",
"439 648 OFFCURVE",
"502 618 OFFCURVE",
"545 573 CURVE",
"569 595 LINE",
"520 651 OFFCURVE",
"444 678 OFFCURVE",
"363 678 CURVE SMOOTH",
"220 678 OFFCURVE",
"128 590 OFFCURVE",
"128 478 CURVE SMOOTH",
"128 407 OFFCURVE",
"169 357 OFFCURVE",
"257 340 CURVE SMOOTH",
"388 314 LINE SMOOTH",
"452 301 OFFCURVE",
"483 260 OFFCURVE",
"483 199 CURVE SMOOTH",
"483 83 OFFCURVE",
"391 20 OFFCURVE",
"261 20 CURVE SMOOTH",
"184 20 OFFCURVE",
"125 48 OFFCURVE",
"62 109 CURVE",
"38 88 LINE",
"101 21 OFFCURVE",
"170 -10 OFFCURVE",
"261 -10 CURVE SMOOTH"
);
}
);
width = 592;
}
);
leftKerningGroup = _S;
rightKerningGroup = _S;
unicode = 0053;
},
{
glyphname = T;
layers = (
{
layerId = "EA8306D6-B852-442A-A16D-2D86AE16EEA2";
paths = (
{
closed = 1;
nodes = (
"265 0 LINE",
"377 638 LINE",
"600 638 LINE",
"605 668 LINE",
"127 668 LINE",
"122 638 LINE",
"345 638 LINE",
"233 0 LINE"
);
}
);
width = 582;
}
);
leftKerningGroup = _T;
rightKerningGroup = _T;
unicode = 0054;
},
{
glyphname = U;
layers = (
{
layerId = "EA8306D6-B852-442A-A16D-2D86AE16EEA2";
paths = (
{
closed = 1;
nodes = (
"489 -10 OFFCURVE",
"592 66 OFFCURVE",
"627 258 CURVE",
"699 668 LINE",
"667 668 LINE",
"595 258 LINE SMOOTH",
"563 79 OFFCURVE",
"465 20 OFFCURVE",
"325 20 CURVE SMOOTH",
"186 20 OFFCURVE",
"129 102 OFFCURVE",
"129 210 CURVE SMOOTH",
"129 231 OFFCURVE",
"131 254 OFFCURVE",
"135 278 CURVE SMOOTH",
"203 668 LINE",
"171 668 LINE",
"103 278 LINE SMOOTH",
"99 254 OFFCURVE",
"97 231 OFFCURVE",
"97 210 CURVE SMOOTH",
"97 73 OFFCURVE",
"178 -10 OFFCURVE",
"325 -10 CURVE SMOOTH"
);
}
);
width = 720;
}
);
leftKerningGroup = _U;
rightKerningGroup = _U;
unicode = 0055;
},
{
glyphname = V;
layers = (
{
layerId = "EA8306D6-B852-442A-A16D-2D86AE16EEA2";
paths = (
{
closed = 1;
nodes = (
"320 0 LINE",
"725 668 LINE",
"689 668 LINE",
"308 37 LINE",
"149 668 LINE",
"117 668 LINE",
"288 0 LINE"
);
}
);
width = 692;
}
);
unicode = 0056;
},
{
glyphname = W;
layers = (
{
layerId = "EA8306D6-B852-442A-A16D-2D86AE16EEA2";
paths = (
{
closed = 1;
nodes = (
"691 0 LINE",
"1029 668 LINE",
"994 668 LINE",
"680 37 LINE",
"588 668 LINE",
"556 668 LINE",
"242 37 LINE",
"150 668 LINE",
"117 668 LINE",
"221 0 LINE",
"253 0 LINE",
"567 631 LINE",
"659 0 LINE"
);
}
);
width = 996;
}
);
leftKerningGroup = _W;
rightKerningGroup = _W;
unicode = 0057;
},
{
glyphname = X;
layers = (
{
layerId = "EA8306D6-B852-442A-A16D-2D86AE16EEA2";
paths = (
{
closed = 1;
nodes = (
"588 0 LINE",
"375 344 LINE",
"695 668 LINE",
"652 668 LINE",
"355 367 LINE",
"164 668 LINE",
"127 668 LINE",
"334 344 LINE",
"0 0 LINE",
"43 0 LINE",
"353 320 LINE",
"551 0 LINE"
);
}
);
width = 672;
}
);
unicode = 0058;
},
{
glyphname = Y;
layers = (
{
layerId = "EA8306D6-B852-442A-A16D-2D86AE16EEA2";
paths = (
{
closed = 1;
nodes = (
"310 0 LINE",
"357 267 LINE",
"705 668 LINE",
"665 668 LINE",
"343 294 LINE",
"153 668 LINE",
"117 668 LINE",
"325 267 LINE",
"278 0 LINE"
);
}
);
width = 672;
}
);
leftKerningGroup = _Y;
rightKerningGroup = _Y;
unicode = 0059;
},
{
glyphname = Z;
layers = (
{
layerId = "EA8306D6-B852-442A-A16D-2D86AE16EEA2";
paths = (
{
closed = 1;
nodes = (
"456 0 LINE",
"461 30 LINE",
"51 30 LINE",
"558 638 LINE",
"563 668 LINE",
"135 668 LINE",
"130 638 LINE",
"520 638 LINE",
"13 30 LINE",
"8 0 LINE"
);
}
);
width = 548;
}
);
leftKerningGroup = _Z;
rightKerningGroup = _Z;
unicode = 005A;
},
{
glyphname = bracketleft;
layers = (
{
layerId = "EA8306D6-B852-442A-A16D-2D86AE16EEA2";
paths = (
{
closed = 1;
nodes = (
"215 -252 LINE",
"220 -222 LINE",
"46 -222 LINE",
"210 708 LINE",
"384 708 LINE",
"390 738 LINE",
"184 738 LINE",
"9 -252 LINE"
);
}
);
width = 374;
}
);
unicode = 005B;
},
{
glyphname = backslash;
layers = (
{
layerId = "EA8306D6-B852-442A-A16D-2D86AE16EEA2";
paths = (
{
closed = 1;
nodes = (
"232 0 LINE",
"130 668 LINE",
"99 668 LINE",
"201 0 LINE"
);
}
);
width = 298;
}
);
unicode = 005C;
},
{
glyphname = bracketright;
layers = (
{
layerId = "EA8306D6-B852-442A-A16D-2D86AE16EEA2";
paths = (
{
closed = 1;
nodes = (
"191 -252 LINE",
"366 738 LINE",
"160 738 LINE",
"154 708 LINE",
"328 708 LINE",
"164 -222 LINE",
"-10 -222 LINE",
"-15 -252 LINE"
);
}
);
width = 374;
}
);
unicode = 005D;
},
{
glyphname = asciicircum;
layers = (
{
layerId = "EA8306D6-B852-442A-A16D-2D86AE16EEA2";
paths = (
{
closed = 1;
nodes = (
"472 348 LINE",
"380 668 LINE",
"352 668 LINE",
"148 348 LINE",
"182 348 LINE",
"363 634 LINE",
"442 348 LINE"
);
}
);
width = 582;
}
);
unicode = 005E;
},
{
glyphname = underscore;
layers = (
{
layerId = "EA8306D6-B852-442A-A16D-2D86AE16EEA2";
paths = (
{
closed = 1;
nodes = (
"384 -74 LINE",
"389 -46 LINE",
"-50 -46 LINE",
"-55 -74 LINE"
);
}
);
width = 440;
}
);
unicode = 005F;
},
{
glyphname = grave;
layers = (
{
anchors = (
{
name = _top;
position = "{387, 510}";
}
);
layerId = "EA8306D6-B852-442A-A16D-2D86AE16EEA2";
paths = (
{
closed = 1;
nodes = (
"405 554 LINE",
"349 696 LINE",
"315 696 LINE",
"383 554 LINE"
);
}
);
width = 600;
}
);
unicode = 0060;
},
{
glyphname = a;
layers = (
{
layerId = "EA8306D6-B852-442A-A16D-2D86AE16EEA2";
paths = (
{
closed = 1;
nodes = (
"304 -10 OFFCURVE",
"372 27 OFFCURVE",
"407 86 CURVE",
"392 0 LINE",
"422 0 LINE",
"472 286 LINE",
"475 298 OFFCURVE",
"476 316 OFFCURVE",
"476 329 CURVE SMOOTH",
"476 428 OFFCURVE",
"409 480 OFFCURVE",
"297 480 CURVE SMOOTH",
"237 480 OFFCURVE",
"178 455 OFFCURVE",
"129 412 CURVE",
"144 387 LINE",
"197 430 OFFCURVE",
"248 452 OFFCURVE",
"297 452 CURVE SMOOTH",
"401 452 OFFCURVE",
"446 410 OFFCURVE",
"446 331 CURVE SMOOTH",
"446 316 OFFCURVE",
"445 301 OFFCURVE",
"442 288 CURVE",
"250 264 LINE SMOOTH",
"103 245 OFFCURVE",
"46 203 OFFCURVE",
"46 120 CURVE SMOOTH",
"46 37 OFFCURVE",
"114 -10 OFFCURVE",
"211 -10 CURVE SMOOTH"
);
},
{
closed = 1;
nodes = (
"131 18 OFFCURVE",
"76 53 OFFCURVE",
"76 120 CURVE SMOOTH",
"76 187 OFFCURVE",
"119 220 OFFCURVE",
"245 236 CURVE SMOOTH",
"437 260 LINE",
"425 192 LINE",
"406 93 OFFCURVE",
"337 18 OFFCURVE",
"211 18 CURVE SMOOTH"
);
}
);
width = 560;
}
);
leftKerningGroup = _a1;
rightKerningGroup = _a;
unicode = 0061;
},
{
glyphname = b;
layers = (
{
layerId = "EA8306D6-B852-442A-A16D-2D86AE16EEA2";
paths = (
{
closed = 1;
nodes = (
"440 -10 OFFCURVE",
"548 103 OFFCURVE",
"548 282 CURVE SMOOTH",
"548 391 OFFCURVE",
"481 480 OFFCURVE",
"354 480 CURVE SMOOTH",
"270 480 OFFCURVE",
"190 445 OFFCURVE",
"150 373 CURVE",
"201 668 LINE",
"171 668 LINE",
"54 0 LINE",
"84 0 LINE",
"106 125 LINE",
"126 36 OFFCURVE",
"193 -10 OFFCURVE",
"284 -10 CURVE SMOOTH"
);
},
{
closed = 1;
nodes = (
"179 18 OFFCURVE",
"122 90 OFFCURVE",
"122 188 CURVE SMOOTH",
"122 349 OFFCURVE",
"213 452 OFFCURVE",
"354 452 CURVE SMOOTH",
"459 452 OFFCURVE",
"516 380 OFFCURVE",
"516 282 CURVE SMOOTH",
"516 121 OFFCURVE",
"425 18 OFFCURVE",
"284 18 CURVE SMOOTH"
);
}
);
width = 610;
}
);
rightKerningGroup = _b;
unicode = 0062;
},
{
glyphname = c;
layers = (
{
layerId = "EA8306D6-B852-442A-A16D-2D86AE16EEA2";
paths = (
{
closed = 1;
nodes = (
"321 -10 OFFCURVE",
"376 12 OFFCURVE",
"423 52 CURVE",
"410 74 LINE",
"362 35 OFFCURVE",
"316 18 OFFCURVE",
"260 18 CURVE SMOOTH",
"155 18 OFFCURVE",
"94 90 OFFCURVE",
"94 188 CURVE SMOOTH",
"94 349 OFFCURVE",
"189 452 OFFCURVE",
"330 452 CURVE SMOOTH",
"386 452 OFFCURVE",
"431 435 OFFCURVE",
"466 396 CURVE",
"487 418 LINE",
"454 457 OFFCURVE",
"403 480 OFFCURVE",
"330 480 CURVE SMOOTH",
"174 480 OFFCURVE",
"62 367 OFFCURVE",
"62 188 CURVE SMOOTH",
"62 79 OFFCURVE",
"133 -10 OFFCURVE",
"260 -10 CURVE SMOOTH"
);
}
);
width = 516;
}
);
leftKerningGroup = _c1;
unicode = 0063;
},
{
glyphname = d;
layers = (
{
layerId = "EA8306D6-B852-442A-A16D-2D86AE16EEA2";
paths = (
{
closed = 1;
nodes = (
"340 -10 OFFCURVE",
"418 25 OFFCURVE",
"458 94 CURVE",
"442 0 LINE",
"472 0 LINE",
"589 668 LINE",
"559 668 LINE",
"503 347 LINE",
"483 435 OFFCURVE",
"415 480 OFFCURVE",
"326 480 CURVE SMOOTH",
"170 480 OFFCURVE",
"62 367 OFFCURVE",
"62 188 CURVE SMOOTH",
"62 79 OFFCURVE",
"129 -10 OFFCURVE",
"256 -10 CURVE SMOOTH"
);
},
{
closed = 1;
nodes = (
"151 18 OFFCURVE",
"94 90 OFFCURVE",
"94 188 CURVE SMOOTH",
"94 349 OFFCURVE",
"185 452 OFFCURVE",
"326 452 CURVE SMOOTH",
"431 452 OFFCURVE",
"488 380 OFFCURVE",
"488 282 CURVE SMOOTH",
"488 121 OFFCURVE",
"397 18 OFFCURVE",
"256 18 CURVE SMOOTH"
);
}
);
width = 610;
}
);
leftKerningGroup = _c1;
unicode = 0064;
},
{
glyphname = e;
layers = (
{
layerId = "EA8306D6-B852-442A-A16D-2D86AE16EEA2";
paths = (
{
closed = 1;
nodes = (
"339 -10 OFFCURVE",
"396 13 OFFCURVE",
"443 57 CURVE",
"428 82 LINE",
"381 38 OFFCURVE",
"324 18 OFFCURVE",
"260 18 CURVE SMOOTH",
"155 18 OFFCURVE",
"94 90 OFFCURVE",
"94 188 CURVE SMOOTH",
"94 203 OFFCURVE",
"93 215 OFFCURVE",
"96 230 CURVE",
"481 230 LINE",
"492 249 OFFCURVE",
"498 278 OFFCURVE",
"498 294 CURVE SMOOTH",
"498 407 OFFCURVE",
"429 480 OFFCURVE",
"320 480 CURVE SMOOTH",
"180 480 OFFCURVE",
"62 370 OFFCURVE",
"62 188 CURVE SMOOTH",
"62 79 OFFCURVE",
"133 -10 OFFCURVE",
"260 -10 CURVE SMOOTH"
);
},
{
closed = 1;
nodes = (
"412 452 OFFCURVE",
"466 397 OFFCURVE",
"466 294 CURVE SMOOTH",
"466 281 OFFCURVE",
"464 269 OFFCURVE",
"461 258 CURVE",
"100 258 LINE",
"124 381 OFFCURVE",
"216 452 OFFCURVE",
"320 452 CURVE SMOOTH"
);
}
);
width = 560;
}
);
leftKerningGroup = _c1;
rightKerningGroup = _b;
unicode = 0065;
},
{
glyphname = f;
layers = (
{
layerId = "EA8306D6-B852-442A-A16D-2D86AE16EEA2";
paths = (
{
closed = 1;
nodes = (
"131 0 LINE",
"209 442 LINE",
"341 442 LINE",
"346 470 LINE",
"214 470 LINE",
"228 552 LINE SMOOTH",
"239 617 OFFCURVE",
"271 646 OFFCURVE",
"331 646 CURVE SMOOTH",
"347 646 OFFCURVE",
"366 645 OFFCURVE",
"377 642 CURVE",
"381 668 LINE",
"372 672 OFFCURVE",
"347 674 OFFCURVE",
"331 674 CURVE SMOOTH",
"255 674 OFFCURVE",
"213 636 OFFCURVE",
"198 552 CURVE SMOOTH",
"184 470 LINE",
"70 470 LINE",
"65 442 LINE",
"179 442 LINE",
"101 0 LINE"
);
}
);
width = 336;
}
);
unicode = 0066;
},
{
glyphname = g;
layers = (
{
layerId = "EA8306D6-B852-442A-A16D-2D86AE16EEA2";
paths = (
{
closed = 1;
nodes = (
"345 20 OFFCURVE",
"423 55 OFFCURVE",
"463 124 CURVE",
"447 34 LINE SMOOTH",
"423 -107 OFFCURVE",
"325 -164 OFFCURVE",
"218 -164 CURVE SMOOTH",
"155 -164 OFFCURVE",
"106 -142 OFFCURVE",
"54 -90 CURVE",
"33 -109 LINE",
"85 -164 OFFCURVE",
"146 -192 OFFCURVE",
"218 -192 CURVE SMOOTH",
"354 -192 OFFCURVE",
"450 -120 OFFCURVE",
"478 40 CURVE SMOOTH",
"554 470 LINE",
"524 470 LINE",
"503 347 LINE",
"483 435 OFFCURVE",
"415 480 OFFCURVE",
"326 480 CURVE SMOOTH",
"155 480 OFFCURVE",
"66 351 OFFCURVE",
"66 203 CURVE SMOOTH",
"66 92 OFFCURVE",
"148 20 OFFCURVE",
"261 20 CURVE SMOOTH"
);
},
{
closed = 1;
nodes = (
"161 48 OFFCURVE",
"98 117 OFFCURVE",
"98 203 CURVE SMOOTH",
"98 327 OFFCURVE",
"166 452 OFFCURVE",
"326 452 CURVE SMOOTH",
"425 452 OFFCURVE",
"488 383 OFFCURVE",
"488 297 CURVE SMOOTH",
"488 173 OFFCURVE",
"420 48 OFFCURVE",
"261 48 CURVE SMOOTH"
);
}
);
width = 610;
}
);
leftKerningGroup = _c1;
unicode = 0067;
},
{
glyphname = h;
layers = (
{
layerId = "EA8306D6-B852-442A-A16D-2D86AE16EEA2";
paths = (
{
closed = 1;
nodes = (
"432 0 LINE",
"482 286 LINE SMOOTH",
"485 305 OFFCURVE",
"487 324 OFFCURVE",
"487 341 CURVE SMOOTH",
"487 437 OFFCURVE",
"437 480 OFFCURVE",
"332 480 CURVE SMOOTH",
"252 480 OFFCURVE",
"198 454 OFFCURVE",
"151 385 CURVE",
"201 668 LINE",
"171 668 LINE",
"54 0 LINE",
"84 0 LINE",
"128 255 LINE SMOOTH",
"151 384 OFFCURVE",
"224 452 OFFCURVE",
"332 452 CURVE SMOOTH",
"416 452 OFFCURVE",
"457 420 OFFCURVE",
"457 341 CURVE SMOOTH",
"457 325 OFFCURVE",
"455 305 OFFCURVE",
"452 286 CURVE SMOOTH",
"402 0 LINE"
);
}
);
width = 570;
}
);
rightKerningGroup = _h;
unicode = 0068;
},
{
glyphname = i;
layers = (
{
layerId = "EA8306D6-B852-442A-A16D-2D86AE16EEA2";
paths = (
{
closed = 1;
nodes = (
"84 0 LINE",
"166 470 LINE",
"136 470 LINE",
"54 0 LINE"
);
},
{
closed = 1;
nodes = (
"192 602 OFFCURVE",
"204 612 OFFCURVE",
"204 628 CURVE SMOOTH",
"204 641 OFFCURVE",
"196 648 OFFCURVE",
"181 648 CURVE SMOOTH",
"164 648 OFFCURVE",
"152 638 OFFCURVE",
"152 622 CURVE SMOOTH",
"152 609 OFFCURVE",
"160 602 OFFCURVE",
"175 602 CURVE SMOOTH"
);
}
);
width = 222;
}
);
unicode = 0069;
},
{
glyphname = j;
layers = (
{
layerId = "EA8306D6-B852-442A-A16D-2D86AE16EEA2";
paths = (
{
closed = 1;
nodes = (
"15 -188 OFFCURVE",
"57 -153 OFFCURVE",
"72 -66 CURVE SMOOTH",
"166 470 LINE",
"136 470 LINE",
"42 -66 LINE SMOOTH",
"31 -131 OFFCURVE",
"-1 -160 OFFCURVE",
"-61 -160 CURVE SMOOTH",
"-77 -160 OFFCURVE",
"-96 -159 OFFCURVE",
"-107 -156 CURVE",
"-111 -182 LINE",
"-102 -186 OFFCURVE",
"-77 -188 OFFCURVE",
"-61 -188 CURVE SMOOTH"
);
},
{
closed = 1;
nodes = (
"192 602 OFFCURVE",
"204 612 OFFCURVE",
"204 628 CURVE SMOOTH",
"204 641 OFFCURVE",
"196 648 OFFCURVE",
"181 648 CURVE SMOOTH",
"164 648 OFFCURVE",
"152 638 OFFCURVE",
"152 622 CURVE SMOOTH",
"152 609 OFFCURVE",
"160 602 OFFCURVE",
"175 602 CURVE SMOOTH"
);
}
);
width = 222;
}
);
unicode = 006A;
},
{
glyphname = k;
layers = (
{
layerId = "EA8306D6-B852-442A-A16D-2D86AE16EEA2";
paths = (
{
closed = 1;
nodes = (
"434 0 LINE",
"257 277 LINE",
"506 470 LINE",
"465 470 LINE",
"119 201 LINE",
"201 668 LINE",
"171 668 LINE",
"54 0 LINE",
"84 0 LINE",
"113 165 LINE",
"234 259 LINE",
"399 0 LINE"
);
}
);
width = 518;
}
);
rightKerningGroup = _k;
unicode = 006B;
},
{
glyphname = l;
layers = (
{
layerId = "EA8306D6-B852-442A-A16D-2D86AE16EEA2";
paths = (
{
closed = 1;
nodes = (
"84 0 LINE",
"201 668 LINE",
"171 668 LINE",
"54 0 LINE"
);
}
);
width = 222;
}
);
unicode = 006C;
},
{
glyphname = m;
layers = (
{
layerId = "EA8306D6-B852-442A-A16D-2D86AE16EEA2";
paths = (
{
closed = 1;
nodes = (
"710 0 LINE",
"760 286 LINE SMOOTH",
"763 305 OFFCURVE",
"766 328 OFFCURVE",
"766 341 CURVE SMOOTH",
"766 433 OFFCURVE",
"715 480 OFFCURVE",
"628 480 CURVE SMOOTH",
"559 480 OFFCURVE",
"492 454 OFFCURVE",
"453 378 CURVE",
"437 439 OFFCURVE",
"395 480 OFFCURVE",
"315 480 CURVE SMOOTH",
"244 480 OFFCURVE",
"188 451 OFFCURVE",
"153 395 CURVE",
"166 470 LINE",
"136 470 LINE",
"54 0 LINE",
"84 0 LINE",
"128 255 LINE SMOOTH",
"151 384 OFFCURVE",
"210 452 OFFCURVE",
"315 452 CURVE SMOOTH",
"390 452 OFFCURVE",
"423 410 OFFCURVE",
"423 341 CURVE SMOOTH",
"423 328 OFFCURVE",
"420 305 OFFCURVE",
"417 286 CURVE SMOOTH",
"367 0 LINE",
"397 0 LINE",
"441 255 LINE SMOOTH",
"464 384 OFFCURVE",
"523 452 OFFCURVE",
"628 452 CURVE SMOOTH",
"703 452 OFFCURVE",
"736 410 OFFCURVE",
"736 341 CURVE SMOOTH",
"736 328 OFFCURVE",
"733 305 OFFCURVE",
"730 286 CURVE SMOOTH",
"680 0 LINE"
);
}
);
width = 848;
}
);
leftKerningGroup = _m1;
rightKerningGroup = _h;
unicode = 006D;
},
{
glyphname = n;
layers = (
{
layerId = "EA8306D6-B852-442A-A16D-2D86AE16EEA2";
paths = (
{
closed = 1;
nodes = (
"432 0 LINE",
"482 286 LINE SMOOTH",
"485 305 OFFCURVE",
"487 324 OFFCURVE",
"487 341 CURVE SMOOTH",
"487 437 OFFCURVE",
"437 480 OFFCURVE",
"332 480 CURVE SMOOTH",
"252 480 OFFCURVE",
"198 454 OFFCURVE",
"151 385 CURVE",
"166 470 LINE",
"136 470 LINE",
"54 0 LINE",
"84 0 LINE",
"128 255 LINE SMOOTH",
"151 384 OFFCURVE",
"224 452 OFFCURVE",
"332 452 CURVE SMOOTH",
"416 452 OFFCURVE",
"457 420 OFFCURVE",
"457 341 CURVE SMOOTH",
"457 325 OFFCURVE",
"455 305 OFFCURVE",
"452 286 CURVE SMOOTH",
"402 0 LINE"
);
}
);
width = 570;
}
);
leftKerningGroup = _m1;
rightKerningGroup = _h;
unicode = 006E;
},
{
glyphname = o;
layers = (
{
layerId = "EA8306D6-B852-442A-A16D-2D86AE16EEA2";
paths = (
{
closed = 1;
nodes = (
"416 -10 OFFCURVE",
"528 103 OFFCURVE",
"528 282 CURVE SMOOTH",
"528 391 OFFCURVE",
"457 480 OFFCURVE",
"330 480 CURVE SMOOTH",
"174 480 OFFCURVE",
"62 367 OFFCURVE",
"62 188 CURVE SMOOTH",
"62 79 OFFCURVE",
"133 -10 OFFCURVE",
"260 -10 CURVE SMOOTH"
);
},
{
closed = 1;
nodes = (
"155 18 OFFCURVE",
"94 90 OFFCURVE",
"94 188 CURVE SMOOTH",
"94 349 OFFCURVE",
"189 452 OFFCURVE",
"330 452 CURVE SMOOTH",
"435 452 OFFCURVE",
"496 380 OFFCURVE",
"496 282 CURVE SMOOTH",
"496 121 OFFCURVE",
"401 18 OFFCURVE",
"260 18 CURVE SMOOTH"
);
}
);
width = 590;
}
);
leftKerningGroup = _c1;
rightKerningGroup = _b;
unicode = 006F;
},
{
glyphname = p;
layers = (
{
layerId = "EA8306D6-B852-442A-A16D-2D86AE16EEA2";
paths = (
{
closed = 1;
nodes = (
"440 -10 OFFCURVE",
"548 103 OFFCURVE",
"548 282 CURVE SMOOTH",
"548 391 OFFCURVE",
"481 480 OFFCURVE",
"354 480 CURVE SMOOTH",
"270 480 OFFCURVE",
"190 445 OFFCURVE",
"150 373 CURVE",
"167 470 LINE",
"137 470 LINE",
"22 -182 LINE",
"52 -182 LINE",
"106 125 LINE",
"126 36 OFFCURVE",
"193 -10 OFFCURVE",
"284 -10 CURVE SMOOTH"
);
},
{
closed = 1;
nodes = (
"179 18 OFFCURVE",
"122 90 OFFCURVE",
"122 188 CURVE SMOOTH",
"122 349 OFFCURVE",
"213 452 OFFCURVE",
"354 452 CURVE SMOOTH",
"459 452 OFFCURVE",
"516 380 OFFCURVE",
"516 282 CURVE SMOOTH",
"516 121 OFFCURVE",
"425 18 OFFCURVE",
"284 18 CURVE SMOOTH"
);
}
);
width = 610;
}
);
leftKerningGroup = _m1;
rightKerningGroup = _b;
unicode = 0070;
},
{
glyphname = q;
layers = (
{
layerId = "EA8306D6-B852-442A-A16D-2D86AE16EEA2";
paths = (
{
closed = 1;
nodes = (
"340 -10 OFFCURVE",
"418 25 OFFCURVE",
"458 94 CURVE",
"409 -182 LINE",
"439 -182 LINE",
"554 470 LINE",
"524 470 LINE",
"503 347 LINE",
"483 435 OFFCURVE",
"415 480 OFFCURVE",
"326 480 CURVE SMOOTH",
"170 480 OFFCURVE",
"62 367 OFFCURVE",
"62 188 CURVE SMOOTH",
"62 79 OFFCURVE",
"129 -10 OFFCURVE",
"256 -10 CURVE SMOOTH"
);
},
{
closed = 1;
nodes = (
"151 18 OFFCURVE",
"94 90 OFFCURVE",
"94 188 CURVE SMOOTH",
"94 349 OFFCURVE",
"185 452 OFFCURVE",
"326 452 CURVE SMOOTH",
"431 452 OFFCURVE",
"488 380 OFFCURVE",
"488 282 CURVE SMOOTH",
"488 121 OFFCURVE",
"397 18 OFFCURVE",
"256 18 CURVE SMOOTH"
);
}
);
width = 610;
}
);
leftKerningGroup = _c1;
unicode = 0071;
},
{
glyphname = r;
layers = (
{
layerId = "EA8306D6-B852-442A-A16D-2D86AE16EEA2";
paths = (
{
closed = 1;
nodes = (
"84 0 LINE",
"126 245 LINE SMOOTH",
"150 382 OFFCURVE",
"218 448 OFFCURVE",
"307 448 CURVE SMOOTH",
"323 448 OFFCURVE",
"338 447 OFFCURVE",
"354 444 CURVE",
"358 470 LINE",
"349 474 OFFCURVE",
"332 476 OFFCURVE",
"307 476 CURVE SMOOTH",
"239 476 OFFCURVE",
"185 451 OFFCURVE",
"149 375 CURVE",
"166 470 LINE",
"136 470 LINE",
"54 0 LINE"
);
}
);
width = 356;
}
);
leftKerningGroup = _m1;
rightKerningGroup = _r;
unicode = 0072;
},
{
glyphname = s;
layers = (
{
layerId = "EA8306D6-B852-442A-A16D-2D86AE16EEA2";
paths = (
{
closed = 1;
nodes = (
"333 -10 OFFCURVE",
"407 47 OFFCURVE",
"407 139 CURVE SMOOTH",
"407 200 OFFCURVE",
"368 232 OFFCURVE",
"304 244 CURVE SMOOTH",
"202 264 LINE",
"151 275 OFFCURVE",
"131 298 OFFCURVE",
"131 337 CURVE SMOOTH",
"131 412 OFFCURVE",
"190 452 OFFCURVE",
"278 452 CURVE SMOOTH",
"346 452 OFFCURVE",
"386 431 OFFCURVE",
"418 396 CURVE",
"439 418 LINE",
"406 454 OFFCURVE",
"357 480 OFFCURVE",
"278 480 CURVE SMOOTH",
"163 480 OFFCURVE",
"99 420 OFFCURVE",
"99 337 CURVE SMOOTH",
"99 285 OFFCURVE",
"134 246 OFFCURVE",
"198 234 CURVE SMOOTH",
"300 214 LINE SMOOTH",
"356 203 OFFCURVE",
"375 178 OFFCURVE",
"375 139 CURVE SMOOTH",
"375 63 OFFCURVE",
"314 18 OFFCURVE",
"210 18 CURVE SMOOTH",
"141 18 OFFCURVE",
"102 39 OFFCURVE",
"57 82 CURVE",
"35 59 LINE",
"82 15 OFFCURVE",
"130 -10 OFFCURVE",
"210 -10 CURVE SMOOTH"
);
}
);
width = 490;
}
);
leftKerningGroup = _s;
rightKerningGroup = _s;
unicode = 0073;
},
{
glyphname = t;
layers = (
{
layerId = "EA8306D6-B852-442A-A16D-2D86AE16EEA2";
paths = (
{
closed = 1;
nodes = (
"233 -6 OFFCURVE",
"253 -4 OFFCURVE",
"264 0 CURVE",
"268 26 LINE",
"257 23 OFFCURVE",
"237 22 OFFCURVE",
"221 22 CURVE SMOOTH",
"170 22 OFFCURVE",
"148 43 OFFCURVE",
"148 82 CURVE SMOOTH",
"148 93 OFFCURVE",
"149 104 OFFCURVE",
"151 116 CURVE SMOOTH",
"208 442 LINE",
"341 442 LINE",
"346 470 LINE",
"213 470 LINE",
"237 604 LINE",
"207 604 LINE",
"183 470 LINE",
"70 470 LINE",
"65 442 LINE",
"178 442 LINE",
"121 116 LINE SMOOTH",
"119 104 OFFCURVE",
"118 93 OFFCURVE",
"118 82 CURVE SMOOTH",
"118 23 OFFCURVE",
"152 -6 OFFCURVE",
"221 -6 CURVE SMOOTH"
);
}
);
width = 352;
}
);
leftKerningGroup = _t1;
unicode = 0074;
},
{
glyphname = u;
layers = (
{
layerId = "EA8306D6-B852-442A-A16D-2D86AE16EEA2";
paths = (
{
closed = 1;
nodes = (
"316 -10 OFFCURVE",
"370 16 OFFCURVE",
"417 85 CURVE",
"402 0 LINE",
"432 0 LINE",
"514 470 LINE",
"484 470 LINE",
"440 215 LINE SMOOTH",
"417 86 OFFCURVE",
"344 18 OFFCURVE",
"236 18 CURVE SMOOTH",
"152 18 OFFCURVE",
"111 50 OFFCURVE",
"111 129 CURVE SMOOTH",
"111 145 OFFCURVE",
"113 165 OFFCURVE",
"116 184 CURVE SMOOTH",
"166 470 LINE",
"136 470 LINE",
"86 184 LINE SMOOTH",
"83 165 OFFCURVE",
"81 146 OFFCURVE",
"81 129 CURVE SMOOTH",
"81 33 OFFCURVE",
"131 -10 OFFCURVE",
"236 -10 CURVE SMOOTH"
);
}
);
width = 570;
}
);
leftKerningGroup = _u;
unicode = 0075;
},
{
glyphname = v;
layers = (
{
layerId = "EA8306D6-B852-442A-A16D-2D86AE16EEA2";
paths = (
{
closed = 1;
nodes = (
"234 0 LINE",
"520 470 LINE",
"486 470 LINE",
"224 37 LINE",
"114 470 LINE",
"82 470 LINE",
"204 0 LINE"
);
}
);
width = 522;
}
);
leftKerningGroup = _v;
rightKerningGroup = _v;
unicode = 0076;
},
{
glyphname = w;
layers = (
{
layerId = "EA8306D6-B852-442A-A16D-2D86AE16EEA2";
paths = (
{
closed = 1;
nodes = (
"537 0 LINE",
"790 470 LINE",
"756 470 LINE",
"527 37 LINE",
"450 470 LINE",
"420 470 LINE",
"191 37 LINE",
"114 470 LINE",
"82 470 LINE",
"171 0 LINE",
"200 0 LINE",
"430 433 LINE",
"508 0 LINE"
);
}
);
width = 792;
}
);
leftKerningGroup = _w;
rightKerningGroup = _w;
unicode = 0077;
},
{
glyphname = x;
layers = (
{
layerId = "EA8306D6-B852-442A-A16D-2D86AE16EEA2";
paths = (
{
closed = 1;
nodes = (
"438 0 LINE",
"281 243 LINE",
"510 470 LINE",
"469 470 LINE",
"262 263 LINE",
"127 470 LINE",
"92 470 LINE",
"241 243 LINE",
"0 0 LINE",
"41 0 LINE",
"260 222 LINE",
"403 0 LINE"
);
}
);
width = 522;
}
);
unicode = 0078;
},
{
glyphname = y;
layers = (
{
layerId = "EA8306D6-B852-442A-A16D-2D86AE16EEA2";
paths = (
{
closed = 1;
nodes = (
"83 -188 OFFCURVE",
"146 -145 OFFCURVE",
"234 0 CURVE SMOOTH",
"520 470 LINE",
"486 470 LINE",
"223 32 LINE",
"114 470 LINE",
"82 470 LINE",
"203 -1 LINE",
"121 -133 OFFCURVE",
"72 -160 OFFCURVE",
"23 -160 CURVE SMOOTH",
"-8 -160 OFFCURVE",
"-33 -147 OFFCURVE",
"-52 -135 CURVE",
"-67 -159 LINE",
"-44 -176 OFFCURVE",
"-15 -188 OFFCURVE",
"18 -188 CURVE SMOOTH"
);
}
);
width = 522;
}
);
leftKerningGroup = _v;
rightKerningGroup = _v;
unicode = 0079;
},
{
glyphname = z;
layers = (
{
layerId = "EA8306D6-B852-442A-A16D-2D86AE16EEA2";
paths = (
{
closed = 1;
nodes = (
"348 0 LINE",
"352 28 LINE",
"50 28 LINE",
"415 442 LINE",
"420 470 LINE",
"100 470 LINE",
"95 442 LINE",
"377 442 LINE",
"13 28 LINE",
"8 0 LINE"
);
}
);
width = 440;
}
);
leftKerningGroup = _z;
rightKerningGroup = _z;
unicode = 007A;
},
{
glyphname = braceleft;
layers = (
{
layerId = "EA8306D6-B852-442A-A16D-2D86AE16EEA2";
paths = (
{
closed = 1;
nodes = (
"215 -252 LINE",
"221 -222 LINE",
"153 -222 LINE SMOOTH",
"122 -222 OFFCURVE",
"97 -204 OFFCURVE",
"97 -171 CURVE SMOOTH",
"97 -166 OFFCURVE",
"98 -161 OFFCURVE",
"99 -154 CURVE SMOOTH",
"154 163 LINE SMOOTH",
"155 170 OFFCURVE",
"156 177 OFFCURVE",
"156 182 CURVE SMOOTH",
"156 213 OFFCURVE",
"139 235 OFFCURVE",
"99 243 CURVE",
"160 254 OFFCURVE",
"176 283 OFFCURVE",
"183 323 CURVE SMOOTH",
"239 640 LINE SMOOTH",
"246 683 OFFCURVE",
"277 708 OFFCURVE",
"317 708 CURVE SMOOTH",
"385 708 LINE",
"391 738 LINE",
"313 738 LINE SMOOTH",
"254 738 OFFCURVE",
"218 699 OFFCURVE",
"207 640 CURVE SMOOTH",
"151 327 LINE SMOOTH",
"142 276 OFFCURVE",
"120 257 OFFCURVE",
"69 257 CURVE",
"64 229 LINE",
"105 229 OFFCURVE",
"125 213 OFFCURVE",
"125 182 CURVE SMOOTH",
"125 175 OFFCURVE",
"123 166 OFFCURVE",
"122 159 CURVE SMOOTH",
"67 -154 LINE SMOOTH",
"66 -161 OFFCURVE",
"66 -166 OFFCURVE",
"66 -171 CURVE SMOOTH",
"66 -222 OFFCURVE",
"105 -252 OFFCURVE",
"157 -252 CURVE SMOOTH"
);
}
);
width = 374;
}
);
unicode = 007B;
},
{
glyphname = bar;
layers = (
{
layerId = "EA8306D6-B852-442A-A16D-2D86AE16EEA2";
paths = (
{
closed = 1;
nodes = (
"41 -252 LINE",
"216 738 LINE",
"184 738 LINE",
"9 -252 LINE"
);
}
);
width = 224;
}
);
unicode = 007C;
},
{
glyphname = braceright;
layers = (
{
layerId = "EA8306D6-B852-442A-A16D-2D86AE16EEA2";
paths = (
{
closed = 1;
nodes = (
"-16 -252 LINE",
"62 -252 LINE SMOOTH",
"121 -252 OFFCURVE",
"157 -213 OFFCURVE",
"168 -154 CURVE SMOOTH",
"224 159 LINE SMOOTH",
"233 210 OFFCURVE",
"255 229 OFFCURVE",
"306 229 CURVE",
"311 257 LINE",
"270 257 OFFCURVE",
"250 273 OFFCURVE",
"250 304 CURVE SMOOTH",
"250 311 OFFCURVE",
"252 320 OFFCURVE",
"253 327 CURVE SMOOTH",
"308 640 LINE SMOOTH",
"309 647 OFFCURVE",
"309 652 OFFCURVE",
"309 657 CURVE SMOOTH",
"309 708 OFFCURVE",
"270 738 OFFCURVE",
"218 738 CURVE SMOOTH",
"160 738 LINE",
"154 708 LINE",
"222 708 LINE SMOOTH",
"253 708 OFFCURVE",
"278 690 OFFCURVE",
"278 657 CURVE SMOOTH",
"278 652 OFFCURVE",
"277 647 OFFCURVE",
"276 640 CURVE SMOOTH",
"221 323 LINE SMOOTH",
"220 316 OFFCURVE",
"219 309 OFFCURVE",
"219 304 CURVE SMOOTH",
"219 273 OFFCURVE",
"236 251 OFFCURVE",
"276 243 CURVE",
"215 232 OFFCURVE",
"199 203 OFFCURVE",
"192 163 CURVE SMOOTH",
"136 -154 LINE SMOOTH",
"129 -197 OFFCURVE",
"98 -222 OFFCURVE",
"58 -222 CURVE SMOOTH",
"-10 -222 LINE"
);
}
);
width = 374;
}
);
unicode = 007D;
},
{
glyphname = asciitilde;
layers = (
{
layerId = "EA8306D6-B852-442A-A16D-2D86AE16EEA2";
paths = (
{
closed = 1;
nodes = (
"467 268 OFFCURVE",
"499 312 OFFCURVE",
"514 400 CURVE",
"488 400 LINE",
"472 329 OFFCURVE",
"445 296 OFFCURVE",
"398 296 CURVE SMOOTH",
"333 296 OFFCURVE",
"296 400 OFFCURVE",
"217 400 CURVE SMOOTH",
"148 400 OFFCURVE",
"116 356 OFFCURVE",
"101 268 CURVE",
"127 268 LINE",
"143 339 OFFCURVE",
"170 372 OFFCURVE",
"217 372 CURVE SMOOTH",
"282 372 OFFCURVE",
"319 268 OFFCURVE",
"398 268 CURVE SMOOTH"
);
}
);
width = 582;
}
);
leftKerningGroup = _plus;
rightKerningGroup = _plus;
unicode = 007E;
},
{
glyphname = exclamdown;
layers = (
{
layerId = "EA8306D6-B852-442A-A16D-2D86AE16EEA2";
paths = (
{
closed = 1;
nodes = (
"55 -182 LINE",
"87 0 LINE",
"135 310 LINE",
"115 310 LINE",
"55 0 LINE",
"23 -182 LINE"
);
},
{
closed = 1;
nodes = (
"167 440 OFFCURVE",
"179 451 OFFCURVE",
"179 468 CURVE SMOOTH",
"179 483 OFFCURVE",
"171 490 OFFCURVE",
"156 490 CURVE SMOOTH",
"139 490 OFFCURVE",
"127 479 OFFCURVE",
"127 462 CURVE SMOOTH",
"127 447 OFFCURVE",
"135 440 OFFCURVE",
"150 440 CURVE SMOOTH"
);
}
);
width = 224;
}
);
unicode = 00A1;
},
{
glyphname = cent;
layers = (
{
layerId = "EA8306D6-B852-442A-A16D-2D86AE16EEA2";
paths = (
{
closed = 1;
nodes = (
"171 -100 LINE",
"209 -5 LINE",
"225 -8 OFFCURVE",
"241 -10 OFFCURVE",
"260 -10 CURVE SMOOTH",
"321 -10 OFFCURVE",
"376 12 OFFCURVE",
"423 52 CURVE",
"410 74 LINE",
"362 35 OFFCURVE",
"316 18 OFFCURVE",
"260 18 CURVE SMOOTH",
"245 18 OFFCURVE",
"232 19 OFFCURVE",
"220 21 CURVE",
"391 443 LINE",
"420 435 OFFCURVE",
"445 419 OFFCURVE",
"466 396 CURVE",
"487 418 LINE",
"466 443 OFFCURVE",
"438 461 OFFCURVE",
"403 471 CURVE",
"443 570 LINE",
"413 570 LINE",
"375 477 LINE",
"361 479 OFFCURVE",
"346 480 OFFCURVE",
"330 480 CURVE SMOOTH",
"164 480 OFFCURVE",
"62 370 OFFCURVE",
"62 188 CURVE SMOOTH",
"62 103 OFFCURVE",
"103 30 OFFCURVE",
"182 2 CURVE",
"141 -100 LINE"
);
},
{
closed = 1;
nodes = (
"94 353 OFFCURVE",
"185 452 OFFCURVE",
"330 452 CURVE SMOOTH",
"341 452 OFFCURVE",
"353 451 OFFCURVE",
"364 449 CURVE",
"193 29 LINE",
"126 52 OFFCURVE",
"94 112 OFFCURVE",
"94 188 CURVE SMOOTH"
);
}
);
width = 516;
}
);
unicode = 00A2;
},
{
glyphname = sterling;
layers = (
{
layerId = "EA8306D6-B852-442A-A16D-2D86AE16EEA2";
paths = (
{
closed = 1;
nodes = (
"363 279 LINE",
"368 307 LINE",
"152 307 LINE",
"147 339 OFFCURVE",
"142 373 OFFCURVE",
"142 408 CURVE SMOOTH",
"142 549 OFFCURVE",
"232 650 OFFCURVE",
"358 650 CURVE SMOOTH",
"422 650 OFFCURVE",
"475 627 OFFCURVE",
"528 562 CURVE",
"548 584 LINE",
"500 651 OFFCURVE",
"426 678 OFFCURVE",
"358 678 CURVE SMOOTH",
"217 678 OFFCURVE",
"110 570 OFFCURVE",
"110 408 CURVE SMOOTH",
"110 373 OFFCURVE",
"115 339 OFFCURVE",
"120 307 CURVE",
"58 307 LINE",
"53 279 LINE",
"124 279 LINE",
"128 255 OFFCURVE",
"131 233 OFFCURVE",
"131 212 CURVE SMOOTH",
"131 147 OFFCURVE",
"100 63 OFFCURVE",
"28 28 CURVE",
"24 0 LINE",
"446 0 LINE",
"450 28 LINE",
"62 28 LINE",
"144 62 OFFCURVE",
"163 171 OFFCURVE",
"163 212 CURVE SMOOTH",
"163 233 OFFCURVE",
"160 256 OFFCURVE",
"157 279 CURVE"
);
}
);
width = 554;
}
);
unicode = 00A3;
},
{
glyphname = currency;
layers = (
{
layerId = "EA8306D6-B852-442A-A16D-2D86AE16EEA2";
paths = (
{
closed = 1;
nodes = (
"651 -10 LINE",
"674 10 LINE",
"532 182 LINE",
"577 233 OFFCURVE",
"604 305 OFFCURVE",
"604 389 CURVE SMOOTH",
"604 424 OFFCURVE",
"597 455 OFFCURVE",
"584 482 CURVE",
"788 656 LINE",
"770 678 LINE",
"568 506 LINE",
"537 545 OFFCURVE",
"490 568 OFFCURVE",
"423 568 CURVE SMOOTH",
"360 568 OFFCURVE",
"307 547 OFFCURVE",
"264 508 CURVE",
"124 678 LINE",
"101 658 LINE",
"242 486 LINE",
"197 435 OFFCURVE",
"170 363 OFFCURVE",
"170 279 CURVE SMOOTH",
"170 244 OFFCURVE",
"177 213 OFFCURVE",
"190 185 CURVE",
"-13 12 LINE",
"5 -10 LINE",
"206 161 LINE",
"237 122 OFFCURVE",
"284 100 OFFCURVE",
"351 100 CURVE SMOOTH",
"414 100 OFFCURVE",
"467 122 OFFCURVE",
"510 159 CURVE"
);
},
{
closed = 1;
nodes = (
"251 128 OFFCURVE",
"200 186 OFFCURVE",
"200 279 CURVE SMOOTH",
"200 431 OFFCURVE",
"294 540 OFFCURVE",
"423 540 CURVE SMOOTH",
"523 540 OFFCURVE",
"574 482 OFFCURVE",
"574 389 CURVE SMOOTH",
"574 237 OFFCURVE",
"480 128 OFFCURVE",
"351 128 CURVE SMOOTH"
);
}
);
width = 742;
}
);
unicode = 00A4;
},
{
glyphname = yen;
layers = (
{
layerId = "EA8306D6-B852-442A-A16D-2D86AE16EEA2";
paths = (
{
closed = 1;
nodes = (
"295 0 LINE",
"313 101 LINE",
"491 101 LINE",
"496 129 LINE",
"318 129 LINE",
"340 257 LINE",
"519 257 LINE",
"524 285 LINE",
"356 285 LINE",
"651 668 LINE",
"611 668 LINE",
"328 294 LINE",
"177 668 LINE",
"141 668 LINE",
"302 285 LINE",
"134 285 LINE",
"129 257 LINE",
"308 257 LINE",
"286 129 LINE",
"106 129 LINE",
"101 101 LINE",
"281 101 LINE",
"263 0 LINE"
);
}
);
width = 642;
}
);
unicode = 00A5;
},
{
glyphname = brokenbar;
layers = (
{
layerId = "EA8306D6-B852-442A-A16D-2D86AE16EEA2";
paths = (
{
closed = 1;
nodes = (
"41 -252 LINE",
"121 204 LINE",
"89 204 LINE",
"9 -252 LINE"
);
},
{
closed = 1;
nodes = (
"135 282 LINE",
"216 738 LINE",
"184 738 LINE",
"103 282 LINE"
);
}
);
width = 224;
}
);
unicode = 00A6;
},
{
glyphname = section;
layers = (
{
layerId = "EA8306D6-B852-442A-A16D-2D86AE16EEA2";
paths = (
{
closed = 1;
nodes = (
"534 272 OFFCURVE",
"502 303 OFFCURVE",
"438 342 CURVE SMOOTH",
"289 432 LINE SMOOTH",
"245 459 OFFCURVE",
"218 492 OFFCURVE",
"218 527 CURVE SMOOTH",
"218 602 OFFCURVE",
"279 650 OFFCURVE",
"367 650 CURVE SMOOTH",
"435 650 OFFCURVE",
"475 629 OFFCURVE",
"507 594 CURVE",
"528 616 LINE",
"495 652 OFFCURVE",
"446 678 OFFCURVE",
"367 678 CURVE SMOOTH",
"252 678 OFFCURVE",
"186 610 OFFCURVE",
"186 527 CURVE SMOOTH",
"186 487 OFFCURVE",
"214 445 OFFCURVE",
"254 417 CURVE",
"159 409 OFFCURVE",
"83 361 OFFCURVE",
"83 273 CURVE SMOOTH",
"83 228 OFFCURVE",
"110 192 OFFCURVE",
"174 153 CURVE SMOOTH",
"324 63 LINE",
"373 32 OFFCURVE",
"397 4 OFFCURVE",
"397 -35 CURVE SMOOTH",
"397 -111 OFFCURVE",
"336 -164 OFFCURVE",
"232 -164 CURVE SMOOTH",
"163 -164 OFFCURVE",
"124 -143 OFFCURVE",
"79 -100 CURVE",
"57 -123 LINE",
"104 -167 OFFCURVE",
"152 -192 OFFCURVE",
"232 -192 CURVE SMOOTH",
"355 -192 OFFCURVE",
"429 -127 OFFCURVE",
"429 -35 CURVE SMOOTH",
"429 8 OFFCURVE",
"407 45 OFFCURVE",
"372 69 CURVE",
"464 80 OFFCURVE",
"534 121 OFFCURVE",
"534 219 CURVE SMOOTH"
);
},
{
closed = 1;
nodes = (
"502 133 OFFCURVE",
"435 90 OFFCURVE",
"344 87 CURVE",
"185 183 LINE SMOOTH",
"132 215 OFFCURVE",
"115 241 OFFCURVE",
"115 273 CURVE SMOOTH",
"115 359 OFFCURVE",
"198 400 OFFCURVE",
"281 400 CURVE",
"428 312 LINE SMOOTH",
"485 277 OFFCURVE",
"502 254 OFFCURVE",
"502 219 CURVE SMOOTH"
);
}
);
width = 595;
}
);
unicode = 00A7;
},
{
glyphname = dieresis;
layers = (
{
anchors = (
{
name = _top;
position = "{347, 510}";
}
);
layerId = "EA8306D6-B852-442A-A16D-2D86AE16EEA2";
paths = (
{
closed = 1;
nodes = (
"293 603 OFFCURVE",
"302 611 OFFCURVE",
"302 627 CURVE SMOOTH",
"302 640 OFFCURVE",
"295 647 OFFCURVE",
"280 647 CURVE SMOOTH",
"263 647 OFFCURVE",
"254 639 OFFCURVE",
"254 623 CURVE SMOOTH",
"254 610 OFFCURVE",
"261 603 OFFCURVE",
"276 603 CURVE SMOOTH"
);
},
{
closed = 1;
nodes = (
"471 603 OFFCURVE",
"480 611 OFFCURVE",
"480 627 CURVE SMOOTH",
"480 640 OFFCURVE",
"473 647 OFFCURVE",
"458 647 CURVE SMOOTH",
"441 647 OFFCURVE",
"432 639 OFFCURVE",
"432 623 CURVE SMOOTH",
"432 610 OFFCURVE",
"439 603 OFFCURVE",
"454 603 CURVE SMOOTH"
);
}
);
width = 600;
}
);
unicode = 00A8;
},
{
glyphname = copyright;
layers = (
{
layerId = "EA8306D6-B852-442A-A16D-2D86AE16EEA2";
paths = (
{
closed = 1;
nodes = (
"630 -10 OFFCURVE",
"770 134 OFFCURVE",
"770 334 CURVE SMOOTH",
"770 534 OFFCURVE",
"630 678 OFFCURVE",
"426 678 CURVE SMOOTH",
"222 678 OFFCURVE",
"82 534 OFFCURVE",
"82 334 CURVE SMOOTH",
"82 134 OFFCURVE",
"222 -10 OFFCURVE",
"426 -10 CURVE SMOOTH"
);
},
{
closed = 1;
nodes = (
"239 18 OFFCURVE",
"114 147 OFFCURVE",
"114 334 CURVE SMOOTH",
"114 521 OFFCURVE",
"239 650 OFFCURVE",
"426 650 CURVE SMOOTH",
"613 650 OFFCURVE",
"738 521 OFFCURVE",
"738 334 CURVE SMOOTH",
"738 147 OFFCURVE",
"613 18 OFFCURVE",
"426 18 CURVE SMOOTH"
);
},
{
closed = 1;
nodes = (
"476 168 OFFCURVE",
"511 182 OFFCURVE",
"537 209 CURVE",
"520 230 LINE",
"495 207 OFFCURVE",
"463 196 OFFCURVE",
"430 196 CURVE SMOOTH",
"355 196 OFFCURVE",
"313 250 OFFCURVE",
"313 334 CURVE SMOOTH",
"313 418 OFFCURVE",
"355 472 OFFCURVE",
"430 472 CURVE SMOOTH",
"463 472 OFFCURVE",
"495 461 OFFCURVE",
"520 437 CURVE",
"537 459 LINE",
"511 486 OFFCURVE",
"476 500 OFFCURVE",
"431 500 CURVE SMOOTH",
"335 500 OFFCURVE",
"281 433 OFFCURVE",
"281 334 CURVE SMOOTH",
"281 235 OFFCURVE",
"335 168 OFFCURVE",
"431 168 CURVE SMOOTH"
);
}
);
width = 820;
}
);
unicode = 00A9;
},
{
glyphname = ordfeminine;
layers = (
{
layerId = "EA8306D6-B852-442A-A16D-2D86AE16EEA2";
paths = (
{
closed = 1;
nodes = (
"315 232 OFFCURVE",
"374 264 OFFCURVE",
"407 313 CURVE",
"394 241 LINE",
"424 241 LINE",
"469 499 LINE",
"472 510 OFFCURVE",
"473 526 OFFCURVE",
"473 538 CURVE SMOOTH",
"473 626 OFFCURVE",
"413 674 OFFCURVE",
"312 674 CURVE SMOOTH",
"259 674 OFFCURVE",
"205 652 OFFCURVE",
"161 613 CURVE",
"175 588 LINE",
"222 627 OFFCURVE",
"267 646 OFFCURVE",
"312 646 CURVE SMOOTH",
"400 646 OFFCURVE",
"444 614 OFFCURVE",
"444 539 CURVE SMOOTH",
"444 526 OFFCURVE",
"443 514 OFFCURVE",
"440 501 CURVE",
"270 480 LINE SMOOTH",
"137 463 OFFCURVE",
"86 425 OFFCURVE",
"86 349 CURVE SMOOTH",
"86 274 OFFCURVE",
"147 232 OFFCURVE",
"235 232 CURVE SMOOTH"
);
},
{
closed = 1;
nodes = (
"166 260 OFFCURVE",
"116 292 OFFCURVE",
"116 349 CURVE SMOOTH",
"116 409 OFFCURVE",
"152 440 OFFCURVE",
"266 453 CURVE",
"436 474 LINE",
"426 417 LINE SMOOTH",
"410 328 OFFCURVE",
"352 260 OFFCURVE",
"235 260 CURVE SMOOTH"
);
}
);
width = 522;
}
);
unicode = 00AA;
},
{
glyphname = guillemotleft;
layers = (
{
layerId = "EA8306D6-B852-442A-A16D-2D86AE16EEA2";
paths = (
{
closed = 1;
nodes = (
"175 113 LINE",
"106 286 LINE",
"237 461 LINE",
"205 461 LINE",
"74 286 LINE",
"143 113 LINE"
);
},
{
closed = 1;
nodes = (
"353 113 LINE",
"284 286 LINE",
"415 461 LINE",
"383 461 LINE",
"252 286 LINE",
"321 113 LINE"
);
}
);
width = 442;
}
);
unicode = 00AB;
},
{
glyphname = logicalnot;
layers = (
{
layerId = "EA8306D6-B852-442A-A16D-2D86AE16EEA2";
paths = (
{
closed = 1;
nodes = (
"484 230 LINE",
"521 438 LINE",
"131 438 LINE",
"126 410 LINE",
"484 410 LINE",
"452 230 LINE"
);
}
);
width = 582;
}
);
unicode = 00AC;
},
{
glyphname = uni00AD;
layers = (
{
layerId = "EA8306D6-B852-442A-A16D-2D86AE16EEA2";
paths = (
{
closed = 1;
nodes = (
"307 272 LINE",
"312 300 LINE",
"76 300 LINE",
"71 272 LINE"
);
}
);
width = 368;
}
);
leftKerningGroup = _hypen;
rightKerningGroup = _hypen;
unicode = 00AD;
},
{
glyphname = registered;
layers = (
{
layerId = "EA8306D6-B852-442A-A16D-2D86AE16EEA2";
paths = (
{
closed = 1;
nodes = (
"489 190 OFFCURVE",
"588 292 OFFCURVE",
"588 434 CURVE SMOOTH",
"588 576 OFFCURVE",
"489 678 OFFCURVE",
"344 678 CURVE SMOOTH",
"199 678 OFFCURVE",
"100 576 OFFCURVE",
"100 434 CURVE SMOOTH",
"100 292 OFFCURVE",
"199 190 OFFCURVE",
"344 190 CURVE SMOOTH"
);
},
{
closed = 1;
nodes = (
"216 218 OFFCURVE",
"132 305 OFFCURVE",
"132 434 CURVE SMOOTH",
"132 561 OFFCURVE",
"216 650 OFFCURVE",
"344 650 CURVE SMOOTH",
"472 650 OFFCURVE",
"556 561 OFFCURVE",
"556 434 CURVE SMOOTH",
"556 305 OFFCURVE",
"472 218 OFFCURVE",
"344 218 CURVE SMOOTH"
);
},
{
closed = 1;
nodes = (
"433 536 OFFCURVE",
"404 556 OFFCURVE",
"348 556 CURVE SMOOTH",
"263 556 LINE",
"263 314 LINE",
"293 314 LINE",
"293 421 LINE",
"327 421 LINE",
"408 314 LINE",
"446 314 LINE",
"364 422 LINE",
"408 426 OFFCURVE",
"433 446 OFFCURVE",
"433 489 CURVE SMOOTH"
);
},
{
closed = 1;
nodes = (
"401 458 OFFCURVE",
"383 449 OFFCURVE",
"348 449 CURVE SMOOTH",
"293 449 LINE",
"293 528 LINE",
"348 528 LINE SMOOTH",
"384 528 OFFCURVE",
"401 517 OFFCURVE",
"401 489 CURVE SMOOTH"
);
}
);
width = 620;
}
);
unicode = 00AE;
},
{
glyphname = macron;
layers = (
{
anchors = (
{
name = _top;
position = "{347, 510}";
}
);
layerId = "EA8306D6-B852-442A-A16D-2D86AE16EEA2";
paths = (
{
closed = 1;
nodes = (
"478 611 LINE",
"483 639 LINE",
"255 639 LINE",
"250 611 LINE"
);
}
);
width = 600;
}
);
unicode = 00AF;
},
{
glyphname = degree;
layers = (
{
layerId = "EA8306D6-B852-442A-A16D-2D86AE16EEA2";
paths = (
{
closed = 1;
nodes = (
"311 440 OFFCURVE",
"372 493 OFFCURVE",
"372 576 CURVE SMOOTH",
"372 639 OFFCURVE",
"329 678 OFFCURVE",
"261 678 CURVE SMOOTH",
"181 678 OFFCURVE",
"120 625 OFFCURVE",
"120 542 CURVE SMOOTH",
"120 479 OFFCURVE",
"163 440 OFFCURVE",
"231 440 CURVE SMOOTH"
);
},
{
closed = 1;
nodes = (
"180 468 OFFCURVE",
"151 497 OFFCURVE",
"151 545 CURVE SMOOTH",
"151 612 OFFCURVE",
"198 650 OFFCURVE",
"261 650 CURVE SMOOTH",
"312 650 OFFCURVE",
"341 620 OFFCURVE",
"341 573 CURVE SMOOTH",
"341 506 OFFCURVE",
"294 468 OFFCURVE",
"231 468 CURVE SMOOTH"
);
}
);
width = 380;
}
);
unicode = 00B0;
},
{
glyphname = plusminus;
layers = (
{
layerId = "EA8306D6-B852-442A-A16D-2D86AE16EEA2";
paths = (
{
closed = 1;
nodes = (
"444 0 LINE",
"448 28 LINE",
"58 28 LINE",
"54 0 LINE"
);
},
{
closed = 1;
nodes = (
"289 139 LINE",
"321 320 LINE",
"500 320 LINE",
"505 348 LINE",
"326 348 LINE",
"358 529 LINE",
"326 529 LINE",
"294 348 LINE",
"115 348 LINE",
"110 320 LINE",
"289 320 LINE",
"257 139 LINE"
);
}
);
width = 582;
}
);
unicode = 00B1;
},
{
glyphname = twosuperior;
layers = (
{
layerId = "EA8306D6-B852-442A-A16D-2D86AE16EEA2";
paths = (
{
closed = 1;
nodes = (
"346 408 LINE",
"350 436 LINE",
"144 436 LINE",
"329 589 LINE SMOOTH",
"377 628 OFFCURVE",
"389 673 OFFCURVE",
"389 704 CURVE SMOOTH",
"389 763 OFFCURVE",
"341 808 OFFCURVE",
"276 808 CURVE SMOOTH",
"236 808 OFFCURVE",
"192 794 OFFCURVE",
"156 753 CURVE",
"169 730 LINE",
"206 769 OFFCURVE",
"236 780 OFFCURVE",
"276 780 CURVE SMOOTH",
"320 780 OFFCURVE",
"355 753 OFFCURVE",
"355 704 CURVE SMOOTH",
"355 669 OFFCURVE",
"342 637 OFFCURVE",
"303 604 CURVE SMOOTH",
"100 436 LINE",
"96 408 LINE"
);
}
);
width = 382;
}
);
unicode = 00B2;
},
{
glyphname = threesuperior;
layers = (
{
layerId = "EA8306D6-B852-442A-A16D-2D86AE16EEA2";
paths = (
{
closed = 1;
nodes = (
"313 402 OFFCURVE",
"376 449 OFFCURVE",
"376 521 CURVE SMOOTH",
"376 566 OFFCURVE",
"348 597 OFFCURVE",
"301 610 CURVE",
"362 622 OFFCURVE",
"404 662 OFFCURVE",
"404 714 CURVE SMOOTH",
"404 770 OFFCURVE",
"357 808 OFFCURVE",
"285 808 CURVE SMOOTH",
"240 808 OFFCURVE",
"203 793 OFFCURVE",
"162 754 CURVE",
"176 731 LINE",
"216 767 OFFCURVE",
"246 780 OFFCURVE",
"285 780 CURVE SMOOTH",
"344 780 OFFCURVE",
"370 757 OFFCURVE",
"370 714 CURVE SMOOTH",
"370 658 OFFCURVE",
"329 624 OFFCURVE",
"261 624 CURVE SMOOTH",
"221 624 LINE",
"216 598 LINE",
"251 598 LINE SMOOTH",
"315 598 OFFCURVE",
"344 568 OFFCURVE",
"344 521 CURVE SMOOTH",
"344 468 OFFCURVE",
"300 430 OFFCURVE",
"225 430 CURVE SMOOTH",
"182 430 OFFCURVE",
"153 445 OFFCURVE",
"125 480 CURVE",
"104 459 LINE",
"131 424 OFFCURVE",
"165 402 OFFCURVE",
"225 402 CURVE SMOOTH"
);
}
);
width = 394;
}
);
unicode = 00B3;
},
{
glyphname = acute;
layers = (
{
anchors = (
{
name = _top;
position = "{307, 510}";
}
);
layerId = "EA8306D6-B852-442A-A16D-2D86AE16EEA2";
paths = (
{
closed = 1;
nodes = (
"327 554 LINE",
"445 696 LINE",
"407 696 LINE",
"301 554 LINE"
);
}
);
width = 600;
}
);
unicode = 00B4;
},
{
glyphname = mu;
layers = (
{
layerId = "EA8306D6-B852-442A-A16D-2D86AE16EEA2";
paths = (
{
closed = 1;
nodes = (
"316 -10 OFFCURVE",
"370 16 OFFCURVE",
"417 85 CURVE",
"402 0 LINE",
"432 0 LINE",
"514 470 LINE",
"484 470 LINE",
"440 215 LINE SMOOTH",
"417 86 OFFCURVE",
"344 18 OFFCURVE",
"236 18 CURVE SMOOTH",
"152 18 OFFCURVE",
"111 50 OFFCURVE",
"111 129 CURVE SMOOTH",
"111 145 OFFCURVE",
"113 165 OFFCURVE",
"116 184 CURVE SMOOTH",
"166 470 LINE",
"136 470 LINE",
"21 -182 LINE",
"51 -182 LINE",
"95 70 LINE",
"113 17 OFFCURVE",
"160 -10 OFFCURVE",
"236 -10 CURVE SMOOTH"
);
}
);
width = 570;
}
);
leftKerningGroup = _m1;
unicode = 00B5;
},
{
glyphname = paragraph;
layers = (
{
layerId = "EA8306D6-B852-442A-A16D-2D86AE16EEA2";
paths = (
{
closed = 1;
nodes = (
"373 -182 LINE",
"523 668 LINE",
"299 668 LINE SMOOTH",
"188 668 OFFCURVE",
"109 596 OFFCURVE",
"109 484 CURVE SMOOTH",
"109 400 OFFCURVE",
"166 343 OFFCURVE",
"255 340 CURVE",
"163 -182 LINE",
"193 -182 LINE",
"338 640 LINE",
"488 640 LINE",
"343 -182 LINE"
);
}
);
width = 544;
}
);
unicode = 00B6;
},
{
glyphname = periodcentered;
layers = (
{
layerId = "EA8306D6-B852-442A-A16D-2D86AE16EEA2";
paths = (
{
closed = 1;
nodes = (
"134 261 OFFCURVE",
"146 272 OFFCURVE",
"146 289 CURVE SMOOTH",
"146 304 OFFCURVE",
"138 311 OFFCURVE",
"123 311 CURVE SMOOTH",
"106 311 OFFCURVE",
"94 300 OFFCURVE",
"94 283 CURVE SMOOTH",
"94 268 OFFCURVE",
"102 261 OFFCURVE",
"117 261 CURVE SMOOTH"
);
}
);
width = 224;
}
);
unicode = 00B7;
},
{
glyphname = cedilla;
layers = (
{
anchors = (
{
name = _bot;
position = "{253, -24}";
}
);
layerId = "EA8306D6-B852-442A-A16D-2D86AE16EEA2";
paths = (
{
closed = 1;
nodes = (
"274 -174 OFFCURVE",
"306 -145 OFFCURVE",
"306 -101 CURVE SMOOTH",
"306 -70 OFFCURVE",
"284 -50 OFFCURVE",
"240 -50 CURVE",
"278 11 LINE",
"250 11 LINE",
"212 -51 LINE",
"209 -68 LINE",
"233 -68 LINE SMOOTH",
"262 -68 OFFCURVE",
"276 -79 OFFCURVE",
"276 -100 CURVE SMOOTH",
"276 -131 OFFCURVE",
"253 -148 OFFCURVE",
"218 -148 CURVE SMOOTH",
"201 -148 OFFCURVE",
"177 -148 OFFCURVE",
"165 -145 CURVE",
"161 -167 LINE",
"172 -171 OFFCURVE",
"201 -174 OFFCURVE",
"218 -174 CURVE SMOOTH"
);
}
);
width = 600;
}
);
unicode = 00B8;
},
{
glyphname = onesuperior;
layers = (
{
layerId = "EA8306D6-B852-442A-A16D-2D86AE16EEA2";
paths = (
{
closed = 1;
nodes = (
"232 408 LINE",
"301 802 LINE",
"269 802 LINE",
"133 735 LINE",
"146 713 LINE",
"264 771 LINE",
"200 408 LINE"
);
}
);
width = 298;
}
);
unicode = 00B9;
},
{
glyphname = ordmasculine;
layers = (
{
layerId = "EA8306D6-B852-442A-A16D-2D86AE16EEA2";
paths = (
{
closed = 1;
nodes = (
"427 232 OFFCURVE",
"519 331 OFFCURVE",
"519 495 CURVE SMOOTH",
"519 595 OFFCURVE",
"455 674 OFFCURVE",
"341 674 CURVE SMOOTH",
"191 674 OFFCURVE",
"99 575 OFFCURVE",
"99 411 CURVE SMOOTH",
"99 311 OFFCURVE",
"163 232 OFFCURVE",
"278 232 CURVE SMOOTH"
);
},
{
closed = 1;
nodes = (
"182 260 OFFCURVE",
"131 322 OFFCURVE",
"131 411 CURVE SMOOTH",
"131 559 OFFCURVE",
"216 646 OFFCURVE",
"341 646 CURVE SMOOTH",
"434 646 OFFCURVE",
"487 584 OFFCURVE",
"487 495 CURVE SMOOTH",
"487 347 OFFCURVE",
"403 260 OFFCURVE",
"278 260 CURVE SMOOTH"
);
}
);
width = 546;
}
);
unicode = 00BA;
},
{
glyphname = guillemotright;
layers = (
{
layerId = "EA8306D6-B852-442A-A16D-2D86AE16EEA2";
paths = (
{
closed = 1;
nodes = (
"75 113 LINE",
"206 286 LINE",
"137 461 LINE",
"105 461 LINE",
"174 286 LINE",
"43 113 LINE"
);
},
{
closed = 1;
nodes = (
"253 113 LINE",
"384 286 LINE",
"315 461 LINE",
"283 461 LINE",
"352 286 LINE",
"221 113 LINE"
);
}
);
width = 442;
}
);
unicode = 00BB;
},
{
glyphname = onequarter;
layers = (
{
layerId = "EA8306D6-B852-442A-A16D-2D86AE16EEA2";
paths = (
{
closed = 1;
nodes = (
"208 274 LINE",
"277 668 LINE",
"245 668 LINE",
"109 601 LINE",
"123 579 LINE",
"240 637 LINE",
"176 274 LINE"
);
},
{
closed = 1;
nodes = (
"193 0 LINE",
"668 668 LINE",
"634 668 LINE",
"159 0 LINE"
);
},
{
closed = 1;
nodes = (
"674 0 LINE",
"691 102 LINE",
"743 102 LINE",
"748 130 LINE",
"696 130 LINE",
"743 394 LINE",
"719 394 LINE",
"459 131 LINE",
"453 102 LINE",
"659 102 LINE",
"642 0 LINE"
);
},
{
closed = 1;
nodes = (
"664 130 LINE",
"495 130 LINE",
"701 339 LINE"
);
}
);
width = 834;
}
);
unicode = 00BC;
},
{
glyphname = onehalf;
layers = (
{
layerId = "EA8306D6-B852-442A-A16D-2D86AE16EEA2";
paths = (
{
closed = 1;
nodes = (
"208 274 LINE",
"277 668 LINE",
"245 668 LINE",
"109 601 LINE",
"123 579 LINE",
"240 637 LINE",
"176 274 LINE"
);
},
{
closed = 1;
nodes = (
"193 0 LINE",
"668 668 LINE",
"634 668 LINE",
"159 0 LINE"
);
},
{
closed = 1;
nodes = (
"758 0 LINE",
"762 28 LINE",
"556 28 LINE",
"741 181 LINE SMOOTH",
"789 220 OFFCURVE",
"801 265 OFFCURVE",
"801 296 CURVE SMOOTH",
"801 355 OFFCURVE",
"753 400 OFFCURVE",
"688 400 CURVE SMOOTH",
"648 400 OFFCURVE",
"604 386 OFFCURVE",
"568 345 CURVE",
"581 322 LINE",
"618 361 OFFCURVE",
"648 372 OFFCURVE",
"688 372 CURVE SMOOTH",
"732 372 OFFCURVE",
"767 345 OFFCURVE",
"767 296 CURVE SMOOTH",
"767 261 OFFCURVE",
"754 229 OFFCURVE",
"715 196 CURVE SMOOTH",
"512 28 LINE",
"508 0 LINE"
);
}
);
width = 866;
}
);
unicode = 00BD;
},
{
glyphname = threequarters;
layers = (
{
layerId = "EA8306D6-B852-442A-A16D-2D86AE16EEA2";
paths = (
{
closed = 1;
nodes = (
"289 268 OFFCURVE",
"352 315 OFFCURVE",
"352 387 CURVE SMOOTH",
"352 432 OFFCURVE",
"324 463 OFFCURVE",
"277 476 CURVE",
"338 488 OFFCURVE",
"380 528 OFFCURVE",
"380 580 CURVE SMOOTH",
"380 636 OFFCURVE",
"333 674 OFFCURVE",
"261 674 CURVE SMOOTH",
"216 674 OFFCURVE",
"179 659 OFFCURVE",
"138 620 CURVE",
"152 597 LINE",
"192 633 OFFCURVE",
"222 646 OFFCURVE",
"261 646 CURVE SMOOTH",
"320 646 OFFCURVE",
"346 623 OFFCURVE",
"346 580 CURVE SMOOTH",
"346 524 OFFCURVE",
"305 490 OFFCURVE",
"237 490 CURVE SMOOTH",
"197 490 LINE",
"192 464 LINE",
"227 464 LINE SMOOTH",
"291 464 OFFCURVE",
"320 434 OFFCURVE",
"320 387 CURVE SMOOTH",
"320 334 OFFCURVE",
"276 296 OFFCURVE",
"201 296 CURVE SMOOTH",
"158 296 OFFCURVE",
"129 311 OFFCURVE",
"101 346 CURVE",
"80 325 LINE",
"107 290 OFFCURVE",
"141 268 OFFCURVE",
"201 268 CURVE SMOOTH"
);
},
{
closed = 1;
nodes = (
"273 0 LINE",
"748 668 LINE",
"714 668 LINE",
"239 0 LINE"
);
},
{
closed = 1;
nodes = (
"754 0 LINE",
"771 102 LINE",
"823 102 LINE",
"828 130 LINE",
"776 130 LINE",
"823 394 LINE",
"799 394 LINE",
"539 131 LINE",
"533 102 LINE",
"739 102 LINE",
"722 0 LINE"
);
},
{
closed = 1;
nodes = (
"744 130 LINE",
"575 130 LINE",
"781 339 LINE"
);
}
);
width = 914;
}
);
unicode = 00BE;
},
{
glyphname = questiondown;
layers = (
{
layerId = "EA8306D6-B852-442A-A16D-2D86AE16EEA2";
paths = (
{
closed = 1;
nodes = (
"252 -192 OFFCURVE",
"313 -168 OFFCURVE",
"372 -101 CURVE",
"359 -76 LINE",
"299 -140 OFFCURVE",
"244 -164 OFFCURVE",
"184 -164 CURVE SMOOTH",
"99 -164 OFFCURVE",
"39 -107 OFFCURVE",
"39 -30 CURVE SMOOTH",
"39 86 OFFCURVE",
"233 131 OFFCURVE",
"261 282 CURVE SMOOTH",
"266 310 LINE",
"240 310 LINE",
"235 282 LINE SMOOTH",
"211 139 OFFCURVE",
"5 108 OFFCURVE",
"5 -30 CURVE SMOOTH",
"5 -122 OFFCURVE",
"84 -192 OFFCURVE",
"184 -192 CURVE SMOOTH"
);
},
{
closed = 1;
nodes = (
"295 440 OFFCURVE",
"307 451 OFFCURVE",
"307 468 CURVE SMOOTH",
"307 483 OFFCURVE",
"299 490 OFFCURVE",
"284 490 CURVE SMOOTH",
"267 490 OFFCURVE",
"255 479 OFFCURVE",
"255 462 CURVE SMOOTH",
"255 447 OFFCURVE",
"263 440 OFFCURVE",
"278 440 CURVE SMOOTH"
);
}
);
width = 472;
}
);
unicode = 00BF;
},
{
glyphname = Agrave;
layers = (
{
layerId = "EA8306D6-B852-442A-A16D-2D86AE16EEA2";
paths = (
{
closed = 1;
nodes = (
"608 0 LINE",
"437 668 LINE",
"405 668 LINE",
"0 0 LINE",
"36 0 LINE",
"139 171 LINE",
"533 171 LINE",
"576 0 LINE"
);
},
{
closed = 1;
nodes = (
"525 201 LINE",
"157 201 LINE",
"417 631 LINE"
);
},
{
closed = 1;
nodes = (
"446 746 LINE",
"390 888 LINE",
"356 888 LINE",
"424 746 LINE"
);
}
);
width = 692;
}
);
leftKerningGroup = _A1;
rightKerningGroup = _A;
unicode = 00C0;
},
{
glyphname = Aacute;
layers = (
{
layerId = "EA8306D6-B852-442A-A16D-2D86AE16EEA2";
paths = (
{
closed = 1;
nodes = (
"608 0 LINE",
"437 668 LINE",
"405 668 LINE",
"0 0 LINE",
"36 0 LINE",
"139 171 LINE",
"533 171 LINE",
"576 0 LINE"
);
},
{
closed = 1;
nodes = (
"525 201 LINE",
"157 201 LINE",
"417 631 LINE"
);
},
{
closed = 1;
nodes = (
"448 746 LINE",
"566 888 LINE",
"528 888 LINE",
"422 746 LINE"
);
}
);
width = 692;
}
);
leftKerningGroup = _A1;
rightKerningGroup = _A;
unicode = 00C1;
},
{
glyphname = Acircumflex;
layers = (
{
layerId = "EA8306D6-B852-442A-A16D-2D86AE16EEA2";
paths = (
{
closed = 1;
nodes = (
"608 0 LINE",
"437 668 LINE",
"405 668 LINE",
"0 0 LINE",
"36 0 LINE",
"139 171 LINE",
"533 171 LINE",
"576 0 LINE"
);
},
{
closed = 1;
nodes = (
"525 201 LINE",
"157 201 LINE",
"417 631 LINE"
);
},
{
closed = 1;
nodes = (
"559 746 LINE",
"478 888 LINE",
"442 888 LINE",
"311 746 LINE",
"346 746 LINE",
"459 867 LINE",
"530 746 LINE"
);
}
);
width = 692;
}
);
leftKerningGroup = _A1;
rightKerningGroup = _A;
unicode = 00C2;
},
{
glyphname = Atilde;
layers = (
{
layerId = "EA8306D6-B852-442A-A16D-2D86AE16EEA2";
paths = (
{
closed = 1;
nodes = (
"608 0 LINE",
"437 668 LINE",
"405 668 LINE",
"0 0 LINE",
"36 0 LINE",
"139 171 LINE",
"533 171 LINE",
"576 0 LINE"
);
},
{
closed = 1;
nodes = (
"525 201 LINE",
"157 201 LINE",
"417 631 LINE"
);
},
{
closed = 1;
nodes = (
"548 766 OFFCURVE",
"578 788 OFFCURVE",
"590 868 CURVE",
"566 868 LINE",
"551 805 OFFCURVE",
"532 792 OFFCURVE",
"508 792 CURVE SMOOTH",
"465 792 OFFCURVE",
"444 868 OFFCURVE",
"386 868 CURVE SMOOTH",
"346 868 OFFCURVE",
"316 846 OFFCURVE",
"304 766 CURVE",
"328 766 LINE",
"341 829 OFFCURVE",
"362 842 OFFCURVE",
"386 842 CURVE SMOOTH",
"428 842 OFFCURVE",
"449 766 OFFCURVE",
"508 766 CURVE SMOOTH"
);
}
);
width = 692;
}
);
leftKerningGroup = _A1;
rightKerningGroup = _A;
unicode = 00C3;
},
{
glyphname = Adieresis;
layers = (
{
layerId = "EA8306D6-B852-442A-A16D-2D86AE16EEA2";
paths = (
{
closed = 1;
nodes = (
"608 0 LINE",
"437 668 LINE",
"405 668 LINE",
"0 0 LINE",
"36 0 LINE",
"139 171 LINE",
"533 171 LINE",
"576 0 LINE"
);
},
{
closed = 1;
nodes = (
"525 201 LINE",
"157 201 LINE",
"417 631 LINE"
);
},
{
closed = 1;
nodes = (
"374 795 OFFCURVE",
"383 803 OFFCURVE",
"383 819 CURVE SMOOTH",
"383 832 OFFCURVE",
"376 839 OFFCURVE",
"361 839 CURVE SMOOTH",
"344 839 OFFCURVE",
"335 831 OFFCURVE",
"335 815 CURVE SMOOTH",
"335 802 OFFCURVE",
"342 795 OFFCURVE",
"357 795 CURVE SMOOTH"
);
},
{
closed = 1;
nodes = (
"552 795 OFFCURVE",
"561 803 OFFCURVE",
"561 819 CURVE SMOOTH",
"561 832 OFFCURVE",
"554 839 OFFCURVE",
"539 839 CURVE SMOOTH",
"522 839 OFFCURVE",
"513 831 OFFCURVE",
"513 815 CURVE SMOOTH",
"513 802 OFFCURVE",
"520 795 OFFCURVE",
"535 795 CURVE SMOOTH"
);
}
);
width = 692;
}
);
leftKerningGroup = _A1;
rightKerningGroup = _A;
unicode = 00C4;
},
{
glyphname = Aring;
layers = (
{
layerId = "EA8306D6-B852-442A-A16D-2D86AE16EEA2";
paths = (
{
closed = 1;
nodes = (
"608 0 LINE",
"437 668 LINE",
"405 668 LINE",
"0 0 LINE",
"36 0 LINE",
"139 171 LINE",
"533 171 LINE",
"576 0 LINE"
);
},
{
closed = 1;
nodes = (
"525 201 LINE",
"157 201 LINE",
"417 631 LINE"
);
},
{
closed = 1;
nodes = (
"510 716 OFFCURVE",
"556 766 OFFCURVE",
"556 831 CURVE SMOOTH",
"556 878 OFFCURVE",
"520 918 OFFCURVE",
"459 918 CURVE SMOOTH",
"384 918 OFFCURVE",
"338 868 OFFCURVE",
"338 803 CURVE SMOOTH",
"338 756 OFFCURVE",
"374 716 OFFCURVE",
"435 716 CURVE SMOOTH"
);
},
{
closed = 1;
nodes = (
"390 742 OFFCURVE",
"368 772 OFFCURVE",
"368 808 CURVE SMOOTH",
"368 856 OFFCURVE",
"405 892 OFFCURVE",
"457 892 CURVE SMOOTH",
"504 892 OFFCURVE",
"526 862 OFFCURVE",
"526 826 CURVE SMOOTH",
"526 778 OFFCURVE",
"489 742 OFFCURVE",
"437 742 CURVE SMOOTH"
);
}
);
width = 692;
}
);
leftKerningGroup = _A1;
rightKerningGroup = _A;
unicode = 00C5;
},
{
glyphname = AE;
layers = (
{
layerId = "EA8306D6-B852-442A-A16D-2D86AE16EEA2";
paths = (
{
closed = 1;
nodes = (
"874 0 LINE",
"879 30 LINE",
"483 30 LINE",
"536 329 LINE",
"902 329 LINE",
"907 359 LINE",
"541 359 LINE",
"590 638 LINE",
"986 638 LINE",
"991 668 LINE",
"557 668 LINE",
"0 0 LINE",
"39 0 LINE",
"181 171 LINE",
"476 171 LINE",
"446 0 LINE"
);
},
{
closed = 1;
nodes = (
"481 201 LINE",
"206 201 LINE",
"556 622 LINE"
);
}
);
width = 978;
}
);
leftKerningGroup = _A1;
unicode = 00C6;
},
{
glyphname = Ccedilla;
layers = (
{
layerId = "EA8306D6-B852-442A-A16D-2D86AE16EEA2";
paths = (
{
closed = 1;
nodes = (
"344 -174 OFFCURVE",
"376 -145 OFFCURVE",
"376 -101 CURVE SMOOTH",
"376 -70 OFFCURVE",
"354 -50 OFFCURVE",
"310 -50 CURVE",
"335 -9 LINE",
"342 -10 OFFCURVE",
"348 -10 OFFCURVE",
"355 -10 CURVE SMOOTH",
"458 -10 OFFCURVE",
"518 14 OFFCURVE",
"582 65 CURVE",
"566 92 LINE",
"508 44 OFFCURVE",
"451 20 OFFCURVE",
"355 20 CURVE SMOOTH",
"210 20 OFFCURVE",
"111 116 OFFCURVE",
"111 272 CURVE SMOOTH",
"111 516 OFFCURVE",
"246 648 OFFCURVE",
"457 648 CURVE SMOOTH",
"542 648 OFFCURVE",
"604 617 OFFCURVE",
"651 576 CURVE",
"673 599 LINE",
"616 648 OFFCURVE",
"541 678 OFFCURVE",
"457 678 CURVE SMOOTH",
"226 678 OFFCURVE",
"77 528 OFFCURVE",
"77 272 CURVE SMOOTH",
"77 117 OFFCURVE",
"172 13 OFFCURVE",
"309 -6 CURVE",
"282 -51 LINE",
"279 -68 LINE",
"303 -68 LINE SMOOTH",
"332 -68 OFFCURVE",
"346 -79 OFFCURVE",
"346 -100 CURVE SMOOTH",
"346 -131 OFFCURVE",
"323 -148 OFFCURVE",
"288 -148 CURVE SMOOTH",
"271 -148 OFFCURVE",
"247 -148 OFFCURVE",
"235 -145 CURVE",
"231 -167 LINE",
"242 -171 OFFCURVE",
"271 -174 OFFCURVE",
"288 -174 CURVE SMOOTH"
);
}
);
width = 672;
}
);
leftKerningGroup = _C1;
rightKerningGroup = _C;
unicode = 00C7;
},
{
glyphname = Egrave;
layers = (
{
layerId = "EA8306D6-B852-442A-A16D-2D86AE16EEA2";
paths = (
{
closed = 1;
nodes = (
"482 0 LINE",
"487 30 LINE",
"91 30 LINE",
"144 329 LINE",
"510 329 LINE",
"515 359 LINE",
"149 359 LINE",
"198 638 LINE",
"594 638 LINE",
"599 668 LINE",
"171 668 LINE",
"54 0 LINE"
);
},
{
closed = 1;
nodes = (
"410 746 LINE",
"354 888 LINE",
"320 888 LINE",
"388 746 LINE"
);
}
);
width = 586;
}
);
unicode = 00C8;
},
{
glyphname = Eacute;
layers = (
{
layerId = "EA8306D6-B852-442A-A16D-2D86AE16EEA2";
paths = (
{
closed = 1;
nodes = (
"482 0 LINE",
"487 30 LINE",
"91 30 LINE",
"144 329 LINE",
"510 329 LINE",
"515 359 LINE",
"149 359 LINE",
"198 638 LINE",
"594 638 LINE",
"599 668 LINE",
"171 668 LINE",
"54 0 LINE"
);
},
{
closed = 1;
nodes = (
"412 746 LINE",
"530 888 LINE",
"492 888 LINE",
"386 746 LINE"
);
}
);
width = 586;
}
);
unicode = 00C9;
},
{
glyphname = Ecircumflex;
layers = (
{
layerId = "EA8306D6-B852-442A-A16D-2D86AE16EEA2";
paths = (
{
closed = 1;
nodes = (
"482 0 LINE",
"487 30 LINE",
"91 30 LINE",
"144 329 LINE",
"510 329 LINE",
"515 359 LINE",
"149 359 LINE",
"198 638 LINE",
"594 638 LINE",
"599 668 LINE",
"171 668 LINE",
"54 0 LINE"
);
},
{
closed = 1;
nodes = (
"523 746 LINE",
"442 888 LINE",
"406 888 LINE",
"275 746 LINE",
"310 746 LINE",
"423 867 LINE",
"494 746 LINE"
);
}
);
width = 586;
}
);
unicode = 00CA;
},
{
glyphname = Edieresis;
layers = (
{
layerId = "EA8306D6-B852-442A-A16D-2D86AE16EEA2";
paths = (
{
closed = 1;
nodes = (
"482 0 LINE",
"487 30 LINE",
"91 30 LINE",
"144 329 LINE",
"510 329 LINE",
"515 359 LINE",
"149 359 LINE",
"198 638 LINE",
"594 638 LINE",
"599 668 LINE",
"171 668 LINE",
"54 0 LINE"
);
},
{
closed = 1;
nodes = (
"338 795 OFFCURVE",
"347 803 OFFCURVE",
"347 819 CURVE SMOOTH",
"347 832 OFFCURVE",
"340 839 OFFCURVE",
"325 839 CURVE SMOOTH",
"308 839 OFFCURVE",
"299 831 OFFCURVE",
"299 815 CURVE SMOOTH",
"299 802 OFFCURVE",
"306 795 OFFCURVE",
"321 795 CURVE SMOOTH"
);
},
{
closed = 1;
nodes = (
"516 795 OFFCURVE",
"525 803 OFFCURVE",
"525 819 CURVE SMOOTH",
"525 832 OFFCURVE",
"518 839 OFFCURVE",
"503 839 CURVE SMOOTH",
"486 839 OFFCURVE",
"477 831 OFFCURVE",
"477 815 CURVE SMOOTH",
"477 802 OFFCURVE",
"484 795 OFFCURVE",
"499 795 CURVE SMOOTH"
);
}
);
width = 586;
}
);
unicode = 00CB;
},
{
glyphname = Igrave;
layers = (
{
layerId = "EA8306D6-B852-442A-A16D-2D86AE16EEA2";
paths = (
{
closed = 1;
nodes = (
"86 0 LINE",
"203 668 LINE",
"171 668 LINE",
"54 0 LINE"
);
},
{
closed = 1;
nodes = (
"212 746 LINE",
"156 888 LINE",
"122 888 LINE",
"190 746 LINE"
);
}
);
width = 224;
}
);
unicode = 00CC;
},
{
glyphname = Iacute;
layers = (
{
layerId = "EA8306D6-B852-442A-A16D-2D86AE16EEA2";
paths = (
{
closed = 1;
nodes = (
"86 0 LINE",
"203 668 LINE",
"171 668 LINE",
"54 0 LINE"
);
},
{
closed = 1;
nodes = (
"214 746 LINE",
"332 888 LINE",
"294 888 LINE",
"188 746 LINE"
);
}
);
width = 224;
}
);
unicode = 00CD;
},
{
glyphname = Icircumflex;
layers = (
{
layerId = "EA8306D6-B852-442A-A16D-2D86AE16EEA2";
paths = (
{
closed = 1;
nodes = (
"86 0 LINE",
"203 668 LINE",
"171 668 LINE",
"54 0 LINE"
);
},
{
closed = 1;
nodes = (
"325 746 LINE",
"244 888 LINE",
"208 888 LINE",
"77 746 LINE",
"112 746 LINE",
"225 867 LINE",
"296 746 LINE"
);
}
);
width = 224;
}
);
unicode = 00CE;
},
{
glyphname = Idieresis;
layers = (
{
layerId = "EA8306D6-B852-442A-A16D-2D86AE16EEA2";
paths = (
{
closed = 1;
nodes = (
"86 0 LINE",
"203 668 LINE",
"171 668 LINE",
"54 0 LINE"
);
},
{
closed = 1;
nodes = (
"140 795 OFFCURVE",
"149 803 OFFCURVE",
"149 819 CURVE SMOOTH",
"149 832 OFFCURVE",
"142 839 OFFCURVE",
"127 839 CURVE SMOOTH",
"110 839 OFFCURVE",
"101 831 OFFCURVE",
"101 815 CURVE SMOOTH",
"101 802 OFFCURVE",
"108 795 OFFCURVE",
"123 795 CURVE SMOOTH"
);
},
{
closed = 1;
nodes = (
"318 795 OFFCURVE",
"327 803 OFFCURVE",
"327 819 CURVE SMOOTH",
"327 832 OFFCURVE",
"320 839 OFFCURVE",
"305 839 CURVE SMOOTH",
"288 839 OFFCURVE",
"279 831 OFFCURVE",
"279 815 CURVE SMOOTH",
"279 802 OFFCURVE",
"286 795 OFFCURVE",
"301 795 CURVE SMOOTH"
);
}
);
width = 224;
}
);
unicode = 00CF;
},
{
glyphname = Eth;
layers = (
{
layerId = "EA8306D6-B852-442A-A16D-2D86AE16EEA2";
paths = (
{
closed = 1;
nodes = (
"665 579 OFFCURVE",
"563 668 OFFCURVE",
"375 668 CURVE SMOOTH",
"171 668 LINE",
"117 359 LINE",
"31 359 LINE",
"26 329 LINE",
"111 329 LINE",
"54 0 LINE",
"277 0 LINE SMOOTH",
"525 0 OFFCURVE",
"665 139 OFFCURVE",
"665 396 CURVE SMOOTH"
);
},
{
closed = 1;
nodes = (
"631 152 OFFCURVE",
"507 30 OFFCURVE",
"268 30 CURVE SMOOTH",
"91 30 LINE",
"143 329 LINE",
"368 329 LINE",
"373 359 LINE",
"149 359 LINE",
"198 638 LINE",
"365 638 LINE SMOOTH",
"540 638 OFFCURVE",
"631 571 OFFCURVE",
"631 396 CURVE SMOOTH"
);
}
);
width = 710;
}
);
rightKerningGroup = _D;
unicode = 00D0;
},
{
glyphname = Ntilde;
layers = (
{
layerId = "EA8306D6-B852-442A-A16D-2D86AE16EEA2";
paths = (
{
closed = 1;
nodes = (
"582 0 LINE",
"699 668 LINE",
"667 668 LINE",
"556 36 LINE",
"211 668 LINE",
"171 668 LINE",
"54 0 LINE",
"86 0 LINE",
"197 632 LINE",
"542 0 LINE"
);
},
{
closed = 1;
nodes = (
"562 766 OFFCURVE",
"592 788 OFFCURVE",
"604 868 CURVE",
"580 868 LINE",
"565 805 OFFCURVE",
"546 792 OFFCURVE",
"522 792 CURVE SMOOTH",
"479 792 OFFCURVE",
"458 868 OFFCURVE",
"400 868 CURVE SMOOTH",
"360 868 OFFCURVE",
"330 846 OFFCURVE",
"318 766 CURVE",
"342 766 LINE",
"355 829 OFFCURVE",
"376 842 OFFCURVE",
"400 842 CURVE SMOOTH",
"442 842 OFFCURVE",
"463 766 OFFCURVE",
"522 766 CURVE SMOOTH"
);
}
);
width = 720;
}
);
unicode = 00D1;
},
{
glyphname = Ograve;
layers = (
{
layerId = "EA8306D6-B852-442A-A16D-2D86AE16EEA2";
paths = (
{
closed = 1;
nodes = (
"575 -10 OFFCURVE",
"735 146 OFFCURVE",
"735 396 CURVE SMOOTH",
"735 568 OFFCURVE",
"617 678 OFFCURVE",
"457 678 CURVE SMOOTH",
"237 678 OFFCURVE",
"77 522 OFFCURVE",
"77 272 CURVE SMOOTH",
"77 100 OFFCURVE",
"195 -10 OFFCURVE",
"355 -10 CURVE SMOOTH"
);
},
{
closed = 1;
nodes = (
"210 20 OFFCURVE",
"111 116 OFFCURVE",
"111 272 CURVE SMOOTH",
"111 508 OFFCURVE",
"257 648 OFFCURVE",
"457 648 CURVE SMOOTH",
"602 648 OFFCURVE",
"701 552 OFFCURVE",
"701 396 CURVE SMOOTH",
"701 160 OFFCURVE",
"555 20 OFFCURVE",
"355 20 CURVE SMOOTH"
);
},
{
closed = 1;
nodes = (
"490 746 LINE",
"434 888 LINE",
"400 888 LINE",
"468 746 LINE"
);
}
);
width = 780;
}
);
leftKerningGroup = _C1;
rightKerningGroup = _D;
unicode = 00D2;
},
{
glyphname = Oacute;
layers = (
{
layerId = "EA8306D6-B852-442A-A16D-2D86AE16EEA2";
paths = (
{
closed = 1;
nodes = (
"575 -10 OFFCURVE",
"735 146 OFFCURVE",
"735 396 CURVE SMOOTH",
"735 568 OFFCURVE",
"617 678 OFFCURVE",
"457 678 CURVE SMOOTH",
"237 678 OFFCURVE",
"77 522 OFFCURVE",
"77 272 CURVE SMOOTH",
"77 100 OFFCURVE",
"195 -10 OFFCURVE",
"355 -10 CURVE SMOOTH"
);
},
{
closed = 1;
nodes = (
"210 20 OFFCURVE",
"111 116 OFFCURVE",
"111 272 CURVE SMOOTH",
"111 508 OFFCURVE",
"257 648 OFFCURVE",
"457 648 CURVE SMOOTH",
"602 648 OFFCURVE",
"701 552 OFFCURVE",
"701 396 CURVE SMOOTH",
"701 160 OFFCURVE",
"555 20 OFFCURVE",
"355 20 CURVE SMOOTH"
);
},
{
closed = 1;
nodes = (
"492 746 LINE",
"610 888 LINE",
"572 888 LINE",
"466 746 LINE"
);
}
);
width = 780;
}
);
leftKerningGroup = _C1;
rightKerningGroup = _D;
unicode = 00D3;
},
{
glyphname = Ocircumflex;
layers = (
{
layerId = "EA8306D6-B852-442A-A16D-2D86AE16EEA2";
paths = (
{
closed = 1;
nodes = (
"575 -10 OFFCURVE",
"735 146 OFFCURVE",
"735 396 CURVE SMOOTH",
"735 568 OFFCURVE",
"617 678 OFFCURVE",
"457 678 CURVE SMOOTH",
"237 678 OFFCURVE",
"77 522 OFFCURVE",
"77 272 CURVE SMOOTH",
"77 100 OFFCURVE",
"195 -10 OFFCURVE",
"355 -10 CURVE SMOOTH"
);
},
{
closed = 1;
nodes = (
"210 20 OFFCURVE",
"111 116 OFFCURVE",
"111 272 CURVE SMOOTH",
"111 508 OFFCURVE",
"257 648 OFFCURVE",
"457 648 CURVE SMOOTH",
"602 648 OFFCURVE",
"701 552 OFFCURVE",
"701 396 CURVE SMOOTH",
"701 160 OFFCURVE",
"555 20 OFFCURVE",
"355 20 CURVE SMOOTH"
);
},
{
closed = 1;
nodes = (
"603 746 LINE",
"522 888 LINE",
"486 888 LINE",
"355 746 LINE",
"390 746 LINE",
"503 867 LINE",
"574 746 LINE"
);
}
);
width = 780;
}
);
leftKerningGroup = _C1;
rightKerningGroup = _D;
unicode = 00D4;
},
{
glyphname = Otilde;
layers = (
{
layerId = "EA8306D6-B852-442A-A16D-2D86AE16EEA2";
paths = (
{
closed = 1;
nodes = (
"575 -10 OFFCURVE",
"735 146 OFFCURVE",
"735 396 CURVE SMOOTH",
"735 568 OFFCURVE",
"617 678 OFFCURVE",
"457 678 CURVE SMOOTH",
"237 678 OFFCURVE",
"77 522 OFFCURVE",
"77 272 CURVE SMOOTH",
"77 100 OFFCURVE",
"195 -10 OFFCURVE",
"355 -10 CURVE SMOOTH"
);
},
{
closed = 1;
nodes = (
"210 20 OFFCURVE",
"111 116 OFFCURVE",
"111 272 CURVE SMOOTH",
"111 508 OFFCURVE",
"257 648 OFFCURVE",
"457 648 CURVE SMOOTH",
"602 648 OFFCURVE",
"701 552 OFFCURVE",
"701 396 CURVE SMOOTH",
"701 160 OFFCURVE",
"555 20 OFFCURVE",
"355 20 CURVE SMOOTH"
);
},
{
closed = 1;
nodes = (
"592 766 OFFCURVE",
"622 788 OFFCURVE",
"634 868 CURVE",
"610 868 LINE",
"595 805 OFFCURVE",
"576 792 OFFCURVE",
"552 792 CURVE SMOOTH",
"509 792 OFFCURVE",
"488 868 OFFCURVE",
"430 868 CURVE SMOOTH",
"390 868 OFFCURVE",
"360 846 OFFCURVE",
"348 766 CURVE",
"372 766 LINE",
"385 829 OFFCURVE",
"406 842 OFFCURVE",
"430 842 CURVE SMOOTH",
"472 842 OFFCURVE",
"493 766 OFFCURVE",
"552 766 CURVE SMOOTH"
);
}
);
width = 780;
}
);
leftKerningGroup = _C1;
rightKerningGroup = _D;
unicode = 00D5;
},
{
glyphname = Odieresis;
layers = (
{
layerId = "EA8306D6-B852-442A-A16D-2D86AE16EEA2";
paths = (
{
closed = 1;
nodes = (
"575 -10 OFFCURVE",
"735 146 OFFCURVE",
"735 396 CURVE SMOOTH",
"735 568 OFFCURVE",
"617 678 OFFCURVE",
"457 678 CURVE SMOOTH",
"237 678 OFFCURVE",
"77 522 OFFCURVE",
"77 272 CURVE SMOOTH",
"77 100 OFFCURVE",
"195 -10 OFFCURVE",
"355 -10 CURVE SMOOTH"
);
},
{
closed = 1;
nodes = (
"210 20 OFFCURVE",
"111 116 OFFCURVE",
"111 272 CURVE SMOOTH",
"111 508 OFFCURVE",
"257 648 OFFCURVE",
"457 648 CURVE SMOOTH",
"602 648 OFFCURVE",
"701 552 OFFCURVE",
"701 396 CURVE SMOOTH",
"701 160 OFFCURVE",
"555 20 OFFCURVE",
"355 20 CURVE SMOOTH"
);
},
{
closed = 1;
nodes = (
"418 795 OFFCURVE",
"427 803 OFFCURVE",
"427 819 CURVE SMOOTH",
"427 832 OFFCURVE",
"420 839 OFFCURVE",
"405 839 CURVE SMOOTH",
"388 839 OFFCURVE",
"379 831 OFFCURVE",
"379 815 CURVE SMOOTH",
"379 802 OFFCURVE",
"386 795 OFFCURVE",
"401 795 CURVE SMOOTH"
);
},
{
closed = 1;
nodes = (
"596 795 OFFCURVE",
"605 803 OFFCURVE",
"605 819 CURVE SMOOTH",
"605 832 OFFCURVE",
"598 839 OFFCURVE",
"583 839 CURVE SMOOTH",
"566 839 OFFCURVE",
"557 831 OFFCURVE",
"557 815 CURVE SMOOTH",
"557 802 OFFCURVE",
"564 795 OFFCURVE",
"579 795 CURVE SMOOTH"
);
}
);
width = 780;
}
);
leftKerningGroup = _C1;
rightKerningGroup = _D;
unicode = 00D6;
},
{
glyphname = multiply;
layers = (
{
layerId = "EA8306D6-B852-442A-A16D-2D86AE16EEA2";
paths = (
{
closed = 1;
nodes = (
"100 139 LINE",
"303 311 LINE",
"446 139 LINE",
"472 161 LINE",
"330 334 LINE",
"533 507 LINE",
"515 529 LINE",
"311 357 LINE",
"169 529 LINE",
"143 507 LINE",
"284 334 LINE",
"82 161 LINE"
);
}
);
width = 582;
}
);
unicode = 00D7;
},
{
glyphname = Oslash;
layers = (
{
layerId = "EA8306D6-B852-442A-A16D-2D86AE16EEA2";
paths = (
{
closed = 1;
nodes = (
"44 -10 LINE",
"143 79 LINE",
"194 22 OFFCURVE",
"267 -10 OFFCURVE",
"355 -10 CURVE SMOOTH",
"575 -10 OFFCURVE",
"735 146 OFFCURVE",
"735 396 CURVE SMOOTH",
"735 464 OFFCURVE",
"717 521 OFFCURVE",
"686 566 CURVE",
"788 658 LINE",
"769 678 LINE",
"668 588 LINE",
"617 645 OFFCURVE",
"545 678 OFFCURVE",
"457 678 CURVE SMOOTH",
"237 678 OFFCURVE",
"77 522 OFFCURVE",
"77 272 CURVE SMOOTH",
"77 204 OFFCURVE",
"95 146 OFFCURVE",
"126 101 CURVE",
"25 10 LINE"
);
},
{
closed = 1;
nodes = (
"111 508 OFFCURVE",
"257 648 OFFCURVE",
"457 648 CURVE SMOOTH",
"537 648 OFFCURVE",
"602 619 OFFCURVE",
"645 567 CURVE",
"150 122 LINE",
"124 163 OFFCURVE",
"111 213 OFFCURVE",
"111 272 CURVE SMOOTH"
);
},
{
closed = 1;
nodes = (
"275 20 OFFCURVE",
"209 48 OFFCURVE",
"166 100 CURVE",
"662 545 LINE",
"688 504 OFFCURVE",
"701 454 OFFCURVE",
"701 396 CURVE SMOOTH",
"701 160 OFFCURVE",
"555 20 OFFCURVE",
"355 20 CURVE SMOOTH"
);
}
);
width = 780;
}
);
leftKerningGroup = _C1;
rightKerningGroup = _D;
unicode = 00D8;
},
{
glyphname = Ugrave;
layers = (
{
layerId = "EA8306D6-B852-442A-A16D-2D86AE16EEA2";
paths = (
{
closed = 1;
nodes = (
"489 -10 OFFCURVE",
"592 66 OFFCURVE",
"627 258 CURVE",
"699 668 LINE",
"667 668 LINE",
"595 258 LINE SMOOTH",
"563 79 OFFCURVE",
"465 20 OFFCURVE",
"325 20 CURVE SMOOTH",
"186 20 OFFCURVE",
"129 102 OFFCURVE",
"129 210 CURVE SMOOTH",
"129 231 OFFCURVE",
"131 254 OFFCURVE",
"135 278 CURVE SMOOTH",
"203 668 LINE",
"171 668 LINE",
"103 278 LINE SMOOTH",
"99 254 OFFCURVE",
"97 231 OFFCURVE",
"97 210 CURVE SMOOTH",
"97 73 OFFCURVE",
"178 -10 OFFCURVE",
"325 -10 CURVE SMOOTH"
);
},
{
closed = 1;
nodes = (
"460 746 LINE",
"404 888 LINE",
"370 888 LINE",
"438 746 LINE"
);
}
);
width = 720;
}
);
leftKerningGroup = _U;
rightKerningGroup = _U;
unicode = 00D9;
},
{
glyphname = Uacute;
layers = (
{
layerId = "EA8306D6-B852-442A-A16D-2D86AE16EEA2";
paths = (
{
closed = 1;
nodes = (
"489 -10 OFFCURVE",
"592 66 OFFCURVE",
"627 258 CURVE",
"699 668 LINE",
"667 668 LINE",
"595 258 LINE SMOOTH",
"563 79 OFFCURVE",
"465 20 OFFCURVE",
"325 20 CURVE SMOOTH",
"186 20 OFFCURVE",
"129 102 OFFCURVE",
"129 210 CURVE SMOOTH",
"129 231 OFFCURVE",
"131 254 OFFCURVE",
"135 278 CURVE SMOOTH",
"203 668 LINE",
"171 668 LINE",
"103 278 LINE SMOOTH",
"99 254 OFFCURVE",
"97 231 OFFCURVE",
"97 210 CURVE SMOOTH",
"97 73 OFFCURVE",
"178 -10 OFFCURVE",
"325 -10 CURVE SMOOTH"
);
},
{
closed = 1;
nodes = (
"462 746 LINE",
"580 888 LINE",
"542 888 LINE",
"436 746 LINE"
);
}
);
width = 720;
}
);
leftKerningGroup = _U;
rightKerningGroup = _U;
unicode = 00DA;
},
{
glyphname = Ucircumflex;
layers = (
{
layerId = "EA8306D6-B852-442A-A16D-2D86AE16EEA2";
paths = (
{
closed = 1;
nodes = (
"489 -10 OFFCURVE",
"592 66 OFFCURVE",
"627 258 CURVE",
"699 668 LINE",
"667 668 LINE",
"595 258 LINE SMOOTH",
"563 79 OFFCURVE",
"465 20 OFFCURVE",
"325 20 CURVE SMOOTH",
"186 20 OFFCURVE",
"129 102 OFFCURVE",
"129 210 CURVE SMOOTH",
"129 231 OFFCURVE",
"131 254 OFFCURVE",
"135 278 CURVE SMOOTH",
"203 668 LINE",
"171 668 LINE",
"103 278 LINE SMOOTH",
"99 254 OFFCURVE",
"97 231 OFFCURVE",
"97 210 CURVE SMOOTH",
"97 73 OFFCURVE",
"178 -10 OFFCURVE",
"325 -10 CURVE SMOOTH"
);
},
{
closed = 1;
nodes = (
"573 746 LINE",
"492 888 LINE",
"456 888 LINE",
"325 746 LINE",
"360 746 LINE",
"473 867 LINE",
"544 746 LINE"
);
}
);
width = 720;
}
);
leftKerningGroup = _U;
rightKerningGroup = _U;
unicode = 00DB;
},
{
glyphname = Udieresis;
layers = (
{
layerId = "EA8306D6-B852-442A-A16D-2D86AE16EEA2";
paths = (
{
closed = 1;
nodes = (
"489 -10 OFFCURVE",
"592 66 OFFCURVE",
"627 258 CURVE",
"699 668 LINE",
"667 668 LINE",
"595 258 LINE SMOOTH",
"563 79 OFFCURVE",
"465 20 OFFCURVE",
"325 20 CURVE SMOOTH",
"186 20 OFFCURVE",
"129 102 OFFCURVE",
"129 210 CURVE SMOOTH",
"129 231 OFFCURVE",
"131 254 OFFCURVE",
"135 278 CURVE SMOOTH",
"203 668 LINE",
"171 668 LINE",
"103 278 LINE SMOOTH",
"99 254 OFFCURVE",
"97 231 OFFCURVE",
"97 210 CURVE SMOOTH",
"97 73 OFFCURVE",
"178 -10 OFFCURVE",
"325 -10 CURVE SMOOTH"
);
},
{
closed = 1;
nodes = (
"388 795 OFFCURVE",
"397 803 OFFCURVE",
"397 819 CURVE SMOOTH",
"397 832 OFFCURVE",
"390 839 OFFCURVE",
"375 839 CURVE SMOOTH",
"358 839 OFFCURVE",
"349 831 OFFCURVE",
"349 815 CURVE SMOOTH",
"349 802 OFFCURVE",
"356 795 OFFCURVE",
"371 795 CURVE SMOOTH"
);
},
{
closed = 1;
nodes = (
"566 795 OFFCURVE",
"575 803 OFFCURVE",
"575 819 CURVE SMOOTH",
"575 832 OFFCURVE",
"568 839 OFFCURVE",
"553 839 CURVE SMOOTH",
"536 839 OFFCURVE",
"527 831 OFFCURVE",
"527 815 CURVE SMOOTH",
"527 802 OFFCURVE",
"534 795 OFFCURVE",
"549 795 CURVE SMOOTH"
);
}
);
width = 720;
}
);
leftKerningGroup = _U;
rightKerningGroup = _U;
unicode = 00DC;
},
{
glyphname = Yacute;
layers = (
{
layerId = "EA8306D6-B852-442A-A16D-2D86AE16EEA2";
paths = (
{
closed = 1;
nodes = (
"310 0 LINE",
"357 267 LINE",
"705 668 LINE",
"665 668 LINE",
"343 294 LINE",
"153 668 LINE",
"117 668 LINE",
"325 267 LINE",
"278 0 LINE"
);
},
{
closed = 1;
nodes = (
"438 746 LINE",
"556 888 LINE",
"518 888 LINE",
"412 746 LINE"
);
}
);
width = 672;
}
);
leftKerningGroup = _Y;
rightKerningGroup = _Y;
unicode = 00DD;
},
{
glyphname = Thorn;
layers = (
{
layerId = "EA8306D6-B852-442A-A16D-2D86AE16EEA2";
paths = (
{
closed = 1;
nodes = (
"587 482 OFFCURVE",
"511 561 OFFCURVE",
"378 561 CURVE SMOOTH",
"184 561 LINE",
"203 668 LINE",
"171 668 LINE",
"54 0 LINE",
"86 0 LINE",
"104 107 LINE",
"318 107 LINE SMOOTH",
"474 107 OFFCURVE",
"587 192 OFFCURVE",
"587 371 CURVE SMOOTH"
);
},
{
closed = 1;
nodes = (
"553 205 OFFCURVE",
"449 137 OFFCURVE",
"308 137 CURVE SMOOTH",
"110 137 LINE",
"179 531 LINE",
"368 531 LINE SMOOTH",
"495 531 OFFCURVE",
"553 464 OFFCURVE",
"553 371 CURVE SMOOTH"
);
}
);
width = 632;
}
);
rightKerningGroup = _D;
unicode = 00DE;
},
{
glyphname = germandbls;
layers = (
{
layerId = "EA8306D6-B852-442A-A16D-2D86AE16EEA2";
paths = (
{
closed = 1;
nodes = (
"466 -10 OFFCURVE",
"539 89 OFFCURVE",
"539 220 CURVE SMOOTH",
"539 293 OFFCURVE",
"494 338 OFFCURVE",
"403 353 CURVE",
"491 374 OFFCURVE",
"553 430 OFFCURVE",
"553 523 CURVE SMOOTH",
"553 612 OFFCURVE",
"478 678 OFFCURVE",
"366 678 CURVE SMOOTH",
"239 678 OFFCURVE",
"159 595 OFFCURVE",
"132 444 CURVE SMOOTH",
"54 0 LINE",
"84 0 LINE",
"162 444 LINE SMOOTH",
"186 580 OFFCURVE",
"258 650 OFFCURVE",
"366 650 CURVE SMOOTH",
"462 650 OFFCURVE",
"521 599 OFFCURVE",
"521 523 CURVE SMOOTH",
"521 419 OFFCURVE",
"433 366 OFFCURVE",
"321 366 CURVE",
"316 338 LINE",
"437 338 OFFCURVE",
"507 307 OFFCURVE",
"507 220 CURVE SMOOTH",
"507 85 OFFCURVE",
"437 18 OFFCURVE",
"337 18 CURVE SMOOTH",
"312 18 OFFCURVE",
"276 24 OFFCURVE",
"261 28 CURVE",
"257 0 LINE",
"272 -4 OFFCURVE",
"312 -10 OFFCURVE",
"337 -10 CURVE SMOOTH"
);
}
);
width = 610;
}
);
unicode = 00DF;
},
{
glyphname = agrave;
layers = (
{
layerId = "EA8306D6-B852-442A-A16D-2D86AE16EEA2";
paths = (
{
closed = 1;
nodes = (
"304 -10 OFFCURVE",
"372 27 OFFCURVE",
"407 86 CURVE",
"392 0 LINE",
"422 0 LINE",
"472 286 LINE",
"475 298 OFFCURVE",
"476 316 OFFCURVE",
"476 329 CURVE SMOOTH",
"476 428 OFFCURVE",
"409 480 OFFCURVE",
"297 480 CURVE SMOOTH",
"237 480 OFFCURVE",
"178 455 OFFCURVE",
"129 412 CURVE",
"144 387 LINE",
"197 430 OFFCURVE",
"248 452 OFFCURVE",
"297 452 CURVE SMOOTH",
"401 452 OFFCURVE",
"446 410 OFFCURVE",
"446 331 CURVE SMOOTH",
"446 316 OFFCURVE",
"445 301 OFFCURVE",
"442 288 CURVE",
"250 264 LINE SMOOTH",
"103 245 OFFCURVE",
"46 203 OFFCURVE",
"46 120 CURVE SMOOTH",
"46 37 OFFCURVE",
"114 -10 OFFCURVE",
"211 -10 CURVE SMOOTH"
);
},
{
closed = 1;
nodes = (
"131 18 OFFCURVE",
"76 53 OFFCURVE",
"76 120 CURVE SMOOTH",
"76 187 OFFCURVE",
"119 220 OFFCURVE",
"245 236 CURVE SMOOTH",
"437 260 LINE",
"425 192 LINE",
"406 93 OFFCURVE",
"337 18 OFFCURVE",
"211 18 CURVE SMOOTH"
);
},
{
closed = 1;
nodes = (
"347 554 LINE",
"291 696 LINE",
"257 696 LINE",
"325 554 LINE"
);
}
);
width = 560;
}
);
leftKerningGroup = _a1;
rightKerningGroup = _a;
unicode = 00E0;
},
{
glyphname = aacute;
layers = (
{
layerId = "EA8306D6-B852-442A-A16D-2D86AE16EEA2";
paths = (
{
closed = 1;
nodes = (
"304 -10 OFFCURVE",
"372 27 OFFCURVE",
"407 86 CURVE",
"392 0 LINE",
"422 0 LINE",
"472 286 LINE",
"475 298 OFFCURVE",
"476 316 OFFCURVE",
"476 329 CURVE SMOOTH",
"476 428 OFFCURVE",
"409 480 OFFCURVE",
"297 480 CURVE SMOOTH",
"237 480 OFFCURVE",
"178 455 OFFCURVE",
"129 412 CURVE",
"144 387 LINE",
"197 430 OFFCURVE",
"248 452 OFFCURVE",
"297 452 CURVE SMOOTH",
"401 452 OFFCURVE",
"446 410 OFFCURVE",
"446 331 CURVE SMOOTH",
"446 316 OFFCURVE",
"445 301 OFFCURVE",
"442 288 CURVE",
"250 264 LINE SMOOTH",
"103 245 OFFCURVE",
"46 203 OFFCURVE",
"46 120 CURVE SMOOTH",
"46 37 OFFCURVE",
"114 -10 OFFCURVE",
"211 -10 CURVE SMOOTH"
);
},
{
closed = 1;
nodes = (
"131 18 OFFCURVE",
"76 53 OFFCURVE",
"76 120 CURVE SMOOTH",
"76 187 OFFCURVE",
"119 220 OFFCURVE",
"245 236 CURVE SMOOTH",
"437 260 LINE",
"425 192 LINE",
"406 93 OFFCURVE",
"337 18 OFFCURVE",
"211 18 CURVE SMOOTH"
);
},
{
closed = 1;
nodes = (
"349 554 LINE",
"467 696 LINE",
"429 696 LINE",
"323 554 LINE"
);
}
);
width = 560;
}
);
leftKerningGroup = _a1;
rightKerningGroup = _a;
unicode = 00E1;
},
{
glyphname = acircumflex;
layers = (
{
layerId = "EA8306D6-B852-442A-A16D-2D86AE16EEA2";
paths = (
{
closed = 1;
nodes = (
"304 -10 OFFCURVE",
"372 27 OFFCURVE",
"407 86 CURVE",
"392 0 LINE",
"422 0 LINE",
"472 286 LINE",
"475 298 OFFCURVE",
"476 316 OFFCURVE",
"476 329 CURVE SMOOTH",
"476 428 OFFCURVE",
"409 480 OFFCURVE",
"297 480 CURVE SMOOTH",
"237 480 OFFCURVE",
"178 455 OFFCURVE",
"129 412 CURVE",
"144 387 LINE",
"197 430 OFFCURVE",
"248 452 OFFCURVE",
"297 452 CURVE SMOOTH",
"401 452 OFFCURVE",
"446 410 OFFCURVE",
"446 331 CURVE SMOOTH",
"446 316 OFFCURVE",
"445 301 OFFCURVE",
"442 288 CURVE",
"250 264 LINE SMOOTH",
"103 245 OFFCURVE",
"46 203 OFFCURVE",
"46 120 CURVE SMOOTH",
"46 37 OFFCURVE",
"114 -10 OFFCURVE",
"211 -10 CURVE SMOOTH"
);
},
{
closed = 1;
nodes = (
"131 18 OFFCURVE",
"76 53 OFFCURVE",
"76 120 CURVE SMOOTH",
"76 187 OFFCURVE",
"119 220 OFFCURVE",
"245 236 CURVE SMOOTH",
"437 260 LINE",
"425 192 LINE",
"406 93 OFFCURVE",
"337 18 OFFCURVE",
"211 18 CURVE SMOOTH"
);
},
{
closed = 1;
nodes = (
"460 554 LINE",
"379 696 LINE",
"343 696 LINE",
"212 554 LINE",
"247 554 LINE",
"360 675 LINE",
"431 554 LINE"
);
}
);
width = 560;
}
);
leftKerningGroup = _a1;
rightKerningGroup = _a;
unicode = 00E2;
},
{
glyphname = atilde;
layers = (
{
layerId = "EA8306D6-B852-442A-A16D-2D86AE16EEA2";
paths = (
{
closed = 1;
nodes = (
"304 -10 OFFCURVE",
"372 27 OFFCURVE",
"407 86 CURVE",
"392 0 LINE",
"422 0 LINE",
"472 286 LINE",
"475 298 OFFCURVE",
"476 316 OFFCURVE",
"476 329 CURVE SMOOTH",
"476 428 OFFCURVE",
"409 480 OFFCURVE",
"297 480 CURVE SMOOTH",
"237 480 OFFCURVE",
"178 455 OFFCURVE",
"129 412 CURVE",
"144 387 LINE",
"197 430 OFFCURVE",
"248 452 OFFCURVE",
"297 452 CURVE SMOOTH",
"401 452 OFFCURVE",
"446 410 OFFCURVE",
"446 331 CURVE SMOOTH",
"446 316 OFFCURVE",
"445 301 OFFCURVE",
"442 288 CURVE",
"250 264 LINE SMOOTH",
"103 245 OFFCURVE",
"46 203 OFFCURVE",
"46 120 CURVE SMOOTH",
"46 37 OFFCURVE",
"114 -10 OFFCURVE",
"211 -10 CURVE SMOOTH"
);
},
{
closed = 1;
nodes = (
"131 18 OFFCURVE",
"76 53 OFFCURVE",
"76 120 CURVE SMOOTH",
"76 187 OFFCURVE",
"119 220 OFFCURVE",
"245 236 CURVE SMOOTH",
"437 260 LINE",
"425 192 LINE",
"406 93 OFFCURVE",
"337 18 OFFCURVE",
"211 18 CURVE SMOOTH"
);
},
{
closed = 1;
nodes = (
"449 574 OFFCURVE",
"479 596 OFFCURVE",
"491 676 CURVE",
"467 676 LINE",
"452 613 OFFCURVE",
"433 600 OFFCURVE",
"409 600 CURVE SMOOTH",
"366 600 OFFCURVE",
"345 676 OFFCURVE",
"287 676 CURVE SMOOTH",
"247 676 OFFCURVE",
"217 654 OFFCURVE",
"205 574 CURVE",
"229 574 LINE",
"242 637 OFFCURVE",
"263 650 OFFCURVE",
"287 650 CURVE SMOOTH",
"329 650 OFFCURVE",
"350 574 OFFCURVE",
"409 574 CURVE SMOOTH"
);
}
);
width = 560;
}
);
leftKerningGroup = _a1;
rightKerningGroup = _a;
unicode = 00E3;
},
{
glyphname = adieresis;
layers = (
{
layerId = "EA8306D6-B852-442A-A16D-2D86AE16EEA2";
paths = (
{
closed = 1;
nodes = (
"304 -10 OFFCURVE",
"372 27 OFFCURVE",
"407 86 CURVE",
"392 0 LINE",
"422 0 LINE",
"472 286 LINE",
"475 298 OFFCURVE",
"476 316 OFFCURVE",
"476 329 CURVE SMOOTH",
"476 428 OFFCURVE",
"409 480 OFFCURVE",
"297 480 CURVE SMOOTH",
"237 480 OFFCURVE",
"178 455 OFFCURVE",
"129 412 CURVE",
"144 387 LINE",
"197 430 OFFCURVE",
"248 452 OFFCURVE",
"297 452 CURVE SMOOTH",
"401 452 OFFCURVE",
"446 410 OFFCURVE",
"446 331 CURVE SMOOTH",
"446 316 OFFCURVE",
"445 301 OFFCURVE",
"442 288 CURVE",
"250 264 LINE SMOOTH",
"103 245 OFFCURVE",
"46 203 OFFCURVE",
"46 120 CURVE SMOOTH",
"46 37 OFFCURVE",
"114 -10 OFFCURVE",
"211 -10 CURVE SMOOTH"
);
},
{
closed = 1;
nodes = (
"131 18 OFFCURVE",
"76 53 OFFCURVE",
"76 120 CURVE SMOOTH",
"76 187 OFFCURVE",
"119 220 OFFCURVE",
"245 236 CURVE SMOOTH",
"437 260 LINE",
"425 192 LINE",
"406 93 OFFCURVE",
"337 18 OFFCURVE",
"211 18 CURVE SMOOTH"
);
},
{
closed = 1;
nodes = (
"275 603 OFFCURVE",
"284 611 OFFCURVE",
"284 627 CURVE SMOOTH",
"284 640 OFFCURVE",
"277 647 OFFCURVE",
"262 647 CURVE SMOOTH",
"245 647 OFFCURVE",
"236 639 OFFCURVE",
"236 623 CURVE SMOOTH",
"236 610 OFFCURVE",
"243 603 OFFCURVE",
"258 603 CURVE SMOOTH"
);
},
{
closed = 1;
nodes = (
"453 603 OFFCURVE",
"462 611 OFFCURVE",
"462 627 CURVE SMOOTH",
"462 640 OFFCURVE",
"455 647 OFFCURVE",
"440 647 CURVE SMOOTH",
"423 647 OFFCURVE",
"414 639 OFFCURVE",
"414 623 CURVE SMOOTH",
"414 610 OFFCURVE",
"421 603 OFFCURVE",
"436 603 CURVE SMOOTH"
);
}
);
width = 560;
}
);
leftKerningGroup = _a1;
rightKerningGroup = _a;
unicode = 00E4;
},
{
glyphname = aring;
layers = (
{
layerId = "EA8306D6-B852-442A-A16D-2D86AE16EEA2";
paths = (
{
closed = 1;
nodes = (
"304 -10 OFFCURVE",
"372 27 OFFCURVE",
"407 86 CURVE",
"392 0 LINE",
"422 0 LINE",
"472 286 LINE",
"475 298 OFFCURVE",
"476 316 OFFCURVE",
"476 329 CURVE SMOOTH",
"476 428 OFFCURVE",
"409 480 OFFCURVE",
"297 480 CURVE SMOOTH",
"237 480 OFFCURVE",
"178 455 OFFCURVE",
"129 412 CURVE",
"144 387 LINE",
"197 430 OFFCURVE",
"248 452 OFFCURVE",
"297 452 CURVE SMOOTH",
"401 452 OFFCURVE",
"446 410 OFFCURVE",
"446 331 CURVE SMOOTH",
"446 316 OFFCURVE",
"445 301 OFFCURVE",
"442 288 CURVE",
"250 264 LINE SMOOTH",
"103 245 OFFCURVE",
"46 203 OFFCURVE",
"46 120 CURVE SMOOTH",
"46 37 OFFCURVE",
"114 -10 OFFCURVE",
"211 -10 CURVE SMOOTH"
);
},
{
closed = 1;
nodes = (
"131 18 OFFCURVE",
"76 53 OFFCURVE",
"76 120 CURVE SMOOTH",
"76 187 OFFCURVE",
"119 220 OFFCURVE",
"245 236 CURVE SMOOTH",
"437 260 LINE",
"425 192 LINE",
"406 93 OFFCURVE",
"337 18 OFFCURVE",
"211 18 CURVE SMOOTH"
);
},
{
closed = 1;
nodes = (
"411 524 OFFCURVE",
"457 574 OFFCURVE",
"457 639 CURVE SMOOTH",
"457 686 OFFCURVE",
"421 726 OFFCURVE",
"360 726 CURVE SMOOTH",
"285 726 OFFCURVE",
"239 676 OFFCURVE",
"239 611 CURVE SMOOTH",
"239 564 OFFCURVE",
"275 524 OFFCURVE",
"336 524 CURVE SMOOTH"
);
},
{
closed = 1;
nodes = (
"291 550 OFFCURVE",
"269 580 OFFCURVE",
"269 616 CURVE SMOOTH",
"269 664 OFFCURVE",
"306 700 OFFCURVE",
"358 700 CURVE SMOOTH",
"405 700 OFFCURVE",
"427 670 OFFCURVE",
"427 634 CURVE SMOOTH",
"427 586 OFFCURVE",
"390 550 OFFCURVE",
"338 550 CURVE SMOOTH"
);
}
);
width = 560;
}
);
leftKerningGroup = _a1;
rightKerningGroup = _a;
unicode = 00E5;
},
{
glyphname = ae;
layers = (
{
layerId = "EA8306D6-B852-442A-A16D-2D86AE16EEA2";
paths = (
{
closed = 1;
nodes = (
"707 -10 OFFCURVE",
"764 13 OFFCURVE",
"811 57 CURVE",
"796 82 LINE",
"749 38 OFFCURVE",
"692 18 OFFCURVE",
"628 18 CURVE SMOOTH",
"519 18 OFFCURVE",
"462 90 OFFCURVE",
"462 188 CURVE SMOOTH",
"462 203 OFFCURVE",
"461 215 OFFCURVE",
"464 230 CURVE",
"849 230 LINE",
"860 249 OFFCURVE",
"866 278 OFFCURVE",
"866 294 CURVE SMOOTH",
"866 407 OFFCURVE",
"797 480 OFFCURVE",
"688 480 CURVE SMOOTH",
"591 480 OFFCURVE",
"516 437 OFFCURVE",
"473 361 CURVE",
"460 438 OFFCURVE",
"396 480 OFFCURVE",
"297 480 CURVE SMOOTH",
"237 480 OFFCURVE",
"178 455 OFFCURVE",
"129 412 CURVE",
"144 387 LINE",
"197 430 OFFCURVE",
"248 452 OFFCURVE",
"297 452 CURVE SMOOTH",
"401 452 OFFCURVE",
"446 410 OFFCURVE",
"446 331 CURVE SMOOTH",
"446 316 OFFCURVE",
"445 301 OFFCURVE",
"442 288 CURVE",
"250 264 LINE SMOOTH",
"103 245 OFFCURVE",
"46 203 OFFCURVE",
"46 120 CURVE SMOOTH",
"46 37 OFFCURVE",
"114 -10 OFFCURVE",
"211 -10 CURVE SMOOTH",
"311 -10 OFFCURVE",
"394 31 OFFCURVE",
"439 138 CURVE",
"456 51 OFFCURVE",
"520 -10 OFFCURVE",
"628 -10 CURVE SMOOTH"
);
},
{
closed = 1;
nodes = (
"131 18 OFFCURVE",
"76 53 OFFCURVE",
"76 120 CURVE SMOOTH",
"76 187 OFFCURVE",
"119 220 OFFCURVE",
"245 236 CURVE SMOOTH",
"437 260 LINE",
"425 192 LINE",
"406 93 OFFCURVE",
"337 18 OFFCURVE",
"211 18 CURVE SMOOTH"
);
},
{
closed = 1;
nodes = (
"780 452 OFFCURVE",
"834 397 OFFCURVE",
"834 294 CURVE SMOOTH",
"834 281 OFFCURVE",
"832 269 OFFCURVE",
"829 258 CURVE",
"468 258 LINE",
"492 381 OFFCURVE",
"576 452 OFFCURVE",
"688 452 CURVE SMOOTH"
);
}
);
width = 928;
}
);
leftKerningGroup = _a1;
rightKerningGroup = _b;
unicode = 00E6;
},
{
glyphname = ccedilla;
layers = (
{
layerId = "EA8306D6-B852-442A-A16D-2D86AE16EEA2";
paths = (
{
closed = 1;
nodes = (
"251 -174 OFFCURVE",
"283 -145 OFFCURVE",
"283 -101 CURVE SMOOTH",
"283 -70 OFFCURVE",
"261 -50 OFFCURVE",
"217 -50 CURVE",
"242 -9 LINE",
"249 -10 OFFCURVE",
"253 -10 OFFCURVE",
"260 -10 CURVE SMOOTH",
"321 -10 OFFCURVE",
"376 12 OFFCURVE",
"423 52 CURVE",
"410 74 LINE",
"362 35 OFFCURVE",
"316 18 OFFCURVE",
"260 18 CURVE SMOOTH",
"151 18 OFFCURVE",
"94 90 OFFCURVE",
"94 188 CURVE SMOOTH",
"94 353 OFFCURVE",
"185 452 OFFCURVE",
"330 452 CURVE SMOOTH",
"386 452 OFFCURVE",
"431 435 OFFCURVE",
"466 396 CURVE",
"487 418 LINE",
"455 458 OFFCURVE",
"403 480 OFFCURVE",
"330 480 CURVE SMOOTH",
"164 480 OFFCURVE",
"62 370 OFFCURVE",
"62 188 CURVE SMOOTH",
"62 92 OFFCURVE",
"116 10 OFFCURVE",
"216 -6 CURVE",
"189 -51 LINE",
"186 -68 LINE",
"210 -68 LINE SMOOTH",
"239 -68 OFFCURVE",
"253 -79 OFFCURVE",
"253 -100 CURVE SMOOTH",
"253 -131 OFFCURVE",
"230 -148 OFFCURVE",
"195 -148 CURVE SMOOTH",
"178 -148 OFFCURVE",
"154 -148 OFFCURVE",
"142 -145 CURVE",
"138 -167 LINE",
"149 -171 OFFCURVE",
"178 -174 OFFCURVE",
"195 -174 CURVE SMOOTH"
);
}
);
width = 516;
}
);
leftKerningGroup = _c1;
unicode = 00E7;
},
{
glyphname = egrave;
layers = (
{
layerId = "EA8306D6-B852-442A-A16D-2D86AE16EEA2";
paths = (
{
closed = 1;
nodes = (
"339 -10 OFFCURVE",
"396 13 OFFCURVE",
"443 57 CURVE",
"428 82 LINE",
"381 38 OFFCURVE",
"324 18 OFFCURVE",
"260 18 CURVE SMOOTH",
"155 18 OFFCURVE",
"94 90 OFFCURVE",
"94 188 CURVE SMOOTH",
"94 203 OFFCURVE",
"93 215 OFFCURVE",
"96 230 CURVE",
"481 230 LINE",
"492 249 OFFCURVE",
"498 278 OFFCURVE",
"498 294 CURVE SMOOTH",
"498 407 OFFCURVE",
"429 480 OFFCURVE",
"320 480 CURVE SMOOTH",
"180 480 OFFCURVE",
"62 370 OFFCURVE",
"62 188 CURVE SMOOTH",
"62 79 OFFCURVE",
"133 -10 OFFCURVE",
"260 -10 CURVE SMOOTH"
);
},
{
closed = 1;
nodes = (
"412 452 OFFCURVE",
"466 397 OFFCURVE",
"466 294 CURVE SMOOTH",
"466 281 OFFCURVE",
"464 269 OFFCURVE",
"461 258 CURVE",
"100 258 LINE",
"124 381 OFFCURVE",
"216 452 OFFCURVE",
"320 452 CURVE SMOOTH"
);
},
{
closed = 1;
nodes = (
"350 554 LINE",
"294 696 LINE",
"260 696 LINE",
"328 554 LINE"
);
}
);
width = 560;
}
);
leftKerningGroup = _c1;
rightKerningGroup = _b;
unicode = 00E8;
},
{
glyphname = eacute;
layers = (
{
layerId = "EA8306D6-B852-442A-A16D-2D86AE16EEA2";
paths = (
{
closed = 1;
nodes = (
"339 -10 OFFCURVE",
"396 13 OFFCURVE",
"443 57 CURVE",
"428 82 LINE",
"381 38 OFFCURVE",
"324 18 OFFCURVE",
"260 18 CURVE SMOOTH",
"155 18 OFFCURVE",
"94 90 OFFCURVE",
"94 188 CURVE SMOOTH",
"94 203 OFFCURVE",
"93 215 OFFCURVE",
"96 230 CURVE",
"481 230 LINE",
"492 249 OFFCURVE",
"498 278 OFFCURVE",
"498 294 CURVE SMOOTH",
"498 407 OFFCURVE",
"429 480 OFFCURVE",
"320 480 CURVE SMOOTH",
"180 480 OFFCURVE",
"62 370 OFFCURVE",
"62 188 CURVE SMOOTH",
"62 79 OFFCURVE",
"133 -10 OFFCURVE",
"260 -10 CURVE SMOOTH"
);
},
{
closed = 1;
nodes = (
"412 452 OFFCURVE",
"466 397 OFFCURVE",
"466 294 CURVE SMOOTH",
"466 281 OFFCURVE",
"464 269 OFFCURVE",
"461 258 CURVE",
"100 258 LINE",
"124 381 OFFCURVE",
"216 452 OFFCURVE",
"320 452 CURVE SMOOTH"
);
},
{
closed = 1;
nodes = (
"352 554 LINE",
"470 696 LINE",
"432 696 LINE",
"326 554 LINE"
);
}
);
width = 560;
}
);
leftKerningGroup = _c1;
rightKerningGroup = _b;
unicode = 00E9;
},
{
glyphname = ecircumflex;
layers = (
{
layerId = "EA8306D6-B852-442A-A16D-2D86AE16EEA2";
paths = (
{
closed = 1;
nodes = (
"339 -10 OFFCURVE",
"396 13 OFFCURVE",
"443 57 CURVE",
"428 82 LINE",
"381 38 OFFCURVE",
"324 18 OFFCURVE",
"260 18 CURVE SMOOTH",
"155 18 OFFCURVE",
"94 90 OFFCURVE",
"94 188 CURVE SMOOTH",
"94 203 OFFCURVE",
"93 215 OFFCURVE",
"96 230 CURVE",
"481 230 LINE",
"492 249 OFFCURVE",
"498 278 OFFCURVE",
"498 294 CURVE SMOOTH",
"498 407 OFFCURVE",
"429 480 OFFCURVE",
"320 480 CURVE SMOOTH",
"180 480 OFFCURVE",
"62 370 OFFCURVE",
"62 188 CURVE SMOOTH",
"62 79 OFFCURVE",
"133 -10 OFFCURVE",
"260 -10 CURVE SMOOTH"
);
},
{
closed = 1;
nodes = (
"412 452 OFFCURVE",
"466 397 OFFCURVE",
"466 294 CURVE SMOOTH",
"466 281 OFFCURVE",
"464 269 OFFCURVE",
"461 258 CURVE",
"100 258 LINE",
"124 381 OFFCURVE",
"216 452 OFFCURVE",
"320 452 CURVE SMOOTH"
);
},
{
closed = 1;
nodes = (
"463 554 LINE",
"382 696 LINE",
"346 696 LINE",
"215 554 LINE",
"250 554 LINE",
"363 675 LINE",
"434 554 LINE"
);
}
);
width = 560;
}
);
leftKerningGroup = _c1;
rightKerningGroup = _b;
unicode = 00EA;
},
{
glyphname = edieresis;
layers = (
{
layerId = "EA8306D6-B852-442A-A16D-2D86AE16EEA2";
paths = (
{
closed = 1;
nodes = (
"339 -10 OFFCURVE",
"396 13 OFFCURVE",
"443 57 CURVE",
"428 82 LINE",
"381 38 OFFCURVE",
"324 18 OFFCURVE",
"260 18 CURVE SMOOTH",
"155 18 OFFCURVE",
"94 90 OFFCURVE",
"94 188 CURVE SMOOTH",
"94 203 OFFCURVE",
"93 215 OFFCURVE",
"96 230 CURVE",
"481 230 LINE",
"492 249 OFFCURVE",
"498 278 OFFCURVE",
"498 294 CURVE SMOOTH",
"498 407 OFFCURVE",
"429 480 OFFCURVE",
"320 480 CURVE SMOOTH",
"180 480 OFFCURVE",
"62 370 OFFCURVE",
"62 188 CURVE SMOOTH",
"62 79 OFFCURVE",
"133 -10 OFFCURVE",
"260 -10 CURVE SMOOTH"
);
},
{
closed = 1;
nodes = (
"412 452 OFFCURVE",
"466 397 OFFCURVE",
"466 294 CURVE SMOOTH",
"466 281 OFFCURVE",
"464 269 OFFCURVE",
"461 258 CURVE",
"100 258 LINE",
"124 381 OFFCURVE",
"216 452 OFFCURVE",
"320 452 CURVE SMOOTH"
);
},
{
closed = 1;
nodes = (
"278 603 OFFCURVE",
"287 611 OFFCURVE",
"287 627 CURVE SMOOTH",
"287 640 OFFCURVE",
"280 647 OFFCURVE",
"265 647 CURVE SMOOTH",
"248 647 OFFCURVE",
"239 639 OFFCURVE",
"239 623 CURVE SMOOTH",
"239 610 OFFCURVE",
"246 603 OFFCURVE",
"261 603 CURVE SMOOTH"
);
},
{
closed = 1;
nodes = (
"456 603 OFFCURVE",
"465 611 OFFCURVE",
"465 627 CURVE SMOOTH",
"465 640 OFFCURVE",
"458 647 OFFCURVE",
"443 647 CURVE SMOOTH",
"426 647 OFFCURVE",
"417 639 OFFCURVE",
"417 623 CURVE SMOOTH",
"417 610 OFFCURVE",
"424 603 OFFCURVE",
"439 603 CURVE SMOOTH"
);
}
);
width = 560;
}
);
leftKerningGroup = _c1;
rightKerningGroup = _b;
unicode = 00EB;
},
{
glyphname = igrave;
layers = (
{
layerId = "EA8306D6-B852-442A-A16D-2D86AE16EEA2";
paths = (
{
closed = 1;
nodes = (
"84 0 LINE",
"166 470 LINE",
"136 470 LINE",
"54 0 LINE"
);
},
{
closed = 1;
nodes = (
"176 554 LINE",
"120 696 LINE",
"86 696 LINE",
"154 554 LINE"
);
}
);
width = 222;
}
);
unicode = 00EC;
},
{
glyphname = iacute;
layers = (
{
layerId = "EA8306D6-B852-442A-A16D-2D86AE16EEA2";
paths = (
{
closed = 1;
nodes = (
"84 0 LINE",
"166 470 LINE",
"136 470 LINE",
"54 0 LINE"
);
},
{
closed = 1;
nodes = (
"178 554 LINE",
"296 696 LINE",
"258 696 LINE",
"152 554 LINE"
);
}
);
width = 222;
}
);
unicode = 00ED;
},
{
glyphname = icircumflex;
layers = (
{
layerId = "EA8306D6-B852-442A-A16D-2D86AE16EEA2";
paths = (
{
closed = 1;
nodes = (
"84 0 LINE",
"166 470 LINE",
"136 470 LINE",
"54 0 LINE"
);
},
{
closed = 1;
nodes = (
"289 554 LINE",
"208 696 LINE",
"172 696 LINE",
"41 554 LINE",
"76 554 LINE",
"189 675 LINE",
"260 554 LINE"
);
}
);
width = 222;
}
);
unicode = 00EE;
},
{
glyphname = idieresis;
layers = (
{
layerId = "EA8306D6-B852-442A-A16D-2D86AE16EEA2";
paths = (
{
closed = 1;
nodes = (
"84 0 LINE",
"166 470 LINE",
"136 470 LINE",
"54 0 LINE"
);
},
{
closed = 1;
nodes = (
"104 603 OFFCURVE",
"113 611 OFFCURVE",
"113 627 CURVE SMOOTH",
"113 640 OFFCURVE",
"106 647 OFFCURVE",
"91 647 CURVE SMOOTH",
"74 647 OFFCURVE",
"65 639 OFFCURVE",
"65 623 CURVE SMOOTH",
"65 610 OFFCURVE",
"72 603 OFFCURVE",
"87 603 CURVE SMOOTH"
);
},
{
closed = 1;
nodes = (
"282 603 OFFCURVE",
"291 611 OFFCURVE",
"291 627 CURVE SMOOTH",
"291 640 OFFCURVE",
"284 647 OFFCURVE",
"269 647 CURVE SMOOTH",
"252 647 OFFCURVE",
"243 639 OFFCURVE",
"243 623 CURVE SMOOTH",
"243 610 OFFCURVE",
"250 603 OFFCURVE",
"265 603 CURVE SMOOTH"
);
}
);
width = 222;
}
);
unicode = 00EF;
},
{
glyphname = eth;
layers = (
{
layerId = "EA8306D6-B852-442A-A16D-2D86AE16EEA2";
paths = (
{
closed = 1;
nodes = (
"420 -10 OFFCURVE",
"523 84 OFFCURVE",
"523 244 CURVE SMOOTH",
"523 297 OFFCURVE",
"501 359 OFFCURVE",
"460 435 CURVE SMOOTH",
"375 593 LINE",
"490 638 LINE",
"495 668 LINE",
"363 616 LINE",
"335 668 LINE",
"301 668 LINE",
"335 605 LINE",
"242 568 LINE",
"236 538 LINE",
"347 582 LINE",
"464 367 LINE",
"435 410 OFFCURVE",
"387 438 OFFCURVE",
"320 438 CURVE SMOOTH",
"160 438 OFFCURVE",
"57 344 OFFCURVE",
"57 184 CURVE SMOOTH",
"57 72 OFFCURVE",
"139 -10 OFFCURVE",
"260 -10 CURVE SMOOTH"
);
},
{
closed = 1;
nodes = (
"156 18 OFFCURVE",
"89 88 OFFCURVE",
"89 184 CURVE SMOOTH",
"89 335 OFFCURVE",
"195 410 OFFCURVE",
"320 410 CURVE SMOOTH",
"424 410 OFFCURVE",
"491 340 OFFCURVE",
"491 244 CURVE SMOOTH",
"491 93 OFFCURVE",
"385 18 OFFCURVE",
"260 18 CURVE SMOOTH"
);
}
);
width = 590;
}
);
leftKerningGroup = _c1;
rightKerningGroup = _b;
unicode = 00F0;
},
{
glyphname = ntilde;
layers = (
{
layerId = "EA8306D6-B852-442A-A16D-2D86AE16EEA2";
paths = (
{
closed = 1;
nodes = (
"432 0 LINE",
"482 286 LINE SMOOTH",
"485 305 OFFCURVE",
"487 324 OFFCURVE",
"487 341 CURVE SMOOTH",
"487 437 OFFCURVE",
"437 480 OFFCURVE",
"332 480 CURVE SMOOTH",
"252 480 OFFCURVE",
"198 454 OFFCURVE",
"151 385 CURVE",
"166 470 LINE",
"136 470 LINE",
"54 0 LINE",
"84 0 LINE",
"128 255 LINE SMOOTH",
"151 384 OFFCURVE",
"224 452 OFFCURVE",
"332 452 CURVE SMOOTH",
"416 452 OFFCURVE",
"457 420 OFFCURVE",
"457 341 CURVE SMOOTH",
"457 325 OFFCURVE",
"455 305 OFFCURVE",
"452 286 CURVE SMOOTH",
"402 0 LINE"
);
},
{
closed = 1;
nodes = (
"452 574 OFFCURVE",
"482 596 OFFCURVE",
"494 676 CURVE",
"470 676 LINE",
"455 613 OFFCURVE",
"436 600 OFFCURVE",
"412 600 CURVE SMOOTH",
"369 600 OFFCURVE",
"348 676 OFFCURVE",
"290 676 CURVE SMOOTH",
"250 676 OFFCURVE",
"220 654 OFFCURVE",
"208 574 CURVE",
"232 574 LINE",
"245 637 OFFCURVE",
"266 650 OFFCURVE",
"290 650 CURVE SMOOTH",
"332 650 OFFCURVE",
"353 574 OFFCURVE",
"412 574 CURVE SMOOTH"
);
}
);
width = 570;
}
);
leftKerningGroup = _m1;
rightKerningGroup = _h;
unicode = 00F1;
},
{
glyphname = ograve;
layers = (
{
layerId = "EA8306D6-B852-442A-A16D-2D86AE16EEA2";
paths = (
{
closed = 1;
nodes = (
"416 -10 OFFCURVE",
"528 103 OFFCURVE",
"528 282 CURVE SMOOTH",
"528 391 OFFCURVE",
"457 480 OFFCURVE",
"330 480 CURVE SMOOTH",
"174 480 OFFCURVE",
"62 367 OFFCURVE",
"62 188 CURVE SMOOTH",
"62 79 OFFCURVE",
"133 -10 OFFCURVE",
"260 -10 CURVE SMOOTH"
);
},
{
closed = 1;
nodes = (
"155 18 OFFCURVE",
"94 90 OFFCURVE",
"94 188 CURVE SMOOTH",
"94 349 OFFCURVE",
"189 452 OFFCURVE",
"330 452 CURVE SMOOTH",
"435 452 OFFCURVE",
"496 380 OFFCURVE",
"496 282 CURVE SMOOTH",
"496 121 OFFCURVE",
"401 18 OFFCURVE",
"260 18 CURVE SMOOTH"
);
},
{
closed = 1;
nodes = (
"360 554 LINE",
"304 696 LINE",
"270 696 LINE",
"338 554 LINE"
);
}
);
width = 590;
}
);
leftKerningGroup = _c1;
rightKerningGroup = _b;
unicode = 00F2;
},
{
glyphname = oacute;
layers = (
{
layerId = "EA8306D6-B852-442A-A16D-2D86AE16EEA2";
paths = (
{
closed = 1;
nodes = (
"416 -10 OFFCURVE",
"528 103 OFFCURVE",
"528 282 CURVE SMOOTH",
"528 391 OFFCURVE",
"457 480 OFFCURVE",
"330 480 CURVE SMOOTH",
"174 480 OFFCURVE",
"62 367 OFFCURVE",
"62 188 CURVE SMOOTH",
"62 79 OFFCURVE",
"133 -10 OFFCURVE",
"260 -10 CURVE SMOOTH"
);
},
{
closed = 1;
nodes = (
"155 18 OFFCURVE",
"94 90 OFFCURVE",
"94 188 CURVE SMOOTH",
"94 349 OFFCURVE",
"189 452 OFFCURVE",
"330 452 CURVE SMOOTH",
"435 452 OFFCURVE",
"496 380 OFFCURVE",
"496 282 CURVE SMOOTH",
"496 121 OFFCURVE",
"401 18 OFFCURVE",
"260 18 CURVE SMOOTH"
);
},
{
closed = 1;
nodes = (
"362 554 LINE",
"480 696 LINE",
"442 696 LINE",
"336 554 LINE"
);
}
);
width = 590;
}
);
leftKerningGroup = _c1;
rightKerningGroup = _b;
unicode = 00F3;
},
{
glyphname = ocircumflex;
layers = (
{
layerId = "EA8306D6-B852-442A-A16D-2D86AE16EEA2";
paths = (
{
closed = 1;
nodes = (
"416 -10 OFFCURVE",
"528 103 OFFCURVE",
"528 282 CURVE SMOOTH",
"528 391 OFFCURVE",
"457 480 OFFCURVE",
"330 480 CURVE SMOOTH",
"174 480 OFFCURVE",
"62 367 OFFCURVE",
"62 188 CURVE SMOOTH",
"62 79 OFFCURVE",
"133 -10 OFFCURVE",
"260 -10 CURVE SMOOTH"
);
},
{
closed = 1;
nodes = (
"155 18 OFFCURVE",
"94 90 OFFCURVE",
"94 188 CURVE SMOOTH",
"94 349 OFFCURVE",
"189 452 OFFCURVE",
"330 452 CURVE SMOOTH",
"435 452 OFFCURVE",
"496 380 OFFCURVE",
"496 282 CURVE SMOOTH",
"496 121 OFFCURVE",
"401 18 OFFCURVE",
"260 18 CURVE SMOOTH"
);
},
{
closed = 1;
nodes = (
"473 554 LINE",
"392 696 LINE",
"356 696 LINE",
"225 554 LINE",
"260 554 LINE",
"373 675 LINE",
"444 554 LINE"
);
}
);
width = 590;
}
);
leftKerningGroup = _c1;
rightKerningGroup = _b;
unicode = 00F4;
},
{
glyphname = otilde;
layers = (
{
layerId = "EA8306D6-B852-442A-A16D-2D86AE16EEA2";
paths = (
{
closed = 1;
nodes = (
"416 -10 OFFCURVE",
"528 103 OFFCURVE",
"528 282 CURVE SMOOTH",
"528 391 OFFCURVE",
"457 480 OFFCURVE",
"330 480 CURVE SMOOTH",
"174 480 OFFCURVE",
"62 367 OFFCURVE",
"62 188 CURVE SMOOTH",
"62 79 OFFCURVE",
"133 -10 OFFCURVE",
"260 -10 CURVE SMOOTH"
);
},
{
closed = 1;
nodes = (
"155 18 OFFCURVE",
"94 90 OFFCURVE",
"94 188 CURVE SMOOTH",
"94 349 OFFCURVE",
"189 452 OFFCURVE",
"330 452 CURVE SMOOTH",
"435 452 OFFCURVE",
"496 380 OFFCURVE",
"496 282 CURVE SMOOTH",
"496 121 OFFCURVE",
"401 18 OFFCURVE",
"260 18 CURVE SMOOTH"
);
},
{
closed = 1;
nodes = (
"462 574 OFFCURVE",
"492 596 OFFCURVE",
"504 676 CURVE",
"480 676 LINE",
"465 613 OFFCURVE",
"446 600 OFFCURVE",
"422 600 CURVE SMOOTH",
"379 600 OFFCURVE",
"358 676 OFFCURVE",
"300 676 CURVE SMOOTH",
"260 676 OFFCURVE",
"230 654 OFFCURVE",
"218 574 CURVE",
"242 574 LINE",
"255 637 OFFCURVE",
"276 650 OFFCURVE",
"300 650 CURVE SMOOTH",
"342 650 OFFCURVE",
"363 574 OFFCURVE",
"422 574 CURVE SMOOTH"
);
}
);
width = 590;
}
);
leftKerningGroup = _c1;
rightKerningGroup = _b;
unicode = 00F5;
},
{
glyphname = odieresis;
layers = (
{
layerId = "EA8306D6-B852-442A-A16D-2D86AE16EEA2";
paths = (
{
closed = 1;
nodes = (
"416 -10 OFFCURVE",
"528 103 OFFCURVE",
"528 282 CURVE SMOOTH",
"528 391 OFFCURVE",
"457 480 OFFCURVE",
"330 480 CURVE SMOOTH",
"174 480 OFFCURVE",
"62 367 OFFCURVE",
"62 188 CURVE SMOOTH",
"62 79 OFFCURVE",
"133 -10 OFFCURVE",
"260 -10 CURVE SMOOTH"
);
},
{
closed = 1;
nodes = (
"155 18 OFFCURVE",
"94 90 OFFCURVE",
"94 188 CURVE SMOOTH",
"94 349 OFFCURVE",
"189 452 OFFCURVE",
"330 452 CURVE SMOOTH",
"435 452 OFFCURVE",
"496 380 OFFCURVE",
"496 282 CURVE SMOOTH",
"496 121 OFFCURVE",
"401 18 OFFCURVE",
"260 18 CURVE SMOOTH"
);
},
{
closed = 1;
nodes = (
"288 603 OFFCURVE",
"297 611 OFFCURVE",
"297 627 CURVE SMOOTH",
"297 640 OFFCURVE",
"290 647 OFFCURVE",
"275 647 CURVE SMOOTH",
"258 647 OFFCURVE",
"249 639 OFFCURVE",
"249 623 CURVE SMOOTH",
"249 610 OFFCURVE",
"256 603 OFFCURVE",
"271 603 CURVE SMOOTH"
);
},
{
closed = 1;
nodes = (
"466 603 OFFCURVE",
"475 611 OFFCURVE",
"475 627 CURVE SMOOTH",
"475 640 OFFCURVE",
"468 647 OFFCURVE",
"453 647 CURVE SMOOTH",
"436 647 OFFCURVE",
"427 639 OFFCURVE",
"427 623 CURVE SMOOTH",
"427 610 OFFCURVE",
"434 603 OFFCURVE",
"449 603 CURVE SMOOTH"
);
}
);
width = 590;
}
);
leftKerningGroup = _c1;
rightKerningGroup = _b;
unicode = 00F6;
},
{
glyphname = divide;
layers = (
{
layerId = "EA8306D6-B852-442A-A16D-2D86AE16EEA2";
paths = (
{
closed = 1;
nodes = (
"291 139 OFFCURVE",
"303 150 OFFCURVE",
"303 167 CURVE SMOOTH",
"303 182 OFFCURVE",
"295 189 OFFCURVE",
"280 189 CURVE SMOOTH",
"263 189 OFFCURVE",
"251 178 OFFCURVE",
"251 161 CURVE SMOOTH",
"251 146 OFFCURVE",
"259 139 OFFCURVE",
"274 139 CURVE SMOOTH"
);
},
{
closed = 1;
nodes = (
"500 320 LINE",
"505 348 LINE",
"115 348 LINE",
"110 320 LINE"
);
},
{
closed = 1;
nodes = (
"351 479 OFFCURVE",
"363 490 OFFCURVE",
"363 507 CURVE SMOOTH",
"363 522 OFFCURVE",
"355 529 OFFCURVE",
"340 529 CURVE SMOOTH",
"323 529 OFFCURVE",
"311 518 OFFCURVE",
"311 501 CURVE SMOOTH",
"311 486 OFFCURVE",
"319 479 OFFCURVE",
"334 479 CURVE SMOOTH"
);
}
);
width = 582;
}
);
unicode = 00F7;
},
{
glyphname = oslash;
layers = (
{
layerId = "EA8306D6-B852-442A-A16D-2D86AE16EEA2";
paths = (
{
closed = 1;
nodes = (
"44 -10 LINE",
"111 50 LINE",
"144 13 OFFCURVE",
"195 -10 OFFCURVE",
"260 -10 CURVE SMOOTH",
"416 -10 OFFCURVE",
"528 103 OFFCURVE",
"528 282 CURVE SMOOTH",
"528 325 OFFCURVE",
"518 366 OFFCURVE",
"495 398 CURVE",
"563 460 LINE",
"544 480 LINE",
"478 420 LINE",
"445 457 OFFCURVE",
"394 480 OFFCURVE",
"330 480 CURVE SMOOTH",
"174 480 OFFCURVE",
"62 367 OFFCURVE",
"62 188 CURVE SMOOTH",
"62 144 OFFCURVE",
"73 105 OFFCURVE",
"94 72 CURVE",
"25 10 LINE"
);
},
{
closed = 1;
nodes = (
"204 18 OFFCURVE",
"162 38 OFFCURVE",
"133 71 CURVE",
"472 377 LINE",
"488 350 OFFCURVE",
"496 318 OFFCURVE",
"496 282 CURVE SMOOTH",
"496 121 OFFCURVE",
"401 18 OFFCURVE",
"260 18 CURVE SMOOTH"
);
},
{
closed = 1;
nodes = (
"94 349 OFFCURVE",
"189 452 OFFCURVE",
"330 452 CURVE SMOOTH",
"385 452 OFFCURVE",
"427 432 OFFCURVE",
"456 400 CURVE",
"117 93 LINE",
"102 120 OFFCURVE",
"94 152 OFFCURVE",
"94 188 CURVE SMOOTH"
);
}
);
width = 590;
}
);
leftKerningGroup = _c1;
rightKerningGroup = _b;
unicode = 00F8;
},
{
glyphname = ugrave;
layers = (
{
layerId = "EA8306D6-B852-442A-A16D-2D86AE16EEA2";
paths = (
{
closed = 1;
nodes = (
"316 -10 OFFCURVE",
"370 16 OFFCURVE",
"417 85 CURVE",
"402 0 LINE",
"432 0 LINE",
"514 470 LINE",
"484 470 LINE",
"440 215 LINE SMOOTH",
"417 86 OFFCURVE",
"344 18 OFFCURVE",
"236 18 CURVE SMOOTH",
"152 18 OFFCURVE",
"111 50 OFFCURVE",
"111 129 CURVE SMOOTH",
"111 145 OFFCURVE",
"113 165 OFFCURVE",
"116 184 CURVE SMOOTH",
"166 470 LINE",
"136 470 LINE",
"86 184 LINE SMOOTH",
"83 165 OFFCURVE",
"81 146 OFFCURVE",
"81 129 CURVE SMOOTH",
"81 33 OFFCURVE",
"131 -10 OFFCURVE",
"236 -10 CURVE SMOOTH"
);
},
{
closed = 1;
nodes = (
"350 554 LINE",
"294 696 LINE",
"260 696 LINE",
"328 554 LINE"
);
}
);
width = 570;
}
);
leftKerningGroup = _u;
unicode = 00F9;
},
{
glyphname = uacute;
layers = (
{
layerId = "EA8306D6-B852-442A-A16D-2D86AE16EEA2";
paths = (
{
closed = 1;
nodes = (
"316 -10 OFFCURVE",
"370 16 OFFCURVE",
"417 85 CURVE",
"402 0 LINE",
"432 0 LINE",
"514 470 LINE",
"484 470 LINE",
"440 215 LINE SMOOTH",
"417 86 OFFCURVE",
"344 18 OFFCURVE",
"236 18 CURVE SMOOTH",
"152 18 OFFCURVE",
"111 50 OFFCURVE",
"111 129 CURVE SMOOTH",
"111 145 OFFCURVE",
"113 165 OFFCURVE",
"116 184 CURVE SMOOTH",
"166 470 LINE",
"136 470 LINE",
"86 184 LINE SMOOTH",
"83 165 OFFCURVE",
"81 146 OFFCURVE",
"81 129 CURVE SMOOTH",
"81 33 OFFCURVE",
"131 -10 OFFCURVE",
"236 -10 CURVE SMOOTH"
);
},
{
closed = 1;
nodes = (
"352 554 LINE",
"470 696 LINE",
"432 696 LINE",
"326 554 LINE"
);
}
);
width = 570;
}
);
leftKerningGroup = _u;
unicode = 00FA;
},
{
glyphname = ucircumflex;
layers = (
{
layerId = "EA8306D6-B852-442A-A16D-2D86AE16EEA2";
paths = (
{
closed = 1;
nodes = (
"316 -10 OFFCURVE",
"370 16 OFFCURVE",
"417 85 CURVE",
"402 0 LINE",
"432 0 LINE",
"514 470 LINE",
"484 470 LINE",
"440 215 LINE SMOOTH",
"417 86 OFFCURVE",
"344 18 OFFCURVE",
"236 18 CURVE SMOOTH",
"152 18 OFFCURVE",
"111 50 OFFCURVE",
"111 129 CURVE SMOOTH",
"111 145 OFFCURVE",
"113 165 OFFCURVE",
"116 184 CURVE SMOOTH",
"166 470 LINE",
"136 470 LINE",
"86 184 LINE SMOOTH",
"83 165 OFFCURVE",
"81 146 OFFCURVE",
"81 129 CURVE SMOOTH",
"81 33 OFFCURVE",
"131 -10 OFFCURVE",
"236 -10 CURVE SMOOTH"
);
},
{
closed = 1;
nodes = (
"463 554 LINE",
"382 696 LINE",
"346 696 LINE",
"215 554 LINE",
"250 554 LINE",
"363 675 LINE",
"434 554 LINE"
);
}
);
width = 570;
}
);
leftKerningGroup = _u;
unicode = 00FB;
},
{
glyphname = udieresis;
layers = (
{
layerId = "EA8306D6-B852-442A-A16D-2D86AE16EEA2";
paths = (
{
closed = 1;
nodes = (
"316 -10 OFFCURVE",
"370 16 OFFCURVE",
"417 85 CURVE",
"402 0 LINE",
"432 0 LINE",
"514 470 LINE",
"484 470 LINE",
"440 215 LINE SMOOTH",
"417 86 OFFCURVE",
"344 18 OFFCURVE",
"236 18 CURVE SMOOTH",
"152 18 OFFCURVE",
"111 50 OFFCURVE",
"111 129 CURVE SMOOTH",
"111 145 OFFCURVE",
"113 165 OFFCURVE",
"116 184 CURVE SMOOTH",
"166 470 LINE",
"136 470 LINE",
"86 184 LINE SMOOTH",
"83 165 OFFCURVE",
"81 146 OFFCURVE",
"81 129 CURVE SMOOTH",
"81 33 OFFCURVE",
"131 -10 OFFCURVE",
"236 -10 CURVE SMOOTH"
);
},
{
closed = 1;
nodes = (
"278 603 OFFCURVE",
"287 611 OFFCURVE",
"287 627 CURVE SMOOTH",
"287 640 OFFCURVE",
"280 647 OFFCURVE",
"265 647 CURVE SMOOTH",
"248 647 OFFCURVE",
"239 639 OFFCURVE",
"239 623 CURVE SMOOTH",
"239 610 OFFCURVE",
"246 603 OFFCURVE",
"261 603 CURVE SMOOTH"
);
},
{
closed = 1;
nodes = (
"456 603 OFFCURVE",
"465 611 OFFCURVE",
"465 627 CURVE SMOOTH",
"465 640 OFFCURVE",
"458 647 OFFCURVE",
"443 647 CURVE SMOOTH",
"426 647 OFFCURVE",
"417 639 OFFCURVE",
"417 623 CURVE SMOOTH",
"417 610 OFFCURVE",
"424 603 OFFCURVE",
"439 603 CURVE SMOOTH"
);
}
);
width = 570;
}
);
leftKerningGroup = _u;
unicode = 00FC;
},
{
glyphname = yacute;
layers = (
{
layerId = "EA8306D6-B852-442A-A16D-2D86AE16EEA2";
paths = (
{
closed = 1;
nodes = (
"83 -188 OFFCURVE",
"146 -145 OFFCURVE",
"234 0 CURVE SMOOTH",
"520 470 LINE",
"486 470 LINE",
"223 32 LINE",
"114 470 LINE",
"82 470 LINE",
"203 -1 LINE",
"121 -133 OFFCURVE",
"72 -160 OFFCURVE",
"23 -160 CURVE SMOOTH",
"-8 -160 OFFCURVE",
"-33 -147 OFFCURVE",
"-52 -135 CURVE",
"-67 -159 LINE",
"-44 -176 OFFCURVE",
"-15 -188 OFFCURVE",
"18 -188 CURVE SMOOTH"
);
},
{
closed = 1;
nodes = (
"328 554 LINE",
"446 696 LINE",
"408 696 LINE",
"302 554 LINE"
);
}
);
width = 522;
}
);
leftKerningGroup = _v;
rightKerningGroup = _v;
unicode = 00FD;
},
{
glyphname = thorn;
layers = (
{
layerId = "EA8306D6-B852-442A-A16D-2D86AE16EEA2";
paths = (
{
closed = 1;
nodes = (
"463 -10 OFFCURVE",
"548 118 OFFCURVE",
"548 282 CURVE SMOOTH",
"548 391 OFFCURVE",
"478 480 OFFCURVE",
"354 480 CURVE SMOOTH",
"258 480 OFFCURVE",
"195 445 OFFCURVE",
"150 376 CURVE",
"201 668 LINE",
"171 668 LINE",
"22 -182 LINE",
"52 -182 LINE",
"107 130 LINE",
"123 36 OFFCURVE",
"196 -10 OFFCURVE",
"284 -10 CURVE SMOOTH"
);
},
{
closed = 1;
nodes = (
"181 18 OFFCURVE",
"122 85 OFFCURVE",
"122 188 CURVE SMOOTH",
"122 343 OFFCURVE",
"204 452 OFFCURVE",
"354 452 CURVE SMOOTH",
"457 452 OFFCURVE",
"516 385 OFFCURVE",
"516 282 CURVE SMOOTH",
"516 127 OFFCURVE",
"434 18 OFFCURVE",
"284 18 CURVE SMOOTH"
);
}
);
width = 610;
}
);
rightKerningGroup = _b;
unicode = 00FE;
},
{
glyphname = ydieresis;
layers = (
{
layerId = "EA8306D6-B852-442A-A16D-2D86AE16EEA2";
paths = (
{
closed = 1;
nodes = (
"83 -188 OFFCURVE",
"146 -145 OFFCURVE",
"234 0 CURVE SMOOTH",
"520 470 LINE",
"486 470 LINE",
"223 32 LINE",
"114 470 LINE",
"82 470 LINE",
"203 -1 LINE",
"121 -133 OFFCURVE",
"72 -160 OFFCURVE",
"23 -160 CURVE SMOOTH",
"-8 -160 OFFCURVE",
"-33 -147 OFFCURVE",
"-52 -135 CURVE",
"-67 -159 LINE",
"-44 -176 OFFCURVE",
"-15 -188 OFFCURVE",
"18 -188 CURVE SMOOTH"
);
},
{
closed = 1;
nodes = (
"432 603 OFFCURVE",
"441 611 OFFCURVE",
"441 627 CURVE SMOOTH",
"441 640 OFFCURVE",
"434 647 OFFCURVE",
"419 647 CURVE SMOOTH",
"402 647 OFFCURVE",
"393 639 OFFCURVE",
"393 623 CURVE SMOOTH",
"393 610 OFFCURVE",
"400 603 OFFCURVE",
"415 603 CURVE SMOOTH"
);
},
{
closed = 1;
nodes = (
"254 603 OFFCURVE",
"263 611 OFFCURVE",
"263 627 CURVE SMOOTH",
"263 640 OFFCURVE",
"256 647 OFFCURVE",
"241 647 CURVE SMOOTH",
"224 647 OFFCURVE",
"215 639 OFFCURVE",
"215 623 CURVE SMOOTH",
"215 610 OFFCURVE",
"222 603 OFFCURVE",
"237 603 CURVE SMOOTH"
);
}
);
width = 522;
}
);
leftKerningGroup = _v;
rightKerningGroup = _v;
unicode = 00FF;
},
{
glyphname = dotlessi;
layers = (
{
layerId = "EA8306D6-B852-442A-A16D-2D86AE16EEA2";
paths = (
{
closed = 1;
nodes = (
"84 0 LINE",
"166 470 LINE",
"136 470 LINE",
"54 0 LINE"
);
}
);
width = 222;
}
);
leftKerningGroup = _m1;
unicode = 0131;
},
{
glyphname = Lslash;
layers = (
{
layerId = "EA8306D6-B852-442A-A16D-2D86AE16EEA2";
paths = (
{
closed = 1;
nodes = (
"432 0 LINE",
"437 30 LINE",
"91 30 LINE",
"143 327 LINE",
"357 404 LINE",
"362 432 LINE",
"148 354 LINE",
"203 668 LINE",
"171 668 LINE",
"114 342 LINE",
"22 309 LINE",
"17 281 LINE",
"109 314 LINE",
"54 0 LINE"
);
}
);
width = 526;
}
);
rightKerningGroup = _L;
unicode = 0141;
},
{
glyphname = lslash;
layers = (
{
layerId = "EA8306D6-B852-442A-A16D-2D86AE16EEA2";
paths = (
{
closed = 1;
nodes = (
"84 0 LINE",
"141 325 LINE",
"233 359 LINE",
"238 387 LINE",
"146 354 LINE",
"201 668 LINE",
"171 668 LINE",
"114 342 LINE",
"22 309 LINE",
"17 281 LINE",
"109 314 LINE",
"54 0 LINE"
);
}
);
width = 222;
}
);
unicode = 0142;
},
{
glyphname = OE;
layers = (
{
layerId = "EA8306D6-B852-442A-A16D-2D86AE16EEA2";
paths = (
{
closed = 1;
nodes = (
"968 0 LINE",
"973 30 LINE",
"577 30 LINE",
"630 329 LINE",
"996 329 LINE",
"1001 359 LINE",
"635 359 LINE",
"684 638 LINE",
"1080 638 LINE",
"1085 668 LINE",
"465 668 LINE SMOOTH",
"218 668 OFFCURVE",
"77 537 OFFCURVE",
"77 272 CURVE SMOOTH",
"77 89 OFFCURVE",
"186 0 OFFCURVE",
"367 0 CURVE SMOOTH"
);
},
{
closed = 1;
nodes = (
"111 527 OFFCURVE",
"237 638 OFFCURVE",
"474 638 CURVE SMOOTH",
"652 638 LINE",
"545 30 LINE",
"377 30 LINE SMOOTH",
"201 30 OFFCURVE",
"111 104 OFFCURVE",
"111 272 CURVE SMOOTH"
);
}
);
width = 1072;
}
);
leftKerningGroup = _C1;
unicode = 0152;
},
{
glyphname = oe;
layers = (
{
layerId = "EA8306D6-B852-442A-A16D-2D86AE16EEA2";
paths = (
{
closed = 1;
nodes = (
"765 -10 OFFCURVE",
"822 13 OFFCURVE",
"869 57 CURVE",
"854 82 LINE",
"807 38 OFFCURVE",
"750 18 OFFCURVE",
"686 18 CURVE SMOOTH",
"577 18 OFFCURVE",
"520 90 OFFCURVE",
"520 188 CURVE SMOOTH",
"520 203 OFFCURVE",
"519 215 OFFCURVE",
"522 230 CURVE",
"907 230 LINE",
"918 249 OFFCURVE",
"924 278 OFFCURVE",
"924 294 CURVE SMOOTH",
"924 407 OFFCURVE",
"855 480 OFFCURVE",
"746 480 CURVE SMOOTH",
"638 480 OFFCURVE",
"558 428 OFFCURVE",
"518 333 CURVE",
"499 418 OFFCURVE",
"434 480 OFFCURVE",
"330 480 CURVE SMOOTH",
"164 480 OFFCURVE",
"62 370 OFFCURVE",
"62 188 CURVE SMOOTH",
"62 79 OFFCURVE",
"133 -10 OFFCURVE",
"260 -10 CURVE SMOOTH",
"373 -10 OFFCURVE",
"457 42 OFFCURVE",
"497 137 CURVE",
"516 52 OFFCURVE",
"582 -10 OFFCURVE",
"686 -10 CURVE SMOOTH"
);
},
{
closed = 1;
nodes = (
"151 18 OFFCURVE",
"94 90 OFFCURVE",
"94 188 CURVE SMOOTH",
"94 353 OFFCURVE",
"185 452 OFFCURVE",
"330 452 CURVE SMOOTH",
"439 452 OFFCURVE",
"496 380 OFFCURVE",
"496 282 CURVE SMOOTH",
"496 117 OFFCURVE",
"405 18 OFFCURVE",
"260 18 CURVE SMOOTH"
);
},
{
closed = 1;
nodes = (
"838 452 OFFCURVE",
"892 397 OFFCURVE",
"892 294 CURVE SMOOTH",
"892 281 OFFCURVE",
"890 269 OFFCURVE",
"887 258 CURVE",
"526 258 LINE",
"550 381 OFFCURVE",
"634 452 OFFCURVE",
"746 452 CURVE SMOOTH"
);
}
);
width = 986;
}
);
leftKerningGroup = _c1;
rightKerningGroup = _b;
unicode = 0153;
},
{
glyphname = Scaron;
layers = (
{
layerId = "EA8306D6-B852-442A-A16D-2D86AE16EEA2";
paths = (
{
closed = 1;
nodes = (
"414 -10 OFFCURVE",
"517 74 OFFCURVE",
"517 199 CURVE SMOOTH",
"517 271 OFFCURVE",
"479 325 OFFCURVE",
"390 344 CURVE",
"260 370 LINE SMOOTH",
"195 383 OFFCURVE",
"162 419 OFFCURVE",
"162 478 CURVE SMOOTH",
"162 581 OFFCURVE",
"243 648 OFFCURVE",
"363 648 CURVE SMOOTH",
"439 648 OFFCURVE",
"502 618 OFFCURVE",
"545 573 CURVE",
"569 595 LINE",
"520 651 OFFCURVE",
"444 678 OFFCURVE",
"363 678 CURVE SMOOTH",
"220 678 OFFCURVE",
"128 590 OFFCURVE",
"128 478 CURVE SMOOTH",
"128 407 OFFCURVE",
"169 357 OFFCURVE",
"257 340 CURVE SMOOTH",
"388 314 LINE SMOOTH",
"452 301 OFFCURVE",
"483 260 OFFCURVE",
"483 199 CURVE SMOOTH",
"483 83 OFFCURVE",
"391 20 OFFCURVE",
"261 20 CURVE SMOOTH",
"184 20 OFFCURVE",
"125 48 OFFCURVE",
"62 109 CURVE",
"38 88 LINE",
"101 21 OFFCURVE",
"170 -10 OFFCURVE",
"261 -10 CURVE SMOOTH"
);
},
{
closed = 1;
nodes = (
"403 746 LINE",
"534 888 LINE",
"499 888 LINE",
"386 767 LINE",
"315 888 LINE",
"286 888 LINE",
"367 746 LINE"
);
}
);
width = 592;
}
);
leftKerningGroup = _S;
rightKerningGroup = _S;
unicode = 0160;
},
{
glyphname = scaron;
layers = (
{
layerId = "EA8306D6-B852-442A-A16D-2D86AE16EEA2";
paths = (
{
closed = 1;
nodes = (
"333 -10 OFFCURVE",
"407 47 OFFCURVE",
"407 139 CURVE SMOOTH",
"407 200 OFFCURVE",
"368 232 OFFCURVE",
"304 244 CURVE SMOOTH",
"202 264 LINE",
"151 275 OFFCURVE",
"131 298 OFFCURVE",
"131 337 CURVE SMOOTH",
"131 412 OFFCURVE",
"190 452 OFFCURVE",
"278 452 CURVE SMOOTH",
"346 452 OFFCURVE",
"386 431 OFFCURVE",
"418 396 CURVE",
"439 418 LINE",
"406 454 OFFCURVE",
"357 480 OFFCURVE",
"278 480 CURVE SMOOTH",
"163 480 OFFCURVE",
"99 420 OFFCURVE",
"99 337 CURVE SMOOTH",
"99 285 OFFCURVE",
"134 246 OFFCURVE",
"198 234 CURVE SMOOTH",
"300 214 LINE SMOOTH",
"356 203 OFFCURVE",
"375 178 OFFCURVE",
"375 139 CURVE SMOOTH",
"375 63 OFFCURVE",
"314 18 OFFCURVE",
"210 18 CURVE SMOOTH",
"141 18 OFFCURVE",
"102 39 OFFCURVE",
"57 82 CURVE",
"35 59 LINE",
"82 15 OFFCURVE",
"130 -10 OFFCURVE",
"210 -10 CURVE SMOOTH"
);
},
{
closed = 1;
nodes = (
"317 554 LINE",
"448 696 LINE",
"413 696 LINE",
"300 575 LINE",
"229 696 LINE",
"200 696 LINE",
"281 554 LINE"
);
}
);
width = 490;
}
);
leftKerningGroup = _s;
rightKerningGroup = _s;
unicode = 0161;
},
{
glyphname = Ydieresis;
layers = (
{
layerId = "EA8306D6-B852-442A-A16D-2D86AE16EEA2";
paths = (
{
closed = 1;
nodes = (
"310 0 LINE",
"357 267 LINE",
"705 668 LINE",
"665 668 LINE",
"343 294 LINE",
"153 668 LINE",
"117 668 LINE",
"325 267 LINE",
"278 0 LINE"
);
},
{
closed = 1;
nodes = (
"364 795 OFFCURVE",
"373 803 OFFCURVE",
"373 819 CURVE SMOOTH",
"373 832 OFFCURVE",
"366 839 OFFCURVE",
"351 839 CURVE SMOOTH",
"334 839 OFFCURVE",
"325 831 OFFCURVE",
"325 815 CURVE SMOOTH",
"325 802 OFFCURVE",
"332 795 OFFCURVE",
"347 795 CURVE SMOOTH"
);
},
{
closed = 1;
nodes = (
"542 795 OFFCURVE",
"551 803 OFFCURVE",
"551 819 CURVE SMOOTH",
"551 832 OFFCURVE",
"544 839 OFFCURVE",
"529 839 CURVE SMOOTH",
"512 839 OFFCURVE",
"503 831 OFFCURVE",
"503 815 CURVE SMOOTH",
"503 802 OFFCURVE",
"510 795 OFFCURVE",
"525 795 CURVE SMOOTH"
);
}
);
width = 672;
}
);
leftKerningGroup = _Y;
rightKerningGroup = _Y;
unicode = 0178;
},
{
glyphname = Zcaron;
layers = (
{
layerId = "EA8306D6-B852-442A-A16D-2D86AE16EEA2";
paths = (
{
closed = 1;
nodes = (
"456 0 LINE",
"461 30 LINE",
"51 30 LINE",
"558 638 LINE",
"563 668 LINE",
"135 668 LINE",
"130 638 LINE",
"520 638 LINE",
"13 30 LINE",
"8 0 LINE"
);
},
{
closed = 1;
nodes = (
"381 746 LINE",
"512 888 LINE",
"477 888 LINE",
"364 767 LINE",
"293 888 LINE",
"264 888 LINE",
"345 746 LINE"
);
}
);
width = 548;
}
);
leftKerningGroup = _Z;
rightKerningGroup = _Z;
unicode = 017D;
},
{
glyphname = zcaron;
layers = (
{
layerId = "EA8306D6-B852-442A-A16D-2D86AE16EEA2";
paths = (
{
closed = 1;
nodes = (
"348 0 LINE",
"352 28 LINE",
"50 28 LINE",
"415 442 LINE",
"420 470 LINE",
"100 470 LINE",
"95 442 LINE",
"377 442 LINE",
"13 28 LINE",
"8 0 LINE"
);
},
{
closed = 1;
nodes = (
"292 554 LINE",
"423 696 LINE",
"388 696 LINE",
"275 575 LINE",
"204 696 LINE",
"175 696 LINE",
"256 554 LINE"
);
}
);
width = 440;
}
);
leftKerningGroup = _z;
rightKerningGroup = _z;
unicode = 017E;
},
{
glyphname = florin;
layers = (
{
layerId = "EA8306D6-B852-442A-A16D-2D86AE16EEA2";
paths = (
{
closed = 1;
nodes = (
"91 -188 OFFCURVE",
"138 -150 OFFCURVE",
"169 -66 CURVE",
"306 323 LINE",
"468 323 LINE",
"473 351 LINE",
"316 351 LINE",
"387 552 LINE SMOOTH",
"410 617 OFFCURVE",
"446 646 OFFCURVE",
"506 646 CURVE SMOOTH",
"522 646 OFFCURVE",
"546 645 OFFCURVE",
"557 642 CURVE",
"561 668 LINE",
"553 672 OFFCURVE",
"527 674 OFFCURVE",
"511 674 CURVE SMOOTH",
"435 674 OFFCURVE",
"388 636 OFFCURVE",
"357 552 CURVE",
"286 351 LINE",
"125 351 LINE",
"120 323 LINE",
"276 323 LINE",
"139 -66 LINE SMOOTH",
"116 -131 OFFCURVE",
"80 -160 OFFCURVE",
"20 -160 CURVE SMOOTH",
"4 -160 OFFCURVE",
"-20 -159 OFFCURVE",
"-31 -156 CURVE",
"-35 -182 LINE",
"-26 -186 OFFCURVE",
"-1 -188 OFFCURVE",
"15 -188 CURVE SMOOTH"
);
}
);
width = 526;
}
);
unicode = 0192;
},
{
glyphname = circumflex;
layers = (
{
anchors = (
{
name = _top;
position = "{347, 510}";
}
);
layerId = "EA8306D6-B852-442A-A16D-2D86AE16EEA2";
paths = (
{
closed = 1;
nodes = (
"478 554 LINE",
"397 696 LINE",
"361 696 LINE",
"230 554 LINE",
"265 554 LINE",
"378 675 LINE",
"449 554 LINE"
);
}
);
width = 600;
}
);
unicode = 02C6;
},
{
glyphname = caron;
layers = (
{
anchors = (
{
name = _top;
position = "{347, 510}";
}
);
layerId = "EA8306D6-B852-442A-A16D-2D86AE16EEA2";
paths = (
{
closed = 1;
nodes = (
"372 554 LINE",
"503 696 LINE",
"468 696 LINE",
"355 575 LINE",
"284 696 LINE",
"255 696 LINE",
"336 554 LINE"
);
}
);
width = 600;
}
);
unicode = 02C7;
},
{
glyphname = breve;
layers = (
{
anchors = (
{
name = _top;
position = "{347, 510}";
}
);
layerId = "EA8306D6-B852-442A-A16D-2D86AE16EEA2";
paths = (
{
closed = 1;
nodes = (
"440 544 OFFCURVE",
"472 595 OFFCURVE",
"485 658 CURVE SMOOTH",
"493 696 LINE",
"467 696 LINE",
"459 658 LINE SMOOTH",
"448 606 OFFCURVE",
"417 570 OFFCURVE",
"357 570 CURVE SMOOTH",
"308 570 OFFCURVE",
"280 596 OFFCURVE",
"280 636 CURVE SMOOTH",
"280 643 OFFCURVE",
"281 650 OFFCURVE",
"283 658 CURVE SMOOTH",
"291 696 LINE",
"265 696 LINE",
"257 658 LINE SMOOTH",
"255 649 OFFCURVE",
"254 640 OFFCURVE",
"254 633 CURVE SMOOTH",
"254 582 OFFCURVE",
"289 544 OFFCURVE",
"357 544 CURVE SMOOTH"
);
}
);
width = 600;
}
);
unicode = 02D8;
},
{
glyphname = dotaccent;
layers = (
{
anchors = (
{
name = _top;
position = "{347, 510}";
}
);
layerId = "EA8306D6-B852-442A-A16D-2D86AE16EEA2";
paths = (
{
closed = 1;
nodes = (
"381 603 OFFCURVE",
"390 611 OFFCURVE",
"390 627 CURVE SMOOTH",
"390 640 OFFCURVE",
"383 647 OFFCURVE",
"368 647 CURVE SMOOTH",
"351 647 OFFCURVE",
"342 639 OFFCURVE",
"342 623 CURVE SMOOTH",
"342 610 OFFCURVE",
"349 603 OFFCURVE",
"364 603 CURVE SMOOTH"
);
}
);
width = 600;
}
);
unicode = 02D9;
},
{
glyphname = ring;
layers = (
{
anchors = (
{
name = _top;
position = "{347, 510}";
}
);
layerId = "EA8306D6-B852-442A-A16D-2D86AE16EEA2";
paths = (
{
closed = 1;
nodes = (
"429 524 OFFCURVE",
"475 574 OFFCURVE",
"475 639 CURVE SMOOTH",
"475 686 OFFCURVE",
"439 726 OFFCURVE",
"378 726 CURVE SMOOTH",
"303 726 OFFCURVE",
"257 676 OFFCURVE",
"257 611 CURVE SMOOTH",
"257 564 OFFCURVE",
"293 524 OFFCURVE",
"354 524 CURVE SMOOTH"
);
},
{
closed = 1;
nodes = (
"309 550 OFFCURVE",
"287 580 OFFCURVE",
"287 616 CURVE SMOOTH",
"287 664 OFFCURVE",
"324 700 OFFCURVE",
"376 700 CURVE SMOOTH",
"423 700 OFFCURVE",
"445 670 OFFCURVE",
"445 634 CURVE SMOOTH",
"445 586 OFFCURVE",
"408 550 OFFCURVE",
"356 550 CURVE SMOOTH"
);
}
);
width = 600;
}
);
unicode = 02DA;
},
{
glyphname = ogonek;
layers = (
{
layerId = "EA8306D6-B852-442A-A16D-2D86AE16EEA2";
paths = (
{
closed = 1;
nodes = (
"261 -174 OFFCURVE",
"276 -171 OFFCURVE",
"289 -167 CURVE",
"293 -145 LINE",
"281 -148 OFFCURVE",
"261 -148 OFFCURVE",
"244 -148 CURVE SMOOTH",
"216 -148 OFFCURVE",
"206 -139 OFFCURVE",
"206 -120 CURVE SMOOTH",
"206 -74 OFFCURVE",
"262 -33 OFFCURVE",
"319 0 CURVE",
"293 0 LINE",
"230 -32 OFFCURVE",
"176 -75 OFFCURVE",
"176 -124 CURVE SMOOTH",
"176 -157 OFFCURVE",
"201 -174 OFFCURVE",
"244 -174 CURVE SMOOTH"
);
}
);
width = 600;
}
);
unicode = 02DB;
},
{
glyphname = tilde;
layers = (
{
anchors = (
{
name = _top;
position = "{347, 510}";
}
);
layerId = "EA8306D6-B852-442A-A16D-2D86AE16EEA2";
paths = (
{
closed = 1;
nodes = (
"467 574 OFFCURVE",
"497 596 OFFCURVE",
"509 676 CURVE",
"485 676 LINE",
"470 613 OFFCURVE",
"451 600 OFFCURVE",
"427 600 CURVE SMOOTH",
"384 600 OFFCURVE",
"363 676 OFFCURVE",
"305 676 CURVE SMOOTH",
"265 676 OFFCURVE",
"235 654 OFFCURVE",
"223 574 CURVE",
"247 574 LINE",
"260 637 OFFCURVE",
"281 650 OFFCURVE",
"305 650 CURVE SMOOTH",
"347 650 OFFCURVE",
"368 574 OFFCURVE",
"427 574 CURVE SMOOTH"
);
}
);
width = 600;
}
);
unicode = 02DC;
},
{
glyphname = hungarumlaut;
layers = (
{
anchors = (
{
name = _top;
position = "{307, 510}";
}
);
layerId = "EA8306D6-B852-442A-A16D-2D86AE16EEA2";
paths = (
{
closed = 1;
nodes = (
"257 554 LINE",
"375 696 LINE",
"337 696 LINE",
"231 554 LINE"
);
},
{
closed = 1;
nodes = (
"397 554 LINE",
"515 696 LINE",
"477 696 LINE",
"371 554 LINE"
);
}
);
width = 600;
}
);
unicode = 02DD;
},
{
glyphname = pi;
layers = (
{
layerId = "EA8306D6-B852-442A-A16D-2D86AE16EEA2";
paths = (
{
closed = 1;
nodes = (
"479 0 LINE",
"556 442 LINE",
"669 442 LINE",
"674 470 LINE",
"70 470 LINE",
"65 442 LINE",
"178 442 LINE",
"101 0 LINE",
"131 0 LINE",
"208 442 LINE",
"526 442 LINE",
"449 0 LINE"
);
}
);
width = 664;
}
);
unicode = 03C0;
},
{
glyphname = endash;
layers = (
{
layerId = "EA8306D6-B852-442A-A16D-2D86AE16EEA2";
paths = (
{
closed = 1;
nodes = (
"507 272 LINE",
"512 300 LINE",
"76 300 LINE",
"71 272 LINE"
);
}
);
width = 568;
}
);
leftKerningGroup = _hypen;
rightKerningGroup = _hypen;
unicode = 2013;
},
{
glyphname = emdash;
layers = (
{
layerId = "EA8306D6-B852-442A-A16D-2D86AE16EEA2";
paths = (
{
closed = 1;
nodes = (
"737 272 LINE",
"742 300 LINE",
"76 300 LINE",
"71 272 LINE"
);
}
);
width = 798;
}
);
leftKerningGroup = _hypen;
rightKerningGroup = _hypen;
unicode = 2014;
},
{
glyphname = quoteleft;
layers = (
{
layerId = "EA8306D6-B852-442A-A16D-2D86AE16EEA2";
paths = (
{
closed = 1;
nodes = (
"170 478 LINE",
"182 546 LINE SMOOTH",
"191 598 OFFCURVE",
"204 624 OFFCURVE",
"232 659 CURVE",
"213 668 LINE",
"176 640 OFFCURVE",
"161 603 OFFCURVE",
"150 546 CURVE SMOOTH",
"138 478 LINE"
);
}
);
width = 224;
}
);
leftKerningGroup = _quoteleft;
rightKerningGroup = _quoteleft;
unicode = 2018;
},
{
glyphname = quoteright;
layers = (
{
layerId = "EA8306D6-B852-442A-A16D-2D86AE16EEA2";
paths = (
{
closed = 1;
nodes = (
"128 478 LINE",
"165 506 OFFCURVE",
"180 543 OFFCURVE",
"191 600 CURVE SMOOTH",
"203 668 LINE",
"171 668 LINE",
"159 600 LINE SMOOTH",
"150 548 OFFCURVE",
"137 522 OFFCURVE",
"109 487 CURVE"
);
}
);
width = 224;
}
);
leftKerningGroup = _quoteright;
rightKerningGroup = _quoteright;
unicode = 2019;
},
{
glyphname = quotesinglbase;
layers = (
{
layerId = "EA8306D6-B852-442A-A16D-2D86AE16EEA2";
paths = (
{
closed = 1;
nodes = (
"19 -144 LINE",
"56 -116 OFFCURVE",
"71 -79 OFFCURVE",
"82 -22 CURVE SMOOTH",
"94 46 LINE",
"62 46 LINE",
"50 -22 LINE SMOOTH",
"41 -74 OFFCURVE",
"28 -100 OFFCURVE",
"0 -135 CURVE"
);
}
);
width = 224;
}
);
leftKerningGroup = _comma;
rightKerningGroup = _comma;
unicode = 201A;
},
{
glyphname = quotedblleft;
layers = (
{
layerId = "EA8306D6-B852-442A-A16D-2D86AE16EEA2";
paths = (
{
closed = 1;
nodes = (
"170 478 LINE",
"182 546 LINE SMOOTH",
"191 598 OFFCURVE",
"204 624 OFFCURVE",
"232 659 CURVE",
"213 668 LINE",
"176 640 OFFCURVE",
"161 603 OFFCURVE",
"150 546 CURVE SMOOTH",
"138 478 LINE"
);
},
{
closed = 1;
nodes = (
"308 478 LINE",
"320 546 LINE SMOOTH",
"329 598 OFFCURVE",
"342 624 OFFCURVE",
"370 659 CURVE",
"351 668 LINE",
"314 640 OFFCURVE",
"299 603 OFFCURVE",
"288 546 CURVE SMOOTH",
"276 478 LINE"
);
}
);
width = 362;
}
);
leftKerningGroup = _quoteleft;
rightKerningGroup = _quoteleft;
unicode = 201C;
},
{
glyphname = quotedblright;
layers = (
{
layerId = "EA8306D6-B852-442A-A16D-2D86AE16EEA2";
paths = (
{
closed = 1;
nodes = (
"128 478 LINE",
"165 506 OFFCURVE",
"180 543 OFFCURVE",
"191 600 CURVE SMOOTH",
"203 668 LINE",
"171 668 LINE",
"159 600 LINE SMOOTH",
"150 548 OFFCURVE",
"137 522 OFFCURVE",
"109 487 CURVE"
);
},
{
closed = 1;
nodes = (
"266 478 LINE",
"303 506 OFFCURVE",
"318 543 OFFCURVE",
"329 600 CURVE SMOOTH",
"341 668 LINE",
"309 668 LINE",
"297 600 LINE SMOOTH",
"288 548 OFFCURVE",
"275 522 OFFCURVE",
"247 487 CURVE"
);
}
);
width = 362;
}
);
leftKerningGroup = _quoteright;
rightKerningGroup = _quoteright;
unicode = 201D;
},
{
glyphname = quotedblbase;
layers = (
{
layerId = "EA8306D6-B852-442A-A16D-2D86AE16EEA2";
paths = (
{
closed = 1;
nodes = (
"19 -144 LINE",
"56 -116 OFFCURVE",
"71 -79 OFFCURVE",
"82 -22 CURVE SMOOTH",
"94 46 LINE",
"62 46 LINE",
"50 -22 LINE SMOOTH",
"41 -74 OFFCURVE",
"28 -100 OFFCURVE",
"0 -135 CURVE"
);
},
{
closed = 1;
nodes = (
"157 -144 LINE",
"194 -116 OFFCURVE",
"209 -79 OFFCURVE",
"220 -22 CURVE SMOOTH",
"232 46 LINE",
"200 46 LINE",
"188 -22 LINE SMOOTH",
"179 -74 OFFCURVE",
"166 -100 OFFCURVE",
"138 -135 CURVE"
);
}
);
width = 362;
}
);
leftKerningGroup = _comma;
rightKerningGroup = _comma;
unicode = 201E;
},
{
glyphname = dagger;
layers = (
{
layerId = "EA8306D6-B852-442A-A16D-2D86AE16EEA2";
paths = (
{
closed = 1;
nodes = (
"217 -100 LINE",
"317 469 LINE",
"486 469 LINE",
"491 497 LINE",
"322 497 LINE",
"352 668 LINE",
"320 668 LINE",
"290 497 LINE",
"121 497 LINE",
"116 469 LINE",
"285 469 LINE",
"185 -100 LINE"
);
}
);
width = 522;
}
);
unicode = 2020;
},
{
glyphname = daggerdbl;
layers = (
{
layerId = "EA8306D6-B852-442A-A16D-2D86AE16EEA2";
paths = (
{
closed = 1;
nodes = (
"217 -100 LINE",
"247 71 LINE",
"416 71 LINE",
"421 99 LINE",
"252 99 LINE",
"317 469 LINE",
"486 469 LINE",
"491 497 LINE",
"322 497 LINE",
"352 668 LINE",
"320 668 LINE",
"290 497 LINE",
"121 497 LINE",
"116 469 LINE",
"285 469 LINE",
"220 99 LINE",
"51 99 LINE",
"46 71 LINE",
"215 71 LINE",
"185 -100 LINE"
);
}
);
width = 522;
}
);
unicode = 2021;
},
{
glyphname = bullet;
layers = (
{
layerId = "EA8306D6-B852-442A-A16D-2D86AE16EEA2";
paths = (
{
closed = 1;
nodes = (
"239 204 OFFCURVE",
"277 240 OFFCURVE",
"277 296 CURVE SMOOTH",
"277 339 OFFCURVE",
"247 368 OFFCURVE",
"200 368 CURVE SMOOTH",
"141 368 OFFCURVE",
"103 332 OFFCURVE",
"103 276 CURVE SMOOTH",
"103 233 OFFCURVE",
"133 204 OFFCURVE",
"180 204 CURVE SMOOTH"
);
}
);
width = 324;
}
);
unicode = 2022;
},
{
glyphname = ellipsis;
layers = (
{
layerId = "EA8306D6-B852-442A-A16D-2D86AE16EEA2";
paths = (
{
closed = 1;
nodes = (
"87 -4 OFFCURVE",
"99 7 OFFCURVE",
"99 24 CURVE SMOOTH",
"99 39 OFFCURVE",
"91 46 OFFCURVE",
"76 46 CURVE SMOOTH",
"59 46 OFFCURVE",
"47 35 OFFCURVE",
"47 18 CURVE SMOOTH",
"47 3 OFFCURVE",
"55 -4 OFFCURVE",
"70 -4 CURVE SMOOTH"
);
},
{
closed = 1;
nodes = (
"311 -4 OFFCURVE",
"323 7 OFFCURVE",
"323 24 CURVE SMOOTH",
"323 39 OFFCURVE",
"315 46 OFFCURVE",
"300 46 CURVE SMOOTH",
"283 46 OFFCURVE",
"271 35 OFFCURVE",
"271 18 CURVE SMOOTH",
"271 3 OFFCURVE",
"279 -4 OFFCURVE",
"294 -4 CURVE SMOOTH"
);
},
{
closed = 1;
nodes = (
"535 -4 OFFCURVE",
"547 7 OFFCURVE",
"547 24 CURVE SMOOTH",
"547 39 OFFCURVE",
"539 46 OFFCURVE",
"524 46 CURVE SMOOTH",
"507 46 OFFCURVE",
"495 35 OFFCURVE",
"495 18 CURVE SMOOTH",
"495 3 OFFCURVE",
"503 -4 OFFCURVE",
"518 -4 CURVE SMOOTH"
);
}
);
width = 672;
}
);
leftKerningGroup = _comma;
rightKerningGroup = _comma;
unicode = 2026;
},
{
glyphname = perthousand;
layers = (
{
layerId = "EA8306D6-B852-442A-A16D-2D86AE16EEA2";
paths = (
{
closed = 1;
nodes = (
"354 268 OFFCURVE",
"411 403 OFFCURVE",
"411 519 CURVE SMOOTH",
"411 608 OFFCURVE",
"366 674 OFFCURVE",
"286 674 CURVE SMOOTH",
"158 674 OFFCURVE",
"101 539 OFFCURVE",
"101 423 CURVE SMOOTH",
"101 334 OFFCURVE",
"146 268 OFFCURVE",
"226 268 CURVE SMOOTH"
);
},
{
closed = 1;
nodes = (
"170 296 OFFCURVE",
"135 340 OFFCURVE",
"135 423 CURVE SMOOTH",
"135 530 OFFCURVE",
"183 646 OFFCURVE",
"286 646 CURVE SMOOTH",
"342 646 OFFCURVE",
"377 602 OFFCURVE",
"377 519 CURVE SMOOTH",
"377 412 OFFCURVE",
"329 296 OFFCURVE",
"226 296 CURVE SMOOTH"
);
},
{
closed = 1;
nodes = (
"283 0 LINE",
"758 668 LINE",
"724 668 LINE",
"249 0 LINE"
);
},
{
closed = 1;
nodes = (
"849 -6 OFFCURVE",
"906 129 OFFCURVE",
"906 245 CURVE SMOOTH",
"906 334 OFFCURVE",
"861 400 OFFCURVE",
"781 400 CURVE SMOOTH",
"653 400 OFFCURVE",
"596 265 OFFCURVE",
"596 149 CURVE SMOOTH",
"596 60 OFFCURVE",
"641 -6 OFFCURVE",
"721 -6 CURVE SMOOTH"
);
},
{
closed = 1;
nodes = (
"665 22 OFFCURVE",
"630 66 OFFCURVE",
"630 149 CURVE SMOOTH",
"630 256 OFFCURVE",
"678 372 OFFCURVE",
"781 372 CURVE SMOOTH",
"837 372 OFFCURVE",
"872 328 OFFCURVE",
"872 245 CURVE SMOOTH",
"872 138 OFFCURVE",
"824 22 OFFCURVE",
"721 22 CURVE SMOOTH"
);
},
{
closed = 1;
nodes = (
"1229 -6 OFFCURVE",
"1286 129 OFFCURVE",
"1286 245 CURVE SMOOTH",
"1286 334 OFFCURVE",
"1241 400 OFFCURVE",
"1161 400 CURVE SMOOTH",
"1033 400 OFFCURVE",
"976 265 OFFCURVE",
"976 149 CURVE SMOOTH",
"976 60 OFFCURVE",
"1021 -6 OFFCURVE",
"1101 -6 CURVE SMOOTH"
);
},
{
closed = 1;
nodes = (
"1045 22 OFFCURVE",
"1010 66 OFFCURVE",
"1010 149 CURVE SMOOTH",
"1010 256 OFFCURVE",
"1058 372 OFFCURVE",
"1161 372 CURVE SMOOTH",
"1217 372 OFFCURVE",
"1252 328 OFFCURVE",
"1252 245 CURVE SMOOTH",
"1252 138 OFFCURVE",
"1204 22 OFFCURVE",
"1101 22 CURVE SMOOTH"
);
}
);
width = 1354;
}
);
unicode = 2030;
},
{
glyphname = guilsinglleft;
layers = (
{
layerId = "EA8306D6-B852-442A-A16D-2D86AE16EEA2";
paths = (
{
closed = 1;
nodes = (
"175 113 LINE",
"106 286 LINE",
"237 461 LINE",
"205 461 LINE",
"74 286 LINE",
"143 113 LINE"
);
}
);
width = 264;
}
);
unicode = 2039;
},
{
glyphname = guilsinglright;
layers = (
{
layerId = "EA8306D6-B852-442A-A16D-2D86AE16EEA2";
paths = (
{
closed = 1;
nodes = (
"75 113 LINE",
"206 286 LINE",
"137 461 LINE",
"105 461 LINE",
"174 286 LINE",
"43 113 LINE"
);
}
);
width = 264;
}
);
unicode = 203A;
},
{
glyphname = fraction;
layers = (
{
layerId = "EA8306D6-B852-442A-A16D-2D86AE16EEA2";
paths = (
{
closed = 1;
nodes = (
"-108 0 LINE",
"367 668 LINE",
"333 668 LINE",
"-142 0 LINE"
);
}
);
width = 192;
}
);
unicode = 2044;
},
{
glyphname = Euro;
layers = (
{
layerId = "EA8306D6-B852-442A-A16D-2D86AE16EEA2";
paths = (
{
closed = 1;
nodes = (
"412 -10 OFFCURVE",
"478 17 OFFCURVE",
"550 84 CURVE",
"537 106 LINE",
"462 41 OFFCURVE",
"408 18 OFFCURVE",
"336 18 CURVE SMOOTH",
"221 18 OFFCURVE",
"143 92 OFFCURVE",
"138 237 CURVE",
"366 237 LINE",
"384 265 LINE",
"138 265 LINE",
"139 312 OFFCURVE",
"145 358 OFFCURVE",
"158 403 CURVE",
"471 403 LINE",
"488 431 LINE",
"166 431 LINE",
"209 556 OFFCURVE",
"302 650 OFFCURVE",
"438 650 CURVE SMOOTH",
"510 650 OFFCURVE",
"565 627 OFFCURVE",
"618 562 CURVE",
"638 584 LINE",
"590 651 OFFCURVE",
"514 678 OFFCURVE",
"438 678 CURVE SMOOTH",
"281 678 OFFCURVE",
"178 571 OFFCURVE",
"132 431 CURVE",
"79 431 LINE",
"75 403 LINE",
"123 403 LINE",
"111 359 OFFCURVE",
"105 312 OFFCURVE",
"104 265 CURVE",
"50 265 LINE",
"45 237 LINE",
"104 237 LINE",
"109 87 OFFCURVE",
"202 -10 OFFCURVE",
"336 -10 CURVE SMOOTH"
);
}
);
width = 642;
}
);
unicode = 20AC;
},
{
glyphname = trademark;
layers = (
{
layerId = "EA8306D6-B852-442A-A16D-2D86AE16EEA2";
paths = (
{
closed = 1;
nodes = (
"161 426 LINE",
"198 640 LINE",
"270 640 LINE",
"275 668 LINE",
"101 668 LINE",
"96 640 LINE",
"168 640 LINE",
"131 426 LINE"
);
},
{
closed = 1;
nodes = (
"532 426 LINE",
"574 668 LINE",
"526 668 LINE",
"410 463 LINE",
"365 668 LINE",
"319 668 LINE",
"277 426 LINE",
"307 426 LINE",
"343 632 LINE",
"389 426 LINE",
"421 426 LINE",
"538 632 LINE",
"502 426 LINE"
);
}
);
width = 556;
}
);
unicode = 2122;
},
{
glyphname = Omega;
layers = (
{
layerId = "EA8306D6-B852-442A-A16D-2D86AE16EEA2";
paths = (
{
closed = 1;
nodes = (
"662 0 LINE",
"667 30 LINE",
"462 30 LINE",
"616 72 OFFCURVE",
"735 190 OFFCURVE",
"735 396 CURVE SMOOTH",
"735 568 OFFCURVE",
"617 678 OFFCURVE",
"457 678 CURVE SMOOTH",
"226 678 OFFCURVE",
"77 528 OFFCURVE",
"77 272 CURVE SMOOTH",
"77 155 OFFCURVE",
"154 67 OFFCURVE",
"244 30 CURVE",
"39 30 LINE",
"34 0 LINE",
"298 0 LINE",
"303 30 LINE",
"178 81 OFFCURVE",
"111 159 OFFCURVE",
"111 272 CURVE SMOOTH",
"111 516 OFFCURVE",
"246 648 OFFCURVE",
"457 648 CURVE SMOOTH",
"602 648 OFFCURVE",
"701 552 OFFCURVE",
"701 396 CURVE SMOOTH",
"701 208 OFFCURVE",
"599 86 OFFCURVE",
"403 30 CURVE",
"398 0 LINE"
);
}
);
width = 780;
}
);
unicode = 2126;
},
{
glyphname = partialdiff;
layers = (
{
layerId = "EA8306D6-B852-442A-A16D-2D86AE16EEA2";
paths = (
{
closed = 1;
nodes = (
"460 -10 OFFCURVE",
"596 267 OFFCURVE",
"596 477 CURVE SMOOTH",
"596 608 OFFCURVE",
"518 678 OFFCURVE",
"405 678 CURVE SMOOTH",
"328 678 OFFCURVE",
"277 651 OFFCURVE",
"204 584 CURVE",
"218 562 LINE",
"279 619 OFFCURVE",
"333 650 OFFCURVE",
"405 650 CURVE SMOOTH",
"501 650 OFFCURVE",
"564 594 OFFCURVE",
"564 477 CURVE SMOOTH",
"564 434 OFFCURVE",
"559 364 OFFCURVE",
"540 316 CURVE",
"521 380 OFFCURVE",
"438 428 OFFCURVE",
"340 428 CURVE SMOOTH",
"183 428 OFFCURVE",
"52 329 OFFCURVE",
"52 157 CURVE SMOOTH",
"52 61 OFFCURVE",
"117 -10 OFFCURVE",
"223 -10 CURVE SMOOTH"
);
},
{
closed = 1;
nodes = (
"140 18 OFFCURVE",
"84 73 OFFCURVE",
"84 157 CURVE SMOOTH",
"84 301 OFFCURVE",
"188 400 OFFCURVE",
"340 400 CURVE SMOOTH",
"445 400 OFFCURVE",
"528 342 OFFCURVE",
"528 280 CURVE",
"475 131 OFFCURVE",
"359 18 OFFCURVE",
"223 18 CURVE SMOOTH"
);
}
);
width = 624;
}
);
unicode = 2202;
},
{
glyphname = Delta;
layers = (
{
layerId = "EA8306D6-B852-442A-A16D-2D86AE16EEA2";
paths = (
{
closed = 1;
nodes = (
"608 0 LINE",
"437 668 LINE",
"405 668 LINE",
"0 0 LINE"
);
},
{
closed = 1;
nodes = (
"568 30 LINE",
"54 30 LINE",
"417 631 LINE"
);
}
);
width = 692;
}
);
leftKerningGroup = _A1;
rightKerningGroup = _A;
unicode = 2206;
},
{
glyphname = product;
layers = (
{
layerId = "EA8306D6-B852-442A-A16D-2D86AE16EEA2";
paths = (
{
closed = 1;
nodes = (
"399 -182 LINE",
"549 668 LINE",
"171 668 LINE",
"21 -182 LINE",
"51 -182 LINE",
"196 640 LINE",
"514 640 LINE",
"369 -182 LINE"
);
}
);
width = 570;
}
);
unicode = 220F;
},
{
glyphname = summation;
layers = (
{
layerId = "EA8306D6-B852-442A-A16D-2D86AE16EEA2";
paths = (
{
closed = 1;
nodes = (
"315 -182 LINE",
"320 -154 LINE",
"13 -154 LINE",
"286 243 LINE",
"153 640 LINE",
"460 640 LINE",
"465 668 LINE",
"125 668 LINE",
"120 640 LINE",
"253 243 LINE",
"-20 -154 LINE",
"-25 -182 LINE"
);
}
);
width = 440;
}
);
unicode = 2211;
},
{
glyphname = minus;
layers = (
{
layerId = "EA8306D6-B852-442A-A16D-2D86AE16EEA2";
paths = (
{
closed = 1;
nodes = (
"500 320 LINE",
"505 348 LINE",
"115 348 LINE",
"110 320 LINE"
);
}
);
width = 582;
}
);
leftKerningGroup = _plus;
rightKerningGroup = _plus;
unicode = 2212;
},
{
glyphname = radical;
layers = (
{
layerId = "EA8306D6-B852-442A-A16D-2D86AE16EEA2";
paths = (
{
closed = 1;
nodes = (
"199 -182 LINE",
"705 668 LINE",
"671 668 LINE",
"189 -145 LINE",
"117 152 LINE",
"24 152 LINE",
"19 124 LINE",
"95 124 LINE",
"169 -182 LINE"
);
}
);
width = 672;
}
);
unicode = 221A;
},
{
glyphname = infinity;
layers = (
{
layerId = "EA8306D6-B852-442A-A16D-2D86AE16EEA2";
paths = (
{
closed = 1;
nodes = (
"678 180 OFFCURVE",
"755 248 OFFCURVE",
"755 364 CURVE SMOOTH",
"755 441 OFFCURVE",
"703 488 OFFCURVE",
"614 488 CURVE SMOOTH",
"554 488 OFFCURVE",
"505 463 OFFCURVE",
"421 358 CURVE",
"373 463 OFFCURVE",
"325 488 OFFCURVE",
"265 488 CURVE SMOOTH",
"156 488 OFFCURVE",
"79 420 OFFCURVE",
"79 304 CURVE SMOOTH",
"79 227 OFFCURVE",
"131 180 OFFCURVE",
"220 180 CURVE SMOOTH",
"280 180 OFFCURVE",
"327 205 OFFCURVE",
"412 309 CURVE",
"460 204 OFFCURVE",
"507 180 OFFCURVE",
"569 180 CURVE SMOOTH"
);
},
{
closed = 1;
nodes = (
"510 206 OFFCURVE",
"471 239 OFFCURVE",
"432 334 CURVE",
"504 427 OFFCURVE",
"555 462 OFFCURVE",
"614 462 CURVE SMOOTH",
"686 462 OFFCURVE",
"725 424 OFFCURVE",
"725 364 CURVE SMOOTH",
"725 269 OFFCURVE",
"660 206 OFFCURVE",
"569 206 CURVE SMOOTH"
);
},
{
closed = 1;
nodes = (
"148 206 OFFCURVE",
"109 244 OFFCURVE",
"109 304 CURVE SMOOTH",
"109 399 OFFCURVE",
"174 462 OFFCURVE",
"265 462 CURVE SMOOTH",
"324 462 OFFCURVE",
"363 427 OFFCURVE",
"402 334 CURVE",
"330 241 OFFCURVE",
"279 206 OFFCURVE",
"220 206 CURVE SMOOTH"
);
}
);
width = 802;
}
);
unicode = 221E;
},
{
glyphname = integral;
layers = (
{
layerId = "EA8306D6-B852-442A-A16D-2D86AE16EEA2";
paths = (
{
closed = 1;
nodes = (
"92 -188 OFFCURVE",
"134 -150 OFFCURVE",
"149 -66 CURVE SMOOTH",
"258 552 LINE SMOOTH",
"269 617 OFFCURVE",
"301 646 OFFCURVE",
"361 646 CURVE SMOOTH",
"377 646 OFFCURVE",
"396 645 OFFCURVE",
"407 642 CURVE",
"411 668 LINE",
"402 672 OFFCURVE",
"377 674 OFFCURVE",
"361 674 CURVE SMOOTH",
"285 674 OFFCURVE",
"243 636 OFFCURVE",
"228 552 CURVE SMOOTH",
"119 -66 LINE SMOOTH",
"108 -131 OFFCURVE",
"76 -160 OFFCURVE",
"16 -160 CURVE SMOOTH",
"0 -160 OFFCURVE",
"-19 -159 OFFCURVE",
"-30 -156 CURVE",
"-35 -182 LINE",
"-26 -186 OFFCURVE",
"0 -188 OFFCURVE",
"16 -188 CURVE SMOOTH"
);
}
);
width = 376;
}
);
unicode = 222B;
},
{
glyphname = approxequal;
layers = (
{
layerId = "EA8306D6-B852-442A-A16D-2D86AE16EEA2";
paths = (
{
closed = 1;
nodes = (
"448 160 OFFCURVE",
"480 204 OFFCURVE",
"495 292 CURVE",
"469 292 LINE",
"453 221 OFFCURVE",
"426 188 OFFCURVE",
"379 188 CURVE SMOOTH",
"314 188 OFFCURVE",
"277 292 OFFCURVE",
"198 292 CURVE SMOOTH",
"129 292 OFFCURVE",
"97 248 OFFCURVE",
"82 160 CURVE",
"108 160 LINE",
"124 231 OFFCURVE",
"151 264 OFFCURVE",
"198 264 CURVE SMOOTH",
"263 264 OFFCURVE",
"300 160 OFFCURVE",
"379 160 CURVE SMOOTH"
);
},
{
closed = 1;
nodes = (
"486 376 OFFCURVE",
"518 420 OFFCURVE",
"533 508 CURVE",
"507 508 LINE",
"491 437 OFFCURVE",
"464 404 OFFCURVE",
"417 404 CURVE SMOOTH",
"352 404 OFFCURVE",
"315 508 OFFCURVE",
"236 508 CURVE SMOOTH",
"167 508 OFFCURVE",
"135 464 OFFCURVE",
"120 376 CURVE",
"146 376 LINE",
"162 447 OFFCURVE",
"189 480 OFFCURVE",
"236 480 CURVE SMOOTH",
"301 480 OFFCURVE",
"338 376 OFFCURVE",
"417 376 CURVE SMOOTH"
);
}
);
width = 582;
}
);
unicode = 2248;
},
{
glyphname = notequal;
layers = (
{
layerId = "EA8306D6-B852-442A-A16D-2D86AE16EEA2";
paths = (
{
closed = 1;
nodes = (
"481 212 LINE",
"486 240 LINE",
"280 240 LINE",
"363 428 LINE",
"519 428 LINE",
"524 456 LINE",
"375 456 LINE",
"416 549 LINE",
"388 549 LINE",
"347 456 LINE",
"134 456 LINE",
"129 428 LINE",
"335 428 LINE",
"252 240 LINE",
"96 240 LINE",
"91 212 LINE",
"240 212 LINE",
"198 119 LINE",
"226 119 LINE",
"268 212 LINE"
);
}
);
width = 582;
}
);
unicode = 2260;
},
{
glyphname = lessequal;
layers = (
{
layerId = "EA8306D6-B852-442A-A16D-2D86AE16EEA2";
paths = (
{
closed = 1;
nodes = (
"444 0 LINE",
"448 28 LINE",
"58 28 LINE",
"54 0 LINE"
);
},
{
closed = 1;
nodes = (
"470 152 LINE",
"475 182 LINE",
"144 332 LINE",
"528 482 LINE",
"534 516 LINE",
"115 348 LINE",
"110 320 LINE"
);
}
);
width = 582;
}
);
unicode = 2264;
},
{
glyphname = greaterequal;
layers = (
{
layerId = "EA8306D6-B852-442A-A16D-2D86AE16EEA2";
paths = (
{
closed = 1;
nodes = (
"444 0 LINE",
"448 28 LINE",
"58 28 LINE",
"54 0 LINE"
);
},
{
closed = 1;
nodes = (
"500 320 LINE",
"505 348 LINE",
"145 516 LINE",
"140 486 LINE",
"471 336 LINE",
"87 186 LINE",
"81 152 LINE"
);
}
);
width = 582;
}
);
unicode = 2265;
},
{
glyphname = lozenge;
layers = (
{
layerId = "EA8306D6-B852-442A-A16D-2D86AE16EEA2";
paths = (
{
closed = 1;
nodes = (
"258 0 LINE",
"520 334 LINE",
"375 668 LINE",
"345 668 LINE",
"82 334 LINE",
"228 0 LINE"
);
},
{
closed = 1;
nodes = (
"247 28 LINE",
"114 334 LINE",
"355 640 LINE",
"488 334 LINE"
);
}
);
width = 570;
}
);
unicode = 25CA;
},
{
glyphname = fi;
layers = (
{
layerId = "EA8306D6-B852-442A-A16D-2D86AE16EEA2";
paths = (
{
closed = 1;
nodes = (
"131 0 LINE",
"209 442 LINE",
"341 442 LINE",
"346 470 LINE",
"214 470 LINE",
"228 552 LINE SMOOTH",
"239 617 OFFCURVE",
"271 646 OFFCURVE",
"331 646 CURVE SMOOTH",
"347 646 OFFCURVE",
"366 645 OFFCURVE",
"377 642 CURVE",
"381 668 LINE",
"372 672 OFFCURVE",
"347 674 OFFCURVE",
"331 674 CURVE SMOOTH",
"255 674 OFFCURVE",
"213 636 OFFCURVE",
"198 552 CURVE SMOOTH",
"184 470 LINE",
"70 470 LINE",
"65 442 LINE",
"179 442 LINE",
"101 0 LINE"
);
},
{
closed = 1;
nodes = (
"420 0 LINE",
"502 470 LINE",
"472 470 LINE",
"390 0 LINE"
);
},
{
closed = 1;
nodes = (
"528 602 OFFCURVE",
"540 612 OFFCURVE",
"540 628 CURVE SMOOTH",
"540 641 OFFCURVE",
"532 648 OFFCURVE",
"517 648 CURVE SMOOTH",
"500 648 OFFCURVE",
"488 638 OFFCURVE",
"488 622 CURVE SMOOTH",
"488 609 OFFCURVE",
"496 602 OFFCURVE",
"511 602 CURVE SMOOTH"
);
}
);
width = 558;
}
);
unicode = FB01;
},
{
glyphname = fl;
layers = (
{
layerId = "EA8306D6-B852-442A-A16D-2D86AE16EEA2";
paths = (
{
closed = 1;
nodes = (
"131 0 LINE",
"209 442 LINE",
"341 442 LINE",
"346 470 LINE",
"214 470 LINE",
"228 552 LINE SMOOTH",
"239 617 OFFCURVE",
"271 646 OFFCURVE",
"331 646 CURVE SMOOTH",
"347 646 OFFCURVE",
"366 645 OFFCURVE",
"377 642 CURVE",
"381 668 LINE",
"372 672 OFFCURVE",
"347 674 OFFCURVE",
"331 674 CURVE SMOOTH",
"255 674 OFFCURVE",
"213 636 OFFCURVE",
"198 552 CURVE SMOOTH",
"184 470 LINE",
"70 470 LINE",
"65 442 LINE",
"179 442 LINE",
"101 0 LINE"
);
},
{
closed = 1;
nodes = (
"420 0 LINE",
"537 668 LINE",
"507 668 LINE",
"390 0 LINE"
);
}
);
width = 558;
}
);
unicode = FB02;
},
